<?xml version="1.0" encoding="UTF-8" standalone="no"?>
<!-- Created with Inkscape (http://www.inkscape.org/) -->
<svg
   xmlns:dc="http://purl.org/dc/elements/1.1/"
   xmlns:cc="http://creativecommons.org/ns#"
   xmlns:rdf="http://www.w3.org/1999/02/22-rdf-syntax-ns#"
   xmlns:svg="http://www.w3.org/2000/svg"
   xmlns="http://www.w3.org/2000/svg"
   xmlns:sodipodi="http://sodipodi.sourceforge.net/DTD/sodipodi-0.dtd"
   xmlns:inkscape="http://www.inkscape.org/namespaces/inkscape"
   width="500mm"
   height="500mm"
   version="1.1"
   viewBox="0 0 500 500"
   id="watch"
   onload="start(evt)"
   inkscape:version="0.92.1 r15371"
   sodipodi:docname="poc.svg">

   <script
     type="text/ecmascript"
     id="animation">

    var R = 126;
    var r = 26;
    var cX = 250;
    var cY = 250;

    var primaryGear;
    var secondaryGear;

    function start(evt) {
      primaryGear = evt.target.ownerDocument.getElementById("primary_gear");
      secondaryGear = evt.target.ownerDocument.getElementById(&quot;secondary_gear&quot;);
      animate();

      // Refresh every second.
      setInterval(animate, 100);
    }

    var counter = 0;
    function animate() {

      // Get computer clock time
      var date = new Date();

      var s =  date.getSeconds() + date.getMilliseconds() / 1000;
      var thetaDegree = s * 6;
      var thetaRadian = (thetaDegree / 360) * 2 * Math.PI;
      var x = cX + (R + r) * Math.cos(thetaRadian);
      var y = cY + (R + r) * Math.sin(thetaRadian);

      secondaryGear.setAttribute("transform", "translate(" + x + "," + y + ") rotate( " + thetaDegree + ")");

    }

    window.animate = animate
  </script>
  <sodipodi:namedview
     id="base"
     pagecolor="#ffffff"
     bordercolor="#666666"
     borderopacity="1.0"
     inkscape:pageopacity="0.0"
     inkscape:pageshadow="2"
     inkscape:zoom="0.24748737"
     inkscape:cx="-500.43398"
     inkscape:cy="556.13787"
     inkscape:document-units="mm"
     inkscape:current-layer="layer1"
     showgrid="false"
     inkscape:window-width="1855"
     inkscape:window-height="1056"
     inkscape:window-x="65"
     inkscape:window-y="24"
     inkscape:window-maximized="1"
     fit-margin-top="0"
     fit-margin-left="0"
     fit-margin-right="0"
     fit-margin-bottom="0" />
  <defs
     id="defs5123" />
  <metadata
     id="metadata5126">
    <rdf:RDF>
      <cc:Work
         rdf:about="">
        <dc:format>image/svg+xml</dc:format>
        <dc:type
           rdf:resource="http://purl.org/dc/dcmitype/StillImage" />
        <dc:title></dc:title>
      </cc:Work>
    </rdf:RDF>
  </metadata>
  <g
     inkscape:label="Layer 1"
     inkscape:groupmode="layer"
     id="layer1">
    <g
       transform="translate(250, 250)"
       inkscape:label="Primary gear"
       id="primary_gear"
       style="fill:#000000;fill-opacity:1">
      <path
         d="m 124.6307,-1.87811 1.69161,0.55522 1.68946,0.63348 v 1.37882 l -1.68946,0.63348 -1.69161,0.55522 -0.0307,1.46442 1.66688,0.62557 1.66145,0.70367 -0.0577,1.37761 -1.7145,0.56218 -1.71338,0.48389 -0.092,1.46186 1.63923,0.69482 1.63052,0.77263 -0.11537,1.37398 -1.73655,0.48989 -1.73214,0.41172 -0.15311,1.45672 1.60869,0.76285 1.59674,0.84024 -0.17281,1.36794 -1.75553,0.41674 -1.74786,0.33882 -0.21398,1.44904 1.57533,0.82955 1.56016,0.90636 -0.22994,1.35951 -1.77145,0.34286 -1.76052,0.26533 -0.27446,1.4388 1.53921,0.89479 1.52083,0.9709 -0.28667,1.34869 -1.78425,0.26838 -1.77008,0.19137 -0.33448,1.42605 1.50039,0.95846 1.47884,1.03373 -0.34289,1.3355 -1.79393,0.19343 -1.77654,0.11708 -0.3939,1.4108 1.45894,1.02044 1.43425,1.09476 -0.39852,1.31996 -1.80045,0.11814 -1.77989,0.04259 -0.45263,1.39306 1.41493,1.08065 1.38715,1.15385 -0.45344,1.30212 -1.80382,0.04264 -1.78011,-0.03198 -0.51057,1.37288 1.36843,1.13895 1.33762,1.21093 -0.50757,1.28199 -1.80403,-0.03293 -1.77721,-0.1065 -0.56761,1.3503 1.31954,1.19525 1.28574,1.26588 -0.56082,1.25961 -1.80106,-0.10845 -1.77119,-0.18082 -0.62366,1.32534 1.26833,1.24946 1.2316,1.31862 -0.61307,1.23502 -1.79494,-0.18378 -1.76206,-0.25484 -0.67861,1.29807 1.21489,1.30148 1.1753,1.36903 -0.66425,1.20826 -1.78566,-0.25877 -1.74985,-0.32841 -0.73238,1.26851 1.15933,1.35121 1.11694,1.41705 -0.71426,1.17939 -1.77327,-0.33333 -1.73456,-0.40139 -0.78485,1.23673 1.10173,1.39857 1.05662,1.46258 -0.76302,1.14844 -1.75775,-0.40729 -1.71623,-0.47367 -0.83596,1.20278 1.0422,1.44348 0.99445,1.50554 -0.81045,1.11548 -1.73915,-0.48054 -1.69489,-0.54513 -0.88559,1.16672 0.98084,1.48586 0.93053,1.54586 -0.85645,1.08057 -1.7175,-0.55295 -1.67058,-0.61562 -0.93367,1.12861 0.91776,1.52563 0.86498,1.58347 -0.90095,1.04376 -1.69284,-0.62439 -1.64333,-0.68504 -0.98011,1.08852 0.85306,1.56272 0.79792,1.61831 -0.94387,1.00511 -1.66521,-0.69472 -1.6132,-0.75326 -1.02484,1.04653 0.78688,1.59707 0.72945,1.6503 -0.98513,0.96471 -1.63466,-0.76385 -1.58025,-0.82015 -1.06775,1.00269 0.7193,1.62862 0.6597,1.6794 -1.02466,0.92261 -1.60124,-0.83163 -1.54451,-0.88561 -1.10881,0.9571 0.65048,1.65732 0.58879,1.70555 -1.06239,0.87889 -1.56502,-0.89795 -1.50607,-0.94951 -1.14791,0.90983 0.5805,1.6831 0.51686,1.72871 -1.09827,0.83363 -1.52604,-0.9627 -1.46499,-1.01174 -1.18501,0.86096 0.50952,1.70593 0.44401,1.74884 -1.13221,0.78691 -1.48439,-1.02576 -1.42134,-1.0722 -1.22002,0.81058 0.43763,1.72577 0.37039,1.7659 -1.16417,0.7388 -1.44013,-1.08702 -1.37519,-1.13077 -1.2529,0.75878 0.36498,1.74258 0.29612,1.77986 -1.19409,0.68941 -1.39334,-1.14637 -1.32664,-1.18738 -1.28357,0.70565 0.29169,1.75634 0.22132,1.7907 -1.22191,0.6388 -1.34412,-1.20372 -1.27575,-1.24188 -1.31199,0.65128 0.21788,1.76701 0.14614,1.7984 -1.24758,0.58707 -1.29254,-1.25895 -1.22262,-1.29422 -1.33812,0.59577 0.1437,1.77459 0.07071,1.80294 -1.27108,0.53431 -1.23868,-1.31197 -1.16736,-1.34428 -1.36189,0.53921 0.06926,1.77905 -0.0049,1.80432 -1.29233,0.48061 -1.18266,-1.36268 -1.11004,-1.39199 -1.38327,0.48171 -0.0053,1.78039 -0.08041,1.80253 -1.31133,0.42608 -1.12456,-1.41102 -1.05077,-1.43725 -1.40224,0.42336 -0.07985,1.77861 -0.15582,1.79758 -1.32802,0.37079 -1.06448,-1.45687 -0.98967,-1.47999 -1.41873,0.36427 -0.15426,1.7737 -0.23096,1.78948 -1.34238,0.31485 -1.00254,-1.50016 -0.92683,-1.52014 -1.43274,0.30454 -0.2284,1.76569 -0.30569,1.77824 -1.35439,0.25836 -0.93884,-1.54083 -0.86236,-1.55761 -1.44423,0.24427 -0.30214,1.75457 -0.37989,1.76388 -1.36402,0.20142 -0.8735,-1.57879 -0.79637,-1.59236 -1.4532,0.18358 -0.37535,1.74038 -0.45342,1.74642 -1.37126,0.14413 -0.80661,-1.61399 -0.72899,-1.62431 -1.45961,0.12257 -0.4479,1.72314 -0.52616,1.7259 -1.37609,0.0866 -0.73832,-1.64635 -0.66033,-1.65342 -1.46347,0.0613 -0.51966,1.70287 -0.59797,1.70236 -1.37851,0.0289 -0.66873,-1.67582 -0.59051,-1.67962 h -1.46476 l -0.59051,1.67962 -0.66873,1.67582 -1.37851,-0.0289 -0.59797,-1.70236 -0.51966,-1.70287 -1.46347,-0.0613 -0.66033,1.65342 -0.73832,1.64635 -1.37609,-0.0866 -0.52616,-1.7259 -0.4479,-1.72314 -1.45961,-0.12257 -0.72899,1.62431 -0.80661,1.61399 -1.37126,-0.14413 -0.45342,-1.74642 -0.37535,-1.74038 -1.4532,-0.18358 -0.79637,1.59236 -0.8735,1.57879 -1.36402,-0.20142 -0.37989,-1.76388 -0.30214,-1.75457 -1.44423,-0.24427 -0.86236,1.55761 -0.93884,1.54083 -1.35439,-0.25836 -0.30569,-1.77824 -0.2284,-1.76569 -1.43274,-0.30454 -0.92683,1.52014 -1.00254,1.50016 -1.34238,-0.31485 -0.23096,-1.78948 -0.15426,-1.7737 -1.41873,-0.36427 -0.98967,1.47999 -1.06448,1.45687 -1.32802,-0.37079 -0.15582,-1.79758 -0.07985,-1.77861 -1.40224,-0.42336 -1.05077,1.43725 -1.12456,1.41102 -1.31133,-0.42608 -0.08041,-1.80253 -0.0053,-1.78039 -1.38327,-0.48171 -1.11004,1.39199 -1.18266,1.36268 -1.29233,-0.48061 -0.0049,-1.80432 0.06926,-1.77905 -1.36189,-0.53921 -1.16736,1.34428 -1.23868,1.31197 -1.27108,-0.53431 0.07071,-1.80294 0.1437,-1.77459 -1.33812,-0.59577 -1.22262,1.29422 -1.29254,1.25895 -1.24758,-0.58707 0.14614,-1.7984 0.21788,-1.76701 -1.31199,-0.65128 -1.27575,1.24188 -1.34412,1.20372 -1.22191,-0.6388 0.22132,-1.7907 0.29169,-1.75634 -1.28357,-0.70565 -1.32664,1.18738 -1.39334,1.14637 -1.19409,-0.68941 0.29612,-1.77986 0.36498,-1.74258 -1.2529,-0.75878 -1.37519,1.13077 -1.44013,1.08702 -1.16417,-0.7388 0.37039,-1.7659 0.43763,-1.72577 -1.22002,-0.81058 -1.42134,1.0722 -1.48439,1.02576 -1.13221,-0.78691 0.44401,-1.74884 0.50952,-1.70593 -1.18501,-0.86096 -1.46499,1.01174 -1.52604,0.9627 -1.09827,-0.83363 0.51686,-1.72871 0.5805,-1.6831 -1.14791,-0.90983 -1.50607,0.94951 -1.56502,0.89795 -1.06239,-0.87889 0.58879,-1.70555 0.65048,-1.65732 -1.10881,-0.9571 -1.54451,0.88561 -1.60124,0.83163 -1.02466,-0.92261 0.6597,-1.6794 0.7193,-1.62862 -1.06775,-1.00269 -1.58025,0.82015 -1.63466,0.76385 -0.98513,-0.96471 0.72945,-1.6503 0.78688,-1.59707 -1.02484,-1.04653 -1.6132,0.75326 -1.66521,0.69472 -0.94387,-1.00511 0.79792,-1.61831 0.85306,-1.56272 -0.98011,-1.08852 -1.64333,0.68504 -1.69284,0.62439 -0.90095,-1.04376 0.86498,-1.58347 0.91776,-1.52563 -0.93367,-1.12861 -1.67058,0.61562 -1.7175,0.55295 -0.85645,-1.08057 0.93053,-1.54586 0.98084,-1.48586 -0.88559,-1.16672 -1.69489,0.54513 -1.73915,0.48054 -0.81045,-1.11548 0.99445,-1.50554 1.0422,-1.44348 -0.83596,-1.20278 -1.71623,0.47367 -1.75775,0.40729 -0.76302,-1.14844 1.05662,-1.46258 1.10173,-1.39857 -0.78485,-1.23673 -1.73456,0.40139 -1.77327,0.33333 -0.71426,-1.17939 1.11694,-1.41705 1.15933,-1.35121 -0.73238,-1.26851 -1.74985,0.32841 -1.78566,0.25877 -0.66425,-1.20826 1.1753,-1.36903 1.21489,-1.30148 -0.67861,-1.29807 -1.76206,0.25484 -1.79494,0.18378 -0.61307,-1.23502 1.2316,-1.31862 1.26833,-1.24946 -0.62366,-1.32534 -1.77119,0.18082 -1.80106,0.10845 -0.56082,-1.25961 1.28574,-1.26588 1.31954,-1.19525 -0.56761,-1.3503 -1.77721,0.1065 -1.80403,0.03293 -0.50757,-1.28199 1.33762,-1.21093 1.36843,-1.13895 -0.51057,-1.37288 -1.78011,0.03198 -1.80382,-0.04264 -0.45344,-1.30212 1.38715,-1.15385 1.41493,-1.08065 -0.45263,-1.39306 -1.77989,-0.04259 -1.80045,-0.11814 -0.39852,-1.31996 1.43425,-1.09476 1.45894,-1.02044 -0.3939,-1.4108 -1.77654,-0.11708 -1.79393,-0.19343 -0.34289,-1.3355 1.47884,-1.03373 1.50039,-0.95846 -0.33448,-1.42605 -1.77008,-0.19137 -1.78425,-0.26838 -0.28667,-1.34869 1.52083,-0.9709 1.53921,-0.89479 -0.27446,-1.4388 -1.76052,-0.26533 -1.77145,-0.34286 -0.22994,-1.35951 1.56016,-0.90636 1.57533,-0.82955 -0.21398,-1.44904 -1.74786,-0.33882 -1.75553,-0.41674 -0.17281,-1.36794 1.59674,-0.84024 1.60869,-0.76285 -0.15311,-1.45672 -1.73214,-0.41172 -1.73655,-0.48989 -0.11537,-1.37398 1.63052,-0.77263 1.63923,-0.69482 -0.092,-1.46186 -1.71338,-0.48389 -1.7145,-0.56218 -0.0577,-1.37761 1.66145,-0.70367 1.66688,-0.62557 -0.0307,-1.46442 -1.69161,-0.55522 -1.68946,-0.63348 v -1.37882 l 1.68946,-0.63348 1.69161,-0.55522 0.0307,-1.46442 -1.66688,-0.62557 -1.66145,-0.70367 0.0577,-1.37761 1.7145,-0.56218 1.71338,-0.48389 0.092,-1.46186 -1.63923,-0.69482 -1.63052,-0.77263 0.11537,-1.37398 1.73655,-0.48989 1.73214,-0.41172 0.15311,-1.45672 -1.60869,-0.76285 -1.59674,-0.84024 0.17281,-1.36794 1.75553,-0.41674 1.74786,-0.33882 0.21398,-1.44904 -1.57533,-0.82955 -1.56016,-0.90636 0.22994,-1.35951 1.77145,-0.34286 1.76052,-0.26533 0.27446,-1.4388 -1.53921,-0.89479 -1.52083,-0.9709 0.28667,-1.34869 1.78425,-0.26838 1.77008,-0.19137 0.33448,-1.42605 -1.50039,-0.95846 -1.47884,-1.03373 0.34289,-1.3355 1.79393,-0.19343 1.77654,-0.11708 0.3939,-1.4108 -1.45894,-1.02044 -1.43425,-1.09476 0.39852,-1.31996 1.80045,-0.11814 1.77989,-0.04259 0.45263,-1.39306 -1.41493,-1.08065 -1.38715,-1.15385 0.45344,-1.30212 1.80382,-0.04264 1.78011,0.03198 0.51057,-1.37288 -1.36843,-1.13895 -1.33762,-1.21093 0.50757,-1.28199 1.80403,0.03293 1.77721,0.1065 0.56761,-1.3503 -1.31954,-1.19525 -1.28574,-1.26588 0.56082,-1.25961 1.80106,0.10845 1.77119,0.18082 0.62366,-1.32534 -1.26833,-1.24946 -1.2316,-1.31862 0.61307,-1.23502 1.79494,0.18378 1.76206,0.25484 0.67861,-1.29807 -1.21489,-1.30148 -1.1753,-1.36903 0.66425,-1.20826 1.78566,0.25877 1.74985,0.32841 0.73238,-1.26851 -1.15933,-1.35121 -1.11694,-1.41705 0.71426,-1.17939 1.77327,0.33333 1.73456,0.40139 0.78485,-1.23673 -1.10173,-1.39857 -1.05662,-1.46258 0.76302,-1.14844 1.75775,0.40729 1.71623,0.47367 0.83596,-1.20278 -1.0422,-1.44348 -0.99445,-1.50554 0.81045,-1.11548 1.73915,0.48054 1.69489,0.54513 0.88559,-1.16672 -0.98084,-1.48586 -0.93053,-1.54586 0.85645,-1.08057 1.7175,0.55295 1.67058,0.61562 0.93367,-1.12861 -0.91776,-1.52563 -0.86498,-1.58347 0.90095,-1.04376 1.69284,0.62439 1.64333,0.68504 0.98011,-1.08852 -0.85306,-1.56272 -0.79792,-1.61831 0.94387,-1.00511 1.66521,0.69472 1.6132,0.75326 1.02484,-1.04653 -0.78688,-1.59707 -0.72945,-1.6503 0.98513,-0.96471 1.63466,0.76385 1.58025,0.82015 1.06775,-1.00269 -0.7193,-1.62862 -0.6597,-1.6794 1.02466,-0.92261 1.60124,0.83163 1.54451,0.88561 1.10881,-0.9571 -0.65048,-1.65732 -0.58879,-1.70555 1.06239,-0.87889 1.56502,0.89795 1.50607,0.94951 1.14791,-0.90983 -0.5805,-1.6831 -0.51686,-1.72871 1.09827,-0.83363 1.52604,0.9627 1.46499,1.01174 1.18501,-0.86096 -0.50952,-1.70593 -0.44401,-1.74884 1.13221,-0.78691 1.48439,1.02576 1.42134,1.0722 1.22002,-0.81058 -0.43763,-1.72577 -0.37039,-1.7659 1.16417,-0.7388 1.44013,1.08702 1.37519,1.13077 1.2529,-0.75878 -0.36498,-1.74258 -0.29612,-1.77986 1.19409,-0.68941 1.39334,1.14637 1.32664,1.18738 1.28357,-0.70565 -0.29169,-1.75634 -0.22132,-1.7907 1.22191,-0.6388 1.34412,1.20372 1.27575,1.24188 1.31199,-0.65128 -0.21788,-1.76701 -0.14614,-1.7984 1.24758,-0.58707 1.29254,1.25895 1.22262,1.29422 1.33812,-0.59577 -0.1437,-1.77459 -0.07071,-1.80294 1.27108,-0.53431 1.23868,1.31197 1.16736,1.34428 1.36189,-0.53921 -0.06926,-1.77905 0.0049,-1.80432 1.29233,-0.48061 1.18266,1.36268 1.11004,1.39199 1.38327,-0.48171 0.0053,-1.78039 0.08041,-1.80253 1.31133,-0.42608 1.12456,1.41102 1.05077,1.43725 1.40224,-0.42336 0.07985,-1.77861 0.15582,-1.79758 1.32802,-0.37079 1.06448,1.45687 0.98967,1.47999 1.41873,-0.36427 0.15426,-1.7737 0.23096,-1.78948 1.34238,-0.31485 1.00254,1.50016 0.92683,1.52014 1.43274,-0.30454 0.2284,-1.76569 0.30569,-1.77824 1.35439,-0.25836 0.93884,1.54083 0.86236,1.55761 1.44423,-0.24427 0.30214,-1.75457 0.37989,-1.76388 1.36402,-0.20142 0.8735,1.57879 0.79637,1.59236 1.4532,-0.18358 0.37535,-1.74038 0.45342,-1.74642 1.37126,-0.14413 0.80661,1.61399 0.72899,1.62431 1.45961,-0.12257 0.4479,-1.72314 0.52616,-1.7259 1.37609,-0.0866 0.73832,1.64635 0.66033,1.65342 1.46347,-0.0613 0.51966,-1.70287 0.59797,-1.70236 1.37851,-0.0289 0.66873,1.67582 0.59051,1.67962 h 1.46476 l 0.59051,-1.67962 0.66873,-1.67582 1.37851,0.0289 0.59797,1.70236 0.51966,1.70287 1.46347,0.0613 0.66033,-1.65342 0.73832,-1.64635 1.37609,0.0866 0.52616,1.7259 0.4479,1.72314 1.45961,0.12257 0.72899,-1.62431 0.80661,-1.61399 1.37126,0.14413 0.45342,1.74642 0.37535,1.74038 1.4532,0.18358 0.79637,-1.59236 0.8735,-1.57879 1.36402,0.20142 0.37989,1.76388 0.30214,1.75457 1.44423,0.24427 0.86236,-1.55761 0.93884,-1.54083 1.35439,0.25836 0.30569,1.77824 0.2284,1.76569 1.43274,0.30454 0.92683,-1.52014 1.00254,-1.50016 1.34238,0.31485 0.23096,1.78948 0.15426,1.7737 1.41873,0.36427 0.98967,-1.47999 1.06448,-1.45687 1.32802,0.37079 0.15582,1.79758 0.07985,1.77861 1.40224,0.42336 1.05077,-1.43725 1.12456,-1.41102 1.31133,0.42608 0.08041,1.80253 0.0053,1.78039 1.38327,0.48171 1.11004,-1.39199 1.18266,-1.36268 1.29233,0.48061 0.0049,1.80432 -0.06926,1.77905 1.36189,0.53921 1.16736,-1.34428 1.23868,-1.31197 1.27108,0.53431 -0.07071,1.80294 -0.1437,1.77459 1.33812,0.59577 1.22262,-1.29422 1.29254,-1.25895 1.24758,0.58707 -0.14614,1.7984 -0.21788,1.76701 1.31199,0.65128 1.27575,-1.24188 1.34412,-1.20372 1.22191,0.6388 -0.22132,1.7907 -0.29169,1.75634 1.28357,0.70565 1.32664,-1.18738 1.39334,-1.14637 1.19409,0.68941 -0.29612,1.77986 -0.36498,1.74258 1.2529,0.75878 1.37519,-1.13077 1.44013,-1.08702 1.16417,0.7388 -0.37039,1.7659 -0.43763,1.72577 1.22002,0.81058 1.42134,-1.0722 1.48439,-1.02576 1.13221,0.78691 -0.44401,1.74884 -0.50952,1.70593 1.18501,0.86096 1.46499,-1.01174 1.52604,-0.9627 1.09827,0.83363 -0.51686,1.72871 -0.5805,1.6831 1.14791,0.90983 1.50607,-0.94951 1.56502,-0.89795 1.06239,0.87889 -0.58879,1.70555 -0.65048,1.65732 1.10881,0.9571 1.54451,-0.88561 1.60124,-0.83163 1.02466,0.92261 -0.6597,1.6794 -0.7193,1.62862 1.06775,1.00269 1.58025,-0.82015 1.63466,-0.76385 0.98513,0.96471 -0.72945,1.6503 -0.78688,1.59707 1.02484,1.04653 1.6132,-0.75326 1.66521,-0.69472 0.94387,1.00511 -0.79792,1.61831 -0.85306,1.56272 0.98011,1.08852 1.64333,-0.68504 1.69284,-0.62439 0.90095,1.04376 -0.86498,1.58347 -0.91776,1.52563 0.93367,1.12861 1.67058,-0.61562 1.7175,-0.55295 0.85645,1.08057 -0.93053,1.54586 -0.98084,1.48586 0.88559,1.16672 1.69489,-0.54513 1.73915,-0.48054 0.81045,1.11548 -0.99445,1.50554 -1.0422,1.44348 0.83596,1.20278 1.71623,-0.47367 1.75775,-0.40729 0.76302,1.14844 -1.05662,1.46258 -1.10173,1.39857 0.78485,1.23673 1.73456,-0.40139 1.77327,-0.33333 0.71426,1.17939 -1.11694,1.41705 -1.15933,1.35121 0.73238,1.26851 1.74985,-0.32841 1.78566,-0.25877 0.66425,1.20826 -1.1753,1.36903 -1.21489,1.30148 0.67861,1.29807 1.76206,-0.25484 1.79494,-0.18378 0.61307,1.23502 -1.2316,1.31862 -1.26833,1.24946 0.62366,1.32534 1.77119,-0.18082 1.80106,-0.10845 0.56082,1.25961 -1.28574,1.26588 -1.31954,1.19525 0.56761,1.3503 1.77721,-0.1065 1.80403,-0.03293 0.50757,1.28199 -1.33762,1.21093 -1.36843,1.13895 0.51057,1.37288 1.78011,-0.03198 1.80382,0.04264 0.45344,1.30212 -1.38715,1.15385 -1.41493,1.08065 0.45263,1.39306 1.77989,0.04259 1.80045,0.11814 0.39852,1.31996 -1.43425,1.09476 -1.45894,1.02044 0.3939,1.4108 1.77654,0.11708 1.79393,0.19343 0.34289,1.3355 -1.47884,1.03373 -1.50039,0.95846 0.33448,1.42605 1.77008,0.19137 1.78425,0.26838 0.28667,1.34869 -1.52083,0.9709 -1.53921,0.89479 0.27446,1.4388 1.76052,0.26533 1.77145,0.34286 0.22994,1.35951 -1.56016,0.90636 -1.57533,0.82955 0.21398,1.44904 1.74786,0.33882 1.75553,0.41674 0.17281,1.36794 -1.59674,0.84024 -1.60869,0.76285 0.15311,1.45672 1.73214,0.41172 1.73655,0.48989 0.11537,1.37398 -1.63052,0.77263 -1.63923,0.69482 0.092,1.46186 1.71338,0.48389 1.7145,0.56218 0.0577,1.37761 -1.66145,0.70367 -1.66688,0.62557 z"
         style="fill:#000000;fill-opacity:1;stroke:#000000;stroke-width:0.26458332"
         id="path5134"
         inkscape:connector-curvature="0" />
    </g>
    <g
       id="secondary_gear"
       inkscape:label="Secondary Gear"
       transform=""
       style="fill:#e3dedb">
      <path
         id="path5150"
         style="fill:#e3dedb;stroke:#000000;stroke-width:0.26458332"
         d="m 23.52813,-1.58499 0.16031,-0.0108 1.54278,0.27348 1.71186,0.70133 v 1.24196 l -1.71186,0.70133 -1.54278,0.27348 -0.16031,-0.0108 -0.18461,1.75643 0.15905,0.02276 1.45221,0.58827 1.52864,1.04192 -0.25822,1.21482 -1.82027,0.33009 -1.56592,-0.05326 -0.15456,-0.04389 -0.54576,1.67966 0.15084,0.05534 1.29817,0.87734 1.27861,1.33698 -0.50516,1.13458 -1.84912,-0.05558 -1.52063,-0.37766 -0.14206,-0.07507 -0.88305,1.52948 0.13604,0.08549 1.08739,1.12808 0.97269,1.57359 -0.73,1.00477 -1.79716,-0.43882 -1.40888,-0.68557 -0.12335,-0.10297 -1.18175,1.31247 0.1153,0.11191 0.82908,1.3295 0.62427,1.74145 -0.92296,0.83103 -1.66665,-0.80288 -1.23555,-0.96351 -0.09925,-0.12636 -1.4288,1.03808 0.08951,0.13343 0.53455,1.47283 0.24855,1.83318 -1.07556,0.62098 -1.46331,-1.13185 -1.00823,-1.19934 -0.0708,-0.14423 -1.61341,0.71833 0.05981,0.14913 0.21665,1.55178 -0.13801,1.8448 -1.18118,0.38379 -1.196,-1.41136 -0.73684,-1.38276 -0.03927,-0.1558 -1.7275,0.36719 0.0275,0.15831 L 3.95245,24.95478 3.4339,26.73057 2.19874,26.86039 1.32231,25.23122 0.88907,23.72548 0.88305,23.56492 h -1.7661 l -0.00602,0.16056 -0.43324,1.50574 -0.87643,1.62917 -1.23516,-0.12982 -0.51855,-1.77579 -0.11072,-1.56291 0.0275,-0.15831 -1.7275,-0.36719 -0.03927,0.1558 -0.73684,1.38276 -1.196,1.41136 -1.18118,-0.38379 -0.13801,-1.8448 0.21665,-1.55178 0.05981,-0.14913 -1.61341,-0.71833 -0.0708,0.14423 -1.00823,1.19934 -1.46331,1.13185 -1.07556,-0.62098 0.24855,-1.83318 0.53455,-1.47283 0.08951,-0.13343 -1.4288,-1.03808 -0.09925,0.12636 -1.23555,0.96351 -1.66665,0.80288 -0.92296,-0.83103 0.62427,-1.74145 0.82908,-1.3295 0.1153,-0.11191 -1.18175,-1.31247 -0.12335,0.10297 -1.40888,0.68557 -1.79716,0.43882 -0.73,-1.00477 0.97269,-1.57359 1.08739,-1.12808 0.13604,-0.08549 -0.88305,-1.52948 -0.14206,0.07507 -1.52063,0.37766 -1.84912,0.05558 -0.50516,-1.13458 1.27861,-1.33698 1.29817,-0.87734 0.15084,-0.05534 -0.54576,-1.67966 -0.15456,0.04389 -1.56592,0.05326 -1.82027,-0.33009 -0.25822,-1.21482 1.52864,-1.04192 1.45221,-0.58827 0.15905,-0.02276 -0.18461,-1.75643 -0.16031,0.0108 -1.54278,-0.27348 -1.71186,-0.70133 v -1.24196 l 1.71186,-0.70133 1.54278,-0.27348 0.16031,0.0108 0.18461,-1.75643 -0.15905,-0.02276 -1.45221,-0.58827 -1.52864,-1.04192 0.25822,-1.21482 1.82027,-0.33009 1.56592,0.05326 0.15456,0.04389 0.54576,-1.67966 -0.15084,-0.05534 -1.29817,-0.87734 -1.27861,-1.33698 0.50516,-1.13458 1.84912,0.05558 1.52063,0.37766 0.14206,0.07507 0.88305,-1.52948 -0.13604,-0.08549 -1.08739,-1.12808 -0.97269,-1.57359 0.73,-1.00477 1.79716,0.43882 1.40888,0.68557 0.12335,0.10297 1.18175,-1.31247 -0.1153,-0.11191 -0.82908,-1.3295 -0.62427,-1.74145 0.92296,-0.83103 1.66665,0.80288 1.23555,0.96351 0.09925,0.12636 1.4288,-1.03808 -0.08951,-0.13343 -0.53455,-1.47283 -0.24855,-1.83318 1.07556,-0.62098 1.46331,1.13185 1.00823,1.19934 0.0708,0.14423 1.61341,-0.71833 -0.05981,-0.14913 -0.21665,-1.55178 0.13801,-1.8448 1.18118,-0.38379 1.196,1.41136 0.73684,1.38276 0.03927,0.1558 1.7275,-0.36719 -0.0275,-0.15831 0.11072,-1.56291 0.51855,-1.77579 1.23516,-0.12982 0.87643,1.62917 0.43324,1.50574 0.00602,0.16056 h 1.7661 l 0.00602,-0.16056 0.43324,-1.50574 0.87643,-1.62917 1.23516,0.12982 0.51855,1.77579 0.11072,1.56291 -0.0275,0.15831 1.7275,0.36719 0.03927,-0.1558 0.73684,-1.38276 1.196,-1.41136 1.18118,0.38379 0.13801,1.8448 -0.21665,1.55178 -0.05981,0.14913 1.61341,0.71833 0.0708,-0.14423 1.00823,-1.19934 1.46331,-1.13185 1.07556,0.62098 -0.24855,1.83318 -0.53455,1.47283 -0.08951,0.13343 1.4288,1.03808 0.09925,-0.12636 1.23555,-0.96351 1.66665,-0.80288 0.92296,0.83103 -0.62427,1.74145 -0.82908,1.3295 -0.1153,0.11191 1.18175,1.31247 0.12335,-0.10297 1.40888,-0.68557 1.79716,-0.43882 0.73,1.00477 -0.97269,1.57359 -1.08739,1.12808 -0.13604,0.08549 0.88305,1.52948 0.14206,-0.07507 1.52063,-0.37766 1.84912,-0.05558 0.50516,1.13458 -1.27861,1.33698 -1.29817,0.87734 -0.15084,0.05534 0.54576,1.67966 0.15456,-0.04389 1.56592,-0.05326 1.82027,0.33009 0.25822,1.21482 -1.52864,1.04192 -1.45221,0.58827 -0.15905,0.02276 z"
         inkscape:connector-curvature="0" />
    </g>
  </g>
</svg>
