<?xml version="1.0" encoding="UTF-8" standalone="no"?>
<!-- Created with Inkscape (http://www.inkscape.org/) -->

<svg
   xmlns:dc="http://purl.org/dc/elements/1.1/"
   xmlns:cc="http://creativecommons.org/ns#"
   xmlns:rdf="http://www.w3.org/1999/02/22-rdf-syntax-ns#"
   xmlns:svg="http://www.w3.org/2000/svg"
   xmlns="http://www.w3.org/2000/svg"
   xmlns:sodipodi="http://sodipodi.sourceforge.net/DTD/sodipodi-0.dtd"
   xmlns:inkscape="http://www.inkscape.org/namespaces/inkscape"
   width="500mm"
   height="500mm"
   version="1.1"
   viewBox="0 0 500 500"
   id="watch"
   onload="start(evt)"
   inkscape:version="0.92.1 r15371"
   sodipodi:docname="poc.svg">
  <script
     type="text/ecmascript"
     id="animation">

    var TPI = 2 * Math.PI;
    var n = 6;
    var R = 126;
    var r = 25.5;
    var cX = 250;
    var cY = 250;
    var T = 150;
    var t = T / n;

    var primaryGear;
    var secondaryGear;

    function start(evt) {
      primaryGear = evt.target.ownerDocument.getElementById(&quot;primary_gear&quot;);
      secondaryGear = evt.target.ownerDocument.getElementById(&quot;secondary_gear&quot;);
      animate();

      // Refresh every second.
      setInterval(animate, 100);
    }

    var counter = 0;
    function animate() {

      // Get computer clock time
      var date = new Date();

      var s = date.getSeconds() + date.getMilliseconds() / 1000;
      var thetaDegree = s / 60 * 360;
      var thetaRadian = (thetaDegree / 360) * TPI;
      var x = cX + (R + r) * Math.cos(thetaRadian);
      var y = cY + (R + r) * Math.sin(thetaRadian);

      // rotation of the second wheel + space between teeths
      var secondaryTheta = thetaDegree * n + (2 * 360 / t) + 1;
      secondaryGear.setAttribute(&quot;transform&quot;, &quot;translate(&quot; + x + &quot;,&quot; + y + &quot;) rotate( &quot; + secondaryTheta + &quot;)&quot;);

    }

    window.animate = animate
  </script>
  <sodipodi:namedview
     id="base"
     pagecolor="#ffffff"
     bordercolor="#666666"
     borderopacity="1.0"
     inkscape:pageopacity="0.0"
     inkscape:pageshadow="2"
     inkscape:zoom="0.98994948"
     inkscape:cx="298.58884"
     inkscape:cy="1726.9342"
     inkscape:document-units="mm"
     inkscape:current-layer="layer1"
     showgrid="false"
     inkscape:window-width="1855"
     inkscape:window-height="1056"
     inkscape:window-x="65"
     inkscape:window-y="24"
     inkscape:window-maximized="1"
     fit-margin-top="0"
     fit-margin-left="0"
     fit-margin-right="0"
     fit-margin-bottom="0" />
  <defs
     id="defs5123" />
  <metadata
     id="metadata5126">
    <rdf:RDF>
      <cc:Work
         rdf:about="">
        <dc:format>image/svg+xml</dc:format>
        <dc:type
           rdf:resource="http://purl.org/dc/dcmitype/StillImage" />
        <dc:title />
      </cc:Work>
    </rdf:RDF>
  </metadata>
  <g
     inkscape:label="Layer 1"
     inkscape:groupmode="layer"
     id="layer1">
    <g
       transform="translate(250, 250)"
       inkscape:label="Primary gear"
       id="primary_gear"
       style="fill:#000000;fill-opacity:1">
      <path
         style="fill:#000000;fill-opacity:1;stroke:#000000;stroke-width:0.99999994"
         d="M 937.35547 461.10938 L 932.14453 461.21875 L 929.88477 467.65234 L 927.91992 474.08789 L 922.38867 474.32031 L 919.89258 468.07227 L 917.10352 461.84961 L 911.90234 462.17578 L 909.91406 468.69922 L 908.2207 475.21289 L 902.70312 475.67578 L 899.94922 469.53516 L 896.90039 463.43555 L 891.7168 463.98047 L 890.00391 470.58203 L 888.58398 477.1582 L 883.0918 477.85352 L 880.08203 471.83398 L 876.78125 465.86719 L 871.625 466.62891 L 870.18945 473.29492 L 869.04883 479.92773 L 863.58984 480.84961 L 860.33008 474.96289 L 856.78125 469.13867 L 851.66211 470.11523 L 850.50781 476.83594 L 849.64453 483.50977 L 844.22852 484.66211 L 840.72656 478.91602 L 836.9375 473.24609 L 831.86328 474.43555 L 830.99023 481.19922 L 830.4082 487.90234 L 825.04492 489.2793 L 821.30469 483.68555 L 817.28125 478.17969 L 812.26172 479.58203 L 811.67383 486.375 L 811.37109 493.09766 L 806.07227 494.69727 L 802.09961 489.26562 L 797.84961 483.93359 L 792.89453 485.54297 L 792.58984 492.35547 L 792.57031 499.08398 L 787.3418 500.90625 L 783.14648 495.64453 L 778.67578 490.49414 L 773.79297 492.31055 L 773.77344 499.13086 L 774.03516 505.85352 L 768.88867 507.89258 L 764.47656 502.81055 L 759.79492 497.85352 L 754.99023 499.87305 L 755.25781 506.68555 L 755.80078 513.39258 L 750.74414 515.64453 L 746.12305 510.75391 L 741.23633 505.99609 L 736.52148 508.21484 L 737.07422 515.01172 L 737.89844 521.68945 L 732.93945 524.15039 L 728.11719 519.45703 L 723.03711 514.9082 L 718.41797 517.32227 L 719.25586 524.08984 L 720.35742 530.72852 L 715.50586 533.39648 L 710.49219 528.9082 L 705.22656 524.57422 L 700.71289 527.18164 L 701.83203 533.9082 L 703.21094 540.49414 L 698.47656 543.36133 L 693.2793 539.08789 L 687.83594 534.98047 L 683.43555 537.77148 L 684.83594 544.44531 L 686.49023 550.96875 L 681.87891 554.0332 L 676.50586 549.98047 L 670.89648 546.10352 L 666.61719 549.07812 L 668.29492 555.6875 L 670.2207 562.13477 L 665.74219 565.38867 L 660.20508 561.56445 L 654.4375 557.92578 L 650.28711 561.07617 L 652.24023 567.61133 L 654.43359 573.97266 L 650.0957 577.41016 L 644.4043 573.82227 L 638.48828 570.42773 L 634.47266 573.75 L 636.69922 580.19531 L 639.15625 586.46094 L 634.9668 590.07812 L 629.12891 586.73047 L 623.07617 583.58789 L 619.20312 587.07422 L 621.69727 593.42188 L 624.41602 599.57617 L 620.38086 603.36719 L 614.4082 600.26758 L 608.22852 597.37891 L 604.50586 601.02539 L 607.26367 607.26367 L 610.23633 613.29883 L 606.36328 617.25391 L 600.26758 614.4082 L 593.97266 611.78125 L 590.40625 615.58008 L 593.42188 621.69727 L 596.64453 627.60352 L 592.94141 631.71875 L 586.73047 629.12891 L 580.33203 626.76953 L 576.92773 630.71289 L 580.19531 636.69922 L 583.66406 642.46484 L 580.13672 646.73047 L 573.82227 644.4043 L 567.33008 642.31445 L 564.09375 646.39844 L 567.61133 652.24023 L 571.31836 657.85547 L 567.9707 662.26562 L 561.56445 660.20508 L 554.99219 658.38867 L 551.92773 662.60547 L 555.6875 668.29492 L 559.625 673.75195 L 556.4668 678.29688 L 549.98047 676.50781 L 543.33594 674.9668 L 540.45312 679.30859 L 544.44531 684.83594 L 548.60938 690.12109 L 545.64453 694.79688 L 539.08789 693.2793 L 532.38672 692.01953 L 529.68555 696.47656 L 533.9082 701.83203 L 538.28906 706.93945 L 535.52148 711.73438 L 528.9082 710.49219 L 522.1582 709.51367 L 519.64844 714.08203 L 524.08984 719.25586 L 528.68164 724.17383 L 526.11719 729.08008 L 519.45703 728.11719 L 512.67383 727.42188 L 510.35547 732.08984 L 515.01172 737.07422 L 519.80469 741.79688 L 517.44727 746.80664 L 510.75391 746.12305 L 503.94727 745.71289 L 501.82617 750.47266 L 506.68555 755.25781 L 511.67383 759.77539 L 509.52734 764.87891 L 502.81055 764.47656 L 495.99219 764.35156 L 494.07422 769.19727 L 499.13086 773.77344 L 504.30273 778.07812 L 502.37305 783.26758 L 495.64453 783.14648 L 488.82617 783.30664 L 487.11328 788.22852 L 492.35547 792.58984 L 497.70312 796.67383 L 495.99219 801.93945 L 489.26562 802.09961 L 482.46094 802.54688 L 480.95508 807.53516 L 486.375 811.67383 L 491.88867 815.5293 L 490.40039 820.86328 L 483.68555 821.30469 L 476.90625 822.03516 L 475.60938 827.08398 L 481.19922 830.99023 L 486.86914 834.61328 L 485.60547 840.00195 L 478.91602 840.72656 L 472.17188 841.74023 L 471.08789 846.83789 L 476.83594 850.50781 L 482.6543 853.88867 L 481.61719 859.32812 L 474.96289 860.33008 L 468.26758 861.62695 L 467.39844 866.76367 L 473.29492 870.18945 L 479.25 873.32617 L 478.44141 878.80273 L 471.83398 880.08203 L 465.19922 881.6582 L 464.54688 886.82812 L 470.58203 890.00391 L 476.66211 892.88672 L 476.08203 898.39258 L 469.53516 899.94922 L 462.97266 901.80078 L 462.53711 906.99219 L 468.69922 909.91406 L 474.89453 912.53906 L 474.54688 918.06445 L 468.07031 919.89258 L 461.5918 922.01758 L 461.37305 927.22461 L 467.65234 929.88477 L 473.95312 932.24805 L 473.83594 937.7832 L 467.44336 939.88281 L 461.05859 942.27539 L 461.05859 947.48828 L 467.44336 949.88086 L 473.83594 951.98047 L 473.95312 957.51562 L 467.65234 959.87891 L 461.37305 962.53906 L 461.5918 967.74609 L 468.07031 969.87109 L 474.54688 971.69922 L 474.89453 977.22461 L 468.69922 979.84961 L 462.53711 982.77148 L 462.97266 987.96289 L 469.53516 989.81445 L 476.08203 991.37109 L 476.66211 996.87695 L 470.58203 999.75977 L 464.54688 1002.9355 L 465.19922 1008.1055 L 471.83398 1009.6816 L 478.44141 1010.9609 L 479.25 1016.4395 L 473.29492 1019.5742 L 467.39844 1023 L 468.26758 1028.1387 L 474.96289 1029.4336 L 481.61719 1030.4355 L 482.6543 1035.875 L 476.83594 1039.2559 L 471.08789 1042.9258 L 472.17188 1048.0234 L 478.91602 1049.0371 L 485.60547 1049.7617 L 486.86914 1055.1504 L 481.19922 1058.7734 L 475.60938 1062.6797 L 476.90625 1067.7285 L 483.68555 1068.459 L 490.40039 1068.9023 L 491.88867 1074.2344 L 486.375 1078.0898 L 480.95508 1082.2285 L 482.46094 1087.2168 L 489.26562 1087.6641 L 495.99219 1087.8242 L 497.70312 1093.0898 L 492.35547 1097.1738 L 487.11328 1101.5352 L 488.82617 1106.457 L 495.64453 1106.6172 L 502.37305 1106.4961 L 504.30273 1111.6855 L 499.13086 1115.9902 L 494.07422 1120.5664 L 495.99219 1125.4121 L 502.81055 1125.2871 L 509.52734 1124.8848 L 511.67383 1129.9883 L 506.68555 1134.5059 L 501.82617 1139.291 L 503.94727 1144.0508 L 510.75391 1143.6406 L 517.44727 1142.957 L 519.80469 1147.9668 L 515.01172 1152.6895 L 510.35547 1157.6738 L 512.67383 1162.3418 L 519.45703 1161.6465 L 526.11719 1160.6836 L 528.68164 1165.5898 L 524.08984 1170.5078 L 519.64844 1175.6816 L 522.1582 1180.25 L 528.9082 1179.2715 L 535.52148 1178.0293 L 538.28906 1182.8242 L 533.9082 1187.9316 L 529.68555 1193.2871 L 532.38672 1197.7441 L 539.08789 1196.4844 L 545.64453 1194.9668 L 548.60938 1199.6426 L 544.44531 1204.9277 L 540.45312 1210.4551 L 543.33594 1214.7969 L 549.98047 1213.2578 L 556.4668 1211.4668 L 559.625 1216.0117 L 555.6875 1221.4688 L 551.92773 1227.1582 L 554.99219 1231.375 L 561.56445 1229.5586 L 567.9707 1227.498 L 571.31836 1231.9082 L 567.61133 1237.5234 L 564.09375 1243.3652 L 567.33008 1247.4492 L 573.82227 1245.3594 L 580.13672 1243.0332 L 583.66406 1247.2988 L 580.19531 1253.0645 L 576.92773 1259.0508 L 580.33203 1262.9941 L 586.73047 1260.6348 L 592.94141 1258.0469 L 596.64453 1262.1602 L 593.42188 1268.0664 L 590.40625 1274.1836 L 593.97266 1277.9824 L 600.26758 1275.3555 L 606.36328 1272.5098 L 610.23633 1276.4648 L 607.26367 1282.5 L 604.50586 1288.7383 L 608.22852 1292.3848 L 614.4082 1289.4961 L 620.38086 1286.3965 L 624.41602 1290.1875 L 621.69727 1296.3418 L 619.20312 1302.6895 L 623.07617 1306.1758 L 629.12891 1303.0332 L 634.9668 1299.6855 L 639.15625 1303.3047 L 636.69922 1309.5684 L 634.47266 1316.0137 L 638.48828 1319.3359 L 644.4043 1315.9414 L 650.0957 1312.3535 L 654.43359 1315.791 L 652.24023 1322.1523 L 650.28711 1328.6875 L 654.4375 1331.8379 L 660.20508 1328.1992 L 665.74219 1324.375 L 670.2207 1327.6289 L 668.29492 1334.0762 L 666.61719 1340.6875 L 670.89648 1343.6602 L 676.50586 1339.7832 L 681.87891 1335.7305 L 686.49023 1338.7949 L 684.83594 1345.3184 L 683.43555 1351.9922 L 687.83594 1354.7832 L 693.2793 1350.6758 L 698.47656 1346.4023 L 703.21094 1349.2695 L 701.83203 1355.8555 L 700.71289 1362.582 L 705.22656 1365.1895 L 710.49219 1360.8555 L 715.50586 1356.3672 L 720.35742 1359.0352 L 719.25586 1365.6738 L 718.41797 1372.4414 L 723.03711 1374.8555 L 728.11719 1370.3066 L 732.93945 1365.6133 L 737.89844 1368.0742 L 737.07422 1374.752 L 736.52148 1381.5488 L 741.23633 1383.7676 L 746.12305 1379.0098 L 750.74414 1374.1191 L 755.80078 1376.3711 L 755.25781 1383.0781 L 754.99023 1389.8926 L 759.79492 1391.9121 L 764.47656 1386.9531 L 768.88867 1381.8711 L 774.03516 1383.9102 L 773.77344 1390.6328 L 773.79297 1397.4531 L 778.67578 1399.2695 L 783.14648 1394.1191 L 787.3418 1388.8574 L 792.57031 1390.6797 L 792.58984 1397.4082 L 792.89453 1404.2207 L 797.84961 1405.832 L 802.09961 1400.498 L 806.07227 1395.0664 L 811.37109 1396.666 L 811.67383 1403.3887 L 812.26172 1410.1816 L 817.28125 1411.584 L 821.30469 1406.0781 L 825.04492 1400.4844 L 830.4082 1401.8613 L 830.99023 1408.5645 L 831.86328 1415.3281 L 836.9375 1416.5176 L 840.72656 1410.8477 L 844.22852 1405.1016 L 849.64453 1406.2539 L 850.50781 1412.9277 L 851.66211 1419.6484 L 856.78125 1420.625 L 860.33008 1414.8008 L 863.58984 1408.9141 L 869.04883 1409.8359 L 870.18945 1416.4688 L 871.625 1423.1348 L 876.78125 1423.8965 L 880.08203 1417.9297 L 883.0918 1411.9102 L 888.58398 1412.6055 L 890.00391 1419.1816 L 891.7168 1425.7832 L 896.90039 1426.3281 L 899.94922 1420.2285 L 902.70312 1414.0879 L 908.2207 1414.5527 L 909.91406 1421.0645 L 911.90234 1427.5879 L 917.10352 1427.9141 L 919.89258 1421.6934 L 922.38867 1415.4434 L 927.91992 1415.6758 L 929.88477 1422.1113 L 932.14453 1428.5449 L 937.35547 1428.6543 L 939.88281 1422.3203 L 942.11328 1415.9727 L 947.65039 1415.9727 L 949.88086 1422.3203 L 952.41016 1428.6543 L 957.61914 1428.5449 L 959.87891 1422.1113 L 961.84375 1415.6758 L 967.375 1415.4434 L 969.87109 1421.6934 L 972.66016 1427.9141 L 977.86133 1427.5879 L 979.84961 1421.0645 L 981.54297 1414.5527 L 987.06055 1414.0879 L 989.81445 1420.2285 L 992.86328 1426.3281 L 998.04688 1425.7832 L 999.75977 1419.1816 L 1001.1797 1412.6055 L 1006.6719 1411.9102 L 1009.6816 1417.9297 L 1012.9824 1423.8965 L 1018.1387 1423.1348 L 1019.5742 1416.4688 L 1020.7148 1409.8359 L 1026.1738 1408.9141 L 1029.4336 1414.8008 L 1032.9824 1420.625 L 1038.1016 1419.6484 L 1039.2559 1412.9277 L 1040.1191 1406.2539 L 1045.5352 1405.1016 L 1049.0371 1410.8477 L 1052.8262 1416.5176 L 1057.9004 1415.3281 L 1058.7734 1408.5645 L 1059.3555 1401.8613 L 1064.7188 1400.4844 L 1068.459 1406.0781 L 1072.4824 1411.584 L 1077.502 1410.1816 L 1078.0898 1403.3887 L 1078.3926 1396.666 L 1083.6914 1395.0664 L 1087.6641 1400.498 L 1091.9141 1405.832 L 1096.8691 1404.2207 L 1097.1738 1397.4082 L 1097.1934 1390.6797 L 1102.4219 1388.8574 L 1106.6172 1394.1191 L 1111.0879 1399.2695 L 1115.9707 1397.4531 L 1115.9902 1390.6328 L 1115.7285 1383.9102 L 1120.875 1381.8711 L 1125.2871 1386.9531 L 1129.9688 1391.9121 L 1134.7734 1389.8926 L 1134.5059 1383.0781 L 1133.9629 1376.3711 L 1139.0215 1374.1191 L 1143.6406 1379.0098 L 1148.5273 1383.7676 L 1153.2422 1381.5488 L 1152.6895 1374.752 L 1151.8652 1368.0742 L 1156.8242 1365.6133 L 1161.6465 1370.3066 L 1166.7266 1374.8555 L 1171.3457 1372.4414 L 1170.5078 1365.6738 L 1169.4062 1359.0352 L 1174.2578 1356.3672 L 1179.2715 1360.8555 L 1184.5371 1365.1895 L 1189.0508 1362.582 L 1187.9316 1355.8555 L 1186.5527 1349.2695 L 1191.2871 1346.4023 L 1196.4844 1350.6758 L 1201.9277 1354.7832 L 1206.3281 1351.9922 L 1204.9277 1345.3184 L 1203.2734 1338.7949 L 1207.8848 1335.7305 L 1213.2578 1339.7832 L 1218.8672 1343.6602 L 1223.1465 1340.6875 L 1221.4688 1334.0762 L 1219.543 1327.6289 L 1224.0215 1324.375 L 1229.5586 1328.1992 L 1235.3262 1331.8379 L 1239.4766 1328.6875 L 1237.5234 1322.1523 L 1235.3301 1315.791 L 1239.668 1312.3535 L 1245.3613 1315.9414 L 1251.2754 1319.3359 L 1255.291 1316.0137 L 1253.0645 1309.5684 L 1250.6074 1303.3047 L 1254.7969 1299.6855 L 1260.6348 1303.0332 L 1266.6875 1306.1758 L 1270.5605 1302.6895 L 1268.0664 1296.3418 L 1265.3477 1290.1875 L 1269.3828 1286.3965 L 1275.3555 1289.4961 L 1281.5352 1292.3848 L 1285.2578 1288.7383 L 1282.5 1282.5 L 1279.5273 1276.4648 L 1283.4004 1272.5098 L 1289.498 1275.3555 L 1295.791 1277.9824 L 1299.3574 1274.1836 L 1296.3418 1268.0664 L 1293.1191 1262.1602 L 1296.8223 1258.0469 L 1303.0332 1260.6348 L 1309.4316 1262.9941 L 1312.8379 1259.0508 L 1309.5684 1253.0645 L 1306.0996 1247.2988 L 1309.627 1243.0332 L 1315.9414 1245.3594 L 1322.4336 1247.4492 L 1325.6699 1243.3652 L 1322.1523 1237.5234 L 1318.4453 1231.9082 L 1321.793 1227.498 L 1328.1992 1229.5586 L 1334.7715 1231.375 L 1337.8359 1227.1582 L 1334.0762 1221.4688 L 1330.1387 1216.0117 L 1333.2969 1211.4668 L 1339.7832 1213.2578 L 1346.4277 1214.7969 L 1349.3105 1210.4551 L 1345.3184 1204.9277 L 1341.1543 1199.6426 L 1344.1191 1194.9668 L 1350.6758 1196.4844 L 1357.3789 1197.7441 L 1360.0781 1193.2871 L 1355.8555 1187.9316 L 1351.4746 1182.8242 L 1354.2422 1178.0293 L 1360.8555 1179.2715 L 1367.6055 1180.25 L 1370.1152 1175.6816 L 1365.6738 1170.5078 L 1361.082 1165.5898 L 1363.6465 1160.6836 L 1370.3066 1161.6465 L 1377.0898 1162.3418 L 1379.4082 1157.6738 L 1374.752 1152.6895 L 1369.959 1147.9668 L 1372.3164 1142.957 L 1379.0098 1143.6406 L 1385.8184 1144.0508 L 1387.9375 1139.291 L 1383.0781 1134.5059 L 1378.0898 1129.9883 L 1380.2363 1124.8848 L 1386.9531 1125.2871 L 1393.7715 1125.4121 L 1395.6895 1120.5664 L 1390.6348 1115.9902 L 1385.4609 1111.6855 L 1387.3906 1106.4961 L 1394.1191 1106.6172 L 1400.9375 1106.457 L 1402.6504 1101.5352 L 1397.4082 1097.1738 L 1392.0605 1093.0898 L 1393.7715 1087.8242 L 1400.498 1087.6641 L 1407.3027 1087.2168 L 1408.8086 1082.2285 L 1403.3887 1078.0898 L 1397.875 1074.2344 L 1399.3633 1068.9023 L 1406.0781 1068.459 L 1412.8574 1067.7285 L 1414.1543 1062.6797 L 1408.5645 1058.7734 L 1402.8945 1055.1504 L 1404.1582 1049.7617 L 1410.8477 1049.0371 L 1417.5918 1048.0234 L 1418.6758 1042.9258 L 1412.9277 1039.2559 L 1407.1094 1035.875 L 1408.1465 1030.4355 L 1414.8008 1029.4336 L 1421.4961 1028.1387 L 1422.3652 1023 L 1416.4688 1019.5742 L 1410.5137 1016.4395 L 1411.3223 1010.9609 L 1417.9297 1009.6816 L 1424.5645 1008.1055 L 1425.2168 1002.9355 L 1419.1816 999.75977 L 1413.1016 996.87695 L 1413.6816 991.37109 L 1420.2285 989.81445 L 1426.791 987.96289 L 1427.2266 982.77148 L 1421.0645 979.84961 L 1414.8691 977.22461 L 1415.2168 971.69922 L 1421.6934 969.87109 L 1428.1719 967.74609 L 1428.3906 962.53906 L 1422.1113 959.87891 L 1415.8105 957.51562 L 1415.9277 951.98047 L 1422.3203 949.88086 L 1428.7051 947.48828 L 1428.7051 942.27539 L 1422.3203 939.88281 L 1415.9277 937.7832 L 1415.8105 932.24805 L 1422.1113 929.88477 L 1428.3906 927.22461 L 1428.1719 922.01758 L 1421.6934 919.89258 L 1415.2168 918.06445 L 1414.8691 912.53906 L 1421.0645 909.91406 L 1427.2266 906.99219 L 1426.791 901.80078 L 1420.2285 899.94922 L 1413.6816 898.39258 L 1413.1016 892.88672 L 1419.1816 890.00391 L 1425.2168 886.82812 L 1424.5645 881.6582 L 1417.9297 880.08203 L 1411.3223 878.80273 L 1410.5137 873.32617 L 1416.4688 870.18945 L 1422.3652 866.76367 L 1421.4961 861.62695 L 1414.8008 860.33008 L 1408.1465 859.32812 L 1407.1094 853.88867 L 1412.9277 850.50781 L 1418.6758 846.83789 L 1417.5918 841.74023 L 1410.8477 840.72656 L 1404.1582 840.00195 L 1402.8945 834.61328 L 1408.5645 830.99023 L 1414.1543 827.08398 L 1412.8574 822.03516 L 1406.0781 821.30469 L 1399.3633 820.86328 L 1397.875 815.5293 L 1403.3887 811.67383 L 1408.8086 807.53516 L 1407.3027 802.54688 L 1400.498 802.09961 L 1393.7715 801.93945 L 1392.0605 796.67383 L 1397.4082 792.58984 L 1402.6504 788.22852 L 1400.9375 783.30664 L 1394.1191 783.14648 L 1387.3906 783.26758 L 1385.4609 778.07812 L 1390.6348 773.77344 L 1395.6895 769.19727 L 1393.7715 764.35156 L 1386.9531 764.47656 L 1380.2363 764.87891 L 1378.0898 759.77539 L 1383.0781 755.25781 L 1387.9375 750.47266 L 1385.8184 745.71289 L 1379.0098 746.12305 L 1372.3164 746.80664 L 1369.959 741.79688 L 1374.752 737.07422 L 1379.4082 732.08984 L 1377.0898 727.42188 L 1370.3066 728.11719 L 1363.6465 729.08008 L 1361.082 724.17383 L 1365.6738 719.25586 L 1370.1152 714.08203 L 1367.6055 709.51367 L 1360.8555 710.49219 L 1354.2422 711.73438 L 1351.4746 706.93945 L 1355.8555 701.83203 L 1360.0781 696.47656 L 1357.3789 692.01953 L 1350.6758 693.2793 L 1344.1191 694.79688 L 1341.1543 690.12109 L 1345.3184 684.83594 L 1349.3105 679.30859 L 1346.4277 674.9668 L 1339.7832 676.50781 L 1333.2969 678.29688 L 1330.1387 673.75195 L 1334.0762 668.29492 L 1337.8359 662.60547 L 1334.7715 658.38867 L 1328.1992 660.20508 L 1321.793 662.26562 L 1318.4453 657.85547 L 1322.1523 652.24023 L 1325.6699 646.39844 L 1322.4336 642.31445 L 1315.9414 644.4043 L 1309.627 646.73047 L 1306.0996 642.46484 L 1309.5684 636.69922 L 1312.8379 630.71289 L 1309.4316 626.76953 L 1303.0332 629.12891 L 1296.8223 631.71875 L 1293.1191 627.60352 L 1296.3418 621.69727 L 1299.3574 615.58008 L 1295.791 611.78125 L 1289.498 614.4082 L 1283.4004 617.25391 L 1279.5273 613.29883 L 1282.5 607.26367 L 1285.2578 601.02539 L 1281.5352 597.37891 L 1275.3555 600.26758 L 1269.3828 603.36719 L 1265.3477 599.57617 L 1268.0664 593.42188 L 1270.5605 587.07422 L 1266.6875 583.58789 L 1260.6348 586.73047 L 1254.7969 590.07812 L 1250.6074 586.46094 L 1253.0645 580.19531 L 1255.291 573.75 L 1251.2754 570.42773 L 1245.3613 573.82227 L 1239.668 577.41016 L 1235.3301 573.97266 L 1237.5234 567.61133 L 1239.4766 561.07617 L 1235.3262 557.92578 L 1229.5586 561.56445 L 1224.0215 565.38867 L 1219.543 562.13477 L 1221.4688 555.6875 L 1223.1465 549.07812 L 1218.8672 546.10352 L 1213.2578 549.98047 L 1207.8848 554.0332 L 1203.2734 550.96875 L 1204.9277 544.44531 L 1206.3281 537.77148 L 1201.9277 534.98047 L 1196.4844 539.08789 L 1191.2871 543.36133 L 1186.5527 540.49414 L 1187.9316 533.9082 L 1189.0508 527.18164 L 1184.5371 524.57422 L 1179.2715 528.9082 L 1174.2578 533.39648 L 1169.4062 530.72852 L 1170.5078 524.08984 L 1171.3457 517.32227 L 1166.7266 514.9082 L 1161.6465 519.45703 L 1156.8242 524.15039 L 1151.8652 521.68945 L 1152.6895 515.01172 L 1153.2422 508.21484 L 1148.5273 505.99609 L 1143.6406 510.75391 L 1139.0215 515.64453 L 1133.9629 513.39258 L 1134.5059 506.68555 L 1134.7734 499.87305 L 1129.9688 497.85352 L 1125.2871 502.81055 L 1120.875 507.89258 L 1115.7285 505.85352 L 1115.9902 499.13086 L 1115.9707 492.31055 L 1111.0879 490.49414 L 1106.6172 495.64453 L 1102.4219 500.90625 L 1097.1934 499.08398 L 1097.1738 492.35547 L 1096.8691 485.54297 L 1091.9141 483.93359 L 1087.6641 489.26562 L 1083.6914 494.69727 L 1078.3926 493.09766 L 1078.0898 486.375 L 1077.502 479.58203 L 1072.4824 478.17969 L 1068.459 483.68555 L 1064.7188 489.2793 L 1059.3555 487.90234 L 1058.7734 481.19922 L 1057.9004 474.43555 L 1052.8262 473.24609 L 1049.0371 478.91602 L 1045.5352 484.66211 L 1040.1191 483.50977 L 1039.2559 476.83594 L 1038.1016 470.11523 L 1032.9824 469.13867 L 1029.4336 474.96289 L 1026.1738 480.84961 L 1020.7148 479.92773 L 1019.5742 473.29492 L 1018.1387 466.62891 L 1012.9824 465.86719 L 1009.6816 471.83398 L 1006.6719 477.85352 L 1001.1797 477.1582 L 999.75977 470.58203 L 998.04688 463.98047 L 992.86328 463.43555 L 989.81445 469.53516 L 987.06055 475.67578 L 981.54297 475.21289 L 979.84961 468.69922 L 977.86133 462.17578 L 972.66016 461.84961 L 969.87109 468.07227 L 967.375 474.32031 L 961.84375 474.08789 L 959.87891 467.65234 L 957.61914 461.21875 L 952.41016 461.10938 L 949.88086 467.44336 L 947.65039 473.79102 L 942.11328 473.79102 L 939.88281 467.44336 L 937.35547 461.10938 z M 944.88281 500.78711 A 444.09449 444.09449 0 0 1 1388.9766 944.88281 A 444.09449 444.09449 0 0 1 944.88281 1388.9766 A 444.09449 444.09449 0 0 1 500.78711 944.88281 A 444.09449 444.09449 0 0 1 944.88281 500.78711 z "
         transform="matrix(0.26458333,0,0,0.26458333,-250,-250)"
         id="path5134" />
    </g>
    <g
       id="secondary_gear"
       inkscape:label="Secondary Gear"
       transform="rotate(0.735)"
       style="fill:#e3dedb">
      <path
         id="path5150"
         style="fill:#e3dedb;stroke:#000000;stroke-width:0.26458332"
         d="m 23.52813,-1.58499 0.16031,-0.0108 1.54278,0.27348 1.71186,0.70133 v 1.24196 l -1.71186,0.70133 -1.54278,0.27348 -0.16031,-0.0108 -0.18461,1.75643 0.15905,0.02276 1.45221,0.58827 1.52864,1.04192 -0.25822,1.21482 -1.82027,0.33009 -1.56592,-0.05326 -0.15456,-0.04389 -0.54576,1.67966 0.15084,0.05534 1.29817,0.87734 1.27861,1.33698 -0.50516,1.13458 -1.84912,-0.05558 -1.52063,-0.37766 -0.14206,-0.07507 -0.88305,1.52948 0.13604,0.08549 1.08739,1.12808 0.97269,1.57359 -0.73,1.00477 -1.79716,-0.43882 -1.40888,-0.68557 -0.12335,-0.10297 -1.18175,1.31247 0.1153,0.11191 0.82908,1.3295 0.62427,1.74145 -0.92296,0.83103 -1.66665,-0.80288 -1.23555,-0.96351 -0.09925,-0.12636 -1.4288,1.03808 0.08951,0.13343 0.53455,1.47283 0.24855,1.83318 -1.07556,0.62098 -1.46331,-1.13185 -1.00823,-1.19934 -0.0708,-0.14423 -1.61341,0.71833 0.05981,0.14913 0.21665,1.55178 -0.13801,1.8448 -1.18118,0.38379 -1.196,-1.41136 -0.73684,-1.38276 -0.03927,-0.1558 -1.7275,0.36719 0.0275,0.15831 L 3.95245,24.95478 3.4339,26.73057 2.19874,26.86039 1.32231,25.23122 0.88907,23.72548 0.88305,23.56492 h -1.7661 l -0.00602,0.16056 -0.43324,1.50574 -0.87643,1.62917 -1.23516,-0.12982 -0.51855,-1.77579 -0.11072,-1.56291 0.0275,-0.15831 -1.7275,-0.36719 -0.03927,0.1558 -0.73684,1.38276 -1.196,1.41136 -1.18118,-0.38379 -0.13801,-1.8448 0.21665,-1.55178 0.05981,-0.14913 -1.61341,-0.71833 -0.0708,0.14423 -1.00823,1.19934 -1.46331,1.13185 -1.07556,-0.62098 0.24855,-1.83318 0.53455,-1.47283 0.08951,-0.13343 -1.4288,-1.03808 -0.09925,0.12636 -1.23555,0.96351 -1.66665,0.80288 -0.92296,-0.83103 0.62427,-1.74145 0.82908,-1.3295 0.1153,-0.11191 -1.18175,-1.31247 -0.12335,0.10297 -1.40888,0.68557 -1.79716,0.43882 -0.73,-1.00477 0.97269,-1.57359 1.08739,-1.12808 0.13604,-0.08549 -0.88305,-1.52948 -0.14206,0.07507 -1.52063,0.37766 -1.84912,0.05558 -0.50516,-1.13458 1.27861,-1.33698 1.29817,-0.87734 0.15084,-0.05534 -0.54576,-1.67966 -0.15456,0.04389 -1.56592,0.05326 -1.82027,-0.33009 -0.25822,-1.21482 1.52864,-1.04192 1.45221,-0.58827 0.15905,-0.02276 -0.18461,-1.75643 -0.16031,0.0108 -1.54278,-0.27348 -1.71186,-0.70133 v -1.24196 l 1.71186,-0.70133 1.54278,-0.27348 0.16031,0.0108 0.18461,-1.75643 -0.15905,-0.02276 -1.45221,-0.58827 -1.52864,-1.04192 0.25822,-1.21482 1.82027,-0.33009 1.56592,0.05326 0.15456,0.04389 0.54576,-1.67966 -0.15084,-0.05534 -1.29817,-0.87734 -1.27861,-1.33698 0.50516,-1.13458 1.84912,0.05558 1.52063,0.37766 0.14206,0.07507 0.88305,-1.52948 -0.13604,-0.08549 -1.08739,-1.12808 -0.97269,-1.57359 0.73,-1.00477 1.79716,0.43882 1.40888,0.68557 0.12335,0.10297 1.18175,-1.31247 -0.1153,-0.11191 -0.82908,-1.3295 -0.62427,-1.74145 0.92296,-0.83103 1.66665,0.80288 1.23555,0.96351 0.09925,0.12636 1.4288,-1.03808 -0.08951,-0.13343 -0.53455,-1.47283 -0.24855,-1.83318 1.07556,-0.62098 1.46331,1.13185 1.00823,1.19934 0.0708,0.14423 1.61341,-0.71833 -0.05981,-0.14913 -0.21665,-1.55178 0.13801,-1.8448 1.18118,-0.38379 1.196,1.41136 0.73684,1.38276 0.03927,0.1558 1.7275,-0.36719 -0.0275,-0.15831 0.11072,-1.56291 0.51855,-1.77579 1.23516,-0.12982 0.87643,1.62917 0.43324,1.50574 0.00602,0.16056 h 1.7661 l 0.00602,-0.16056 0.43324,-1.50574 0.87643,-1.62917 1.23516,0.12982 0.51855,1.77579 0.11072,1.56291 -0.0275,0.15831 1.7275,0.36719 0.03927,-0.1558 0.73684,-1.38276 1.196,-1.41136 1.18118,0.38379 0.13801,1.8448 -0.21665,1.55178 -0.05981,0.14913 1.61341,0.71833 0.0708,-0.14423 1.00823,-1.19934 1.46331,-1.13185 1.07556,0.62098 -0.24855,1.83318 -0.53455,1.47283 -0.08951,0.13343 1.4288,1.03808 0.09925,-0.12636 1.23555,-0.96351 1.66665,-0.80288 0.92296,0.83103 -0.62427,1.74145 -0.82908,1.3295 -0.1153,0.11191 1.18175,1.31247 0.12335,-0.10297 1.40888,-0.68557 1.79716,-0.43882 0.73,1.00477 -0.97269,1.57359 -1.08739,1.12808 -0.13604,0.08549 0.88305,1.52948 0.14206,-0.07507 1.52063,-0.37766 1.84912,-0.05558 0.50516,1.13458 -1.27861,1.33698 -1.29817,0.87734 -0.15084,0.05534 0.54576,1.67966 0.15456,-0.04389 1.56592,-0.05326 1.82027,0.33009 0.25822,1.21482 -1.52864,1.04192 -1.45221,0.58827 -0.15905,0.02276 z"
         inkscape:connector-curvature="0" />
    </g>
  </g>
</svg>
