<?xml version="1.0" encoding="UTF-8" standalone="no"?>
<!-- Created with Inkscape (http://www.inkscape.org/) -->

<svg
   xmlns:dc="http://purl.org/dc/elements/1.1/"
   xmlns:cc="http://creativecommons.org/ns#"
   xmlns:rdf="http://www.w3.org/1999/02/22-rdf-syntax-ns#"
   xmlns:svg="http://www.w3.org/2000/svg"
   xmlns="http://www.w3.org/2000/svg"
   xmlns:sodipodi="http://sodipodi.sourceforge.net/DTD/sodipodi-0.dtd"
   xmlns:inkscape="http://www.inkscape.org/namespaces/inkscape"
   sodipodi:docname="poc.svg"
   inkscape:version="0.92.1 r15371"
   onload="start(evt)"
   id="watch"
   viewBox="0 0 500 500"
   version="1.1"
   height="500"
   width="500">
  <sodipodi:namedview
     pagecolor="#ffffff"
     bordercolor="#666666"
     borderopacity="1"
     objecttolerance="10"
     gridtolerance="10"
     guidetolerance="10"
     inkscape:pageopacity="0"
     inkscape:pageshadow="2"
     inkscape:window-width="1855"
     inkscape:window-height="1056"
     id="namedview27"
     showgrid="false"
     inkscape:zoom="5.3400704"
     inkscape:cx="290.16367"
     inkscape:cy="281.17107"
     inkscape:window-x="65"
     inkscape:window-y="24"
     inkscape:window-maximized="1"
     inkscape:current-layer="watch" />
  <script
     type="text/ecmascript"
     id="animation">

    var TPI = 2 * Math.PI;
    var n = 6;
    var R = 126;
    var r = 25.5;
    var cX = 250;
    var cY = 250;
    var T = 150;
    var t = T / n;

    var primaryGear;
    var secondaryGear;
    var transmitter;
    var hourHand;

    function start(evt) {
      primaryGear = evt.target.ownerDocument.getElementById(&quot;primary_gear&quot;);
      secondaryGear = evt.target.ownerDocument.getElementById(&quot;secondary_gear&quot;);
      transmitter = evt.target.ownerDocument.getElementById(&quot;transmitter&quot;);
      hourHand = evt.target.ownerDocument.getElementById(&quot;hour_hand&quot;);
      animate();

      // Refresh every second.
      setInterval(animate, 100);
    }

    function animate() {

      // Get computer clock time
      var date = new Date();

      var s = date.getSeconds() + date.getMilliseconds() / 1000;
      var thetaDegree = s / 60 * 360;
      var thetaRadian = (thetaDegree / 360) * TPI;
      var x = cX + (R + r) * Math.cos(thetaRadian - Math.PI / 2);
      var y = cY + (R + r) * Math.sin(thetaRadian - Math.PI / 2);

      // rotation of the second wheel + space between teeths
      var secondaryTheta = thetaDegree * n + (2 * 360 / t) + 1;
      secondaryGear.setAttribute(&quot;transform&quot;, &quot;translate(&quot; + x + &quot;,&quot; + y + &quot;) rotate( &quot; + secondaryTheta + &quot;)&quot;);

      var hourTheta = thetaDegree * n;
      hourHand.setAttribute(&quot;transform&quot;, &quot;translate(&quot; + x + &quot;,&quot; + y + &quot;) rotate( &quot; + hourTheta + &quot;)&quot;);

      transmitter.setAttribute(&quot;transform&quot;, &quot;rotate(&quot; + (thetaDegree + 1) + &quot;, &quot; + cX + &quot;,&quot; + cY + &quot;)&quot;);
    }

    window.animate = animate
  </script>
  <defs
     id="defs5123" />
  <metadata
     id="metadata5126">
    <rdf:RDF>
      <cc:Work
         rdf:about="">
        <dc:format>image/svg+xml</dc:format>
        <dc:type
           rdf:resource="http://purl.org/dc/dcmitype/StillImage" />
        <dc:title />
      </cc:Work>
    </rdf:RDF>
  </metadata>
  <g
     inkscape:label="Layer 1"
     inkscape:groupmode="layer"
     id="layer1">
    <g
       id="secondary_gear"
       inkscape:label="Secondary Gear"
       transform="rotate(0.735,-7548.9195,19341.042)"
       style="fill:#e3dedb">
      <path
         id="path5150"
         style="fill:#e3dedb;stroke:#000000;stroke-width:0.26458332"
         d="m 23.52813,-1.58499 0.16031,-0.0108 1.54278,0.27348 1.71186,0.70133 v 1.24196 l -1.71186,0.70133 -1.54278,0.27348 -0.16031,-0.0108 -0.18461,1.75643 0.15905,0.02276 1.45221,0.58827 1.52864,1.04192 -0.25822,1.21482 -1.82027,0.33009 -1.56592,-0.05326 -0.15456,-0.04389 -0.54576,1.67966 0.15084,0.05534 1.29817,0.87734 1.27861,1.33698 -0.50516,1.13458 -1.84912,-0.05558 -1.52063,-0.37766 -0.14206,-0.07507 -0.88305,1.52948 0.13604,0.08549 1.08739,1.12808 0.97269,1.57359 -0.73,1.00477 -1.79716,-0.43882 -1.40888,-0.68557 -0.12335,-0.10297 -1.18175,1.31247 0.1153,0.11191 0.82908,1.3295 0.62427,1.74145 -0.92296,0.83103 -1.66665,-0.80288 -1.23555,-0.96351 -0.09925,-0.12636 -1.4288,1.03808 0.08951,0.13343 0.53455,1.47283 0.24855,1.83318 -1.07556,0.62098 -1.46331,-1.13185 -1.00823,-1.19934 -0.0708,-0.14423 -1.61341,0.71833 0.05981,0.14913 0.21665,1.55178 -0.13801,1.8448 -1.18118,0.38379 -1.196,-1.41136 -0.73684,-1.38276 -0.03927,-0.1558 -1.7275,0.36719 0.0275,0.15831 L 3.95245,24.95478 3.4339,26.73057 2.19874,26.86039 1.32231,25.23122 0.88907,23.72548 0.88305,23.56492 h -1.7661 l -0.00602,0.16056 -0.43324,1.50574 -0.87643,1.62917 -1.23516,-0.12982 -0.51855,-1.77579 -0.11072,-1.56291 0.0275,-0.15831 -1.7275,-0.36719 -0.03927,0.1558 -0.73684,1.38276 -1.196,1.41136 -1.18118,-0.38379 -0.13801,-1.8448 0.21665,-1.55178 0.05981,-0.14913 -1.61341,-0.71833 -0.0708,0.14423 -1.00823,1.19934 -1.46331,1.13185 -1.07556,-0.62098 0.24855,-1.83318 0.53455,-1.47283 0.08951,-0.13343 -1.4288,-1.03808 -0.09925,0.12636 -1.23555,0.96351 -1.66665,0.80288 -0.92296,-0.83103 0.62427,-1.74145 0.82908,-1.3295 0.1153,-0.11191 -1.18175,-1.31247 -0.12335,0.10297 -1.40888,0.68557 -1.79716,0.43882 -0.73,-1.00477 0.97269,-1.57359 1.08739,-1.12808 0.13604,-0.08549 -0.88305,-1.52948 -0.14206,0.07507 -1.52063,0.37766 -1.84912,0.05558 -0.50516,-1.13458 1.27861,-1.33698 1.29817,-0.87734 0.15084,-0.05534 -0.54576,-1.67966 -0.15456,0.04389 -1.56592,0.05326 -1.82027,-0.33009 -0.25822,-1.21482 1.52864,-1.04192 1.45221,-0.58827 0.15905,-0.02276 -0.18461,-1.75643 -0.16031,0.0108 -1.54278,-0.27348 -1.71186,-0.70133 v -1.24196 l 1.71186,-0.70133 1.54278,-0.27348 0.16031,0.0108 0.18461,-1.75643 -0.15905,-0.02276 -1.45221,-0.58827 -1.52864,-1.04192 0.25822,-1.21482 1.82027,-0.33009 1.56592,0.05326 0.15456,0.04389 0.54576,-1.67966 -0.15084,-0.05534 -1.29817,-0.87734 -1.27861,-1.33698 0.50516,-1.13458 1.84912,0.05558 1.52063,0.37766 0.14206,0.07507 0.88305,-1.52948 -0.13604,-0.08549 -1.08739,-1.12808 -0.97269,-1.57359 0.73,-1.00477 1.79716,0.43882 1.40888,0.68557 0.12335,0.10297 1.18175,-1.31247 -0.1153,-0.11191 -0.82908,-1.3295 -0.62427,-1.74145 0.92296,-0.83103 1.66665,0.80288 1.23555,0.96351 0.09925,0.12636 1.4288,-1.03808 -0.08951,-0.13343 -0.53455,-1.47283 -0.24855,-1.83318 1.07556,-0.62098 1.46331,1.13185 1.00823,1.19934 0.0708,0.14423 1.61341,-0.71833 -0.05981,-0.14913 -0.21665,-1.55178 0.13801,-1.8448 1.18118,-0.38379 1.196,1.41136 0.73684,1.38276 0.03927,0.1558 1.7275,-0.36719 -0.0275,-0.15831 0.11072,-1.56291 0.51855,-1.77579 1.23516,-0.12982 0.87643,1.62917 0.43324,1.50574 0.00602,0.16056 h 1.7661 l 0.00602,-0.16056 0.43324,-1.50574 0.87643,-1.62917 1.23516,0.12982 0.51855,1.77579 0.11072,1.56291 -0.0275,0.15831 1.7275,0.36719 0.03927,-0.1558 0.73684,-1.38276 1.196,-1.41136 1.18118,0.38379 0.13801,1.8448 -0.21665,1.55178 -0.05981,0.14913 1.61341,0.71833 0.0708,-0.14423 1.00823,-1.19934 1.46331,-1.13185 1.07556,0.62098 -0.24855,1.83318 -0.53455,1.47283 -0.08951,0.13343 1.4288,1.03808 0.09925,-0.12636 1.23555,-0.96351 1.66665,-0.80288 0.92296,0.83103 -0.62427,1.74145 -0.82908,1.3295 -0.1153,0.11191 1.18175,1.31247 0.12335,-0.10297 1.40888,-0.68557 1.79716,-0.43882 0.73,1.00477 -0.97269,1.57359 -1.08739,1.12808 -0.13604,0.08549 0.88305,1.52948 0.14206,-0.07507 1.52063,-0.37766 1.84912,-0.05558 0.50516,1.13458 -1.27861,1.33698 -1.29817,0.87734 -0.15084,0.05534 0.54576,1.67966 0.15456,-0.04389 1.56592,-0.05326 1.82027,0.33009 0.25822,1.21482 -1.52864,1.04192 -1.45221,0.58827 -0.15905,0.02276 z"
         inkscape:connector-curvature="0" />
    </g>
    <g
       id="g5402">
      <path
         inkscape:connector-curvature="0"
         style="fill:#000000;fill-opacity:1;stroke:#000000;stroke-width:0.26458332"
         d="m 248.00863,122.00186 -1.37873,0.0289 -0.59789,1.70222 -0.51987,1.70274 -1.46347,0.0615 -0.66043,-1.65313 -0.73794,-1.64641 -1.37614,0.0863 -0.52607,1.72599 -0.44803,1.72341 -1.45986,0.12247 -0.72864,-1.6247 -0.80667,-1.61386 -1.37149,0.14418 -0.4532,1.74666 -0.37569,1.73995 -1.45314,0.18397 -0.79634,-1.59267 -0.87333,-1.57872 -1.36425,0.20154 -0.37983,1.76372 -0.30179,1.75493 -1.44435,0.24391 -0.86248,-1.55753 -0.93896,-1.54099 -1.35444,0.25838 -0.30541,1.77819 -0.22841,1.76579 -1.43299,0.30488 -0.92656,-1.52031 -1.00252,-1.50017 -1.34255,0.31471 -0.231,1.78955 -0.15399,1.77354 -1.41904,0.36432 -0.9896,-1.48002 -1.06454,-1.45676 -1.32808,0.37104 -0.15555,1.79731 -0.0801,1.7787 -1.40197,0.42323 -1.0511,-1.43712 -1.12448,-1.41077 -1.31103,0.42582 -0.0806,1.80247 -0.005,1.78025 -1.38338,0.48214 -1.11001,-1.39216 -1.18287,-1.36271 -1.29191,0.48059 -0.005,1.80455 0.0693,1.7787 -1.36168,0.5395 -1.16737,-1.34462 -1.23868,-1.31155 -1.27124,0.53434 0.0708,1.80247 0.14366,1.77457 -1.3379,0.59583 -1.22266,-1.29398 -1.29295,-1.25884 -1.24747,0.58704 0.14625,1.79835 0.21807,1.76681 -1.31206,0.65113 -1.27589,-1.24179 -1.34411,-1.20354 -1.22215,0.63872 0.2217,1.79059 0.29145,1.75648 -1.28364,0.7059 -1.32653,-1.18753 -1.3932,-1.1467 -1.19424,0.68988 0.2961,1.77974 0.36484,1.74253 -1.25264,0.75861 -1.37511,-1.13068 -1.44022,-1.08676 -1.16427,0.73846 0.37052,1.76578 0.4377,1.726 -1.22008,0.8108 -1.42162,-1.07229 -1.48415,-1.02577 -1.13223,0.78703 0.4439,1.74873 0.50953,1.70584 -1.18494,0.86093 -1.46503,-1.01183 -1.526,-0.96273 -1.09813,0.83354 0.51677,1.7291 0.58032,1.6831 -1.14773,0.9095 -1.50585,-0.94929 -1.56528,-0.89814 -1.06246,0.87902 0.58911,1.70532 0.65008,1.65778 -1.10845,0.95704 -1.54461,-0.88573 -1.60146,-0.83147 -1.02474,0.92242 0.65991,1.67949 0.71934,1.62832 -1.06764,1.00304 -1.58027,-0.8201 -1.63504,-0.7643 -0.98495,0.9648 0.72967,1.65054 0.78652,1.59681 -1.02475,1.04644 -1.61282,-0.75292 -1.66553,-0.69505 -0.94361,1.00511 0.79788,1.6185 0.85266,1.5627 -0.97978,1.08882 -1.64331,-0.68523 -1.69292,-0.62425 -0.90072,1.04335 0.86454,1.58388 0.91778,1.52549 -0.93328,1.12861 -1.6707,-0.61546 -1.71772,-0.55294 -0.85628,1.08055 0.93069,1.54564 0.98082,1.4857 -0.88573,1.16685 -1.69499,-0.54518 -1.73891,-0.48059 -0.81081,1.11569 0.99478,1.50534 1.04179,1.44383 -0.83561,1.20252 -1.71617,-0.47336 -1.75803,-0.40773 -0.76275,1.14877 1.05627,1.46244 1.10174,1.39837 -0.78445,1.23713 -1.73478,-0.40152 -1.77301,-0.33332 -0.71469,1.17926 1.11725,1.41697 1.1591,1.35133 -0.73226,1.26866 -1.74976,-0.32866 -1.78594,-0.2589 -0.66404,1.20871 1.17512,1.36891 1.21491,1.30121 -0.67851,1.29812 -1.76216,-0.25477 -1.79472,-0.18397 -0.6134,1.23507 1.23196,1.31878 1.26814,1.24954 -0.62373,1.3255 -1.77095,-0.18087 -1.80093,-0.10852 -0.5612,1.25936 1.28571,1.26607 1.31981,1.19527 -0.56792,1.35031 -1.77715,-0.10646 -1.80403,-0.0331 -0.50746,1.2821 1.3379,1.21077 1.36839,1.13895 -0.51056,1.37304 -1.78025,-0.032 -1.80403,0.0424 -0.4532,1.30225 1.387,1.15393 1.41489,1.08055 -0.45268,1.3932 -1.77974,0.0424 -1.8004,0.11834 -0.39843,1.31981 1.43402,1.09502 1.45883,1.0201 -0.39378,1.41128 -1.77663,0.11679 -1.79369,0.19327 -0.34313,1.33583 1.47898,1.03353 1.50016,0.9586 -0.33434,1.42575 -1.76992,0.19172 -1.78439,0.2682 -0.2868,1.34876 1.52084,0.971 1.53944,0.89452 -0.2744,1.43919 -1.76062,0.2651 -1.77147,0.34313 -0.22996,1.35909 1.56011,0.9064 1.57562,0.82993 -0.21394,1.449 -1.74822,0.33848 -1.75545,0.41703 -0.17259,1.36788 1.5968,0.84026 1.60868,0.76274 -0.15348,1.45676 -1.73219,0.41186 -1.73633,0.48989 -0.11524,1.37356 1.6304,0.77308 1.63917,0.69453 -0.092,1.46193 -1.71359,0.48369 -1.71411,0.56224 -0.0579,1.37769 1.6614,0.70384 1.66708,0.62528 -0.031,1.46451 -1.69137,0.55552 -1.68931,0.63304 v 1.37924 l 1.68931,0.63304 1.69137,0.55552 0.031,1.46451 -1.66708,0.62529 -1.6614,0.70383 0.0579,1.37769 1.71411,0.56224 1.71359,0.4837 0.092,1.46192 -1.63917,0.69453 -1.6304,0.77308 0.11524,1.37356 1.73633,0.48989 1.73219,0.41186 0.15348,1.45676 -1.60868,0.76275 -1.5968,0.84024 0.17259,1.3679 1.75545,0.41701 1.74822,0.33848 0.21394,1.44955 -1.57562,0.82939 -1.56011,0.90641 0.22996,1.35961 1.77147,0.34261 1.76062,0.26509 0.2744,1.4392 -1.53944,0.89453 -1.52084,0.97099 0.2868,1.34874 1.78439,0.26821 1.76992,0.19172 0.33434,1.42576 -1.50016,0.95858 -1.47898,1.03354 0.34313,1.33583 1.79369,0.19328 1.77663,0.11729 0.39378,1.41078 -1.45883,1.02008 -1.43402,1.09503 0.39843,1.31982 1.8004,0.11835 1.77974,0.0424 0.45268,1.39319 -1.41489,1.08056 -1.387,1.15395 0.4532,1.30223 1.80403,0.0424 1.78025,-0.032 0.51056,1.37303 -1.36839,1.13895 -1.3379,1.21079 0.50746,1.28209 1.80403,-0.0331 1.77715,-0.10644 0.56792,1.3503 -1.31981,1.19528 -1.28571,1.26606 0.5612,1.25936 1.80093,-0.10853 1.77095,-0.18087 0.62373,1.32551 -1.26814,1.24955 -1.23196,1.31876 0.6134,1.23507 1.79472,-0.18396 1.76216,-0.25477 0.67851,1.2981 -1.21491,1.30122 -1.17512,1.3689 0.66404,1.20873 1.78594,-0.2589 1.74976,-0.32866 0.73226,1.26865 -1.1591,1.35133 -1.11725,1.41697 0.71469,1.17925 1.77301,-0.33329 1.73478,-0.40153 0.78445,1.23713 -1.10174,1.39835 -1.05627,1.46246 0.76275,1.14877 1.75803,-0.40722 1.71617,-0.47387 0.83561,1.2025 -1.04179,1.44386 -0.99478,1.50532 0.81081,1.1157 1.73891,-0.48059 1.69499,-0.5452 0.88573,1.16686 -0.98082,1.48569 -0.93069,1.54565 0.85628,1.08055 1.71772,-0.55292 1.6707,-0.61548 0.93328,1.12861 -0.91778,1.52551 -0.86454,1.58387 0.90072,1.04333 1.69292,-0.62423 1.64331,-0.68471 0.97978,1.08831 -0.85266,1.56268 -0.79788,1.61851 0.94361,1.0051 1.66553,-0.69503 1.61282,-0.75293 1.02475,1.04643 -0.78652,1.59681 -0.72967,1.65055 0.98495,0.9648 1.63504,-0.7643 1.58027,-0.8201 1.06764,1.00304 -0.71934,1.62832 -0.65991,1.6795 1.02474,0.92241 1.60146,-0.83148 1.54461,-0.88574 1.10845,0.95758 -0.65008,1.65727 -0.58911,1.70532 1.06246,0.879 1.56528,-0.89813 1.50585,-0.9493 1.14773,0.9095 -0.58032,1.6831 -0.51677,1.7291 1.09813,0.83355 1.526,-0.96274 1.46503,-1.01182 1.18494,0.86093 -0.50953,1.70584 -0.4439,1.74924 1.13223,0.78653 1.48415,-1.02579 1.42162,-1.07228 1.22008,0.81079 -0.4377,1.72601 -0.37052,1.76578 1.16427,0.73845 1.44022,-1.08675 1.37511,-1.1307 1.25264,0.75862 -0.36484,1.74254 -0.2961,1.77972 1.19424,0.6899 1.3932,-1.1467 1.32653,-1.18753 1.28364,0.70591 -0.29145,1.75646 -0.2217,1.7906 1.22215,0.63873 1.34411,-1.20357 1.27589,-1.24177 1.31206,0.65112 -0.21807,1.76683 -0.14625,1.79832 1.24747,0.58706 1.29295,-1.25884 1.22266,-1.29399 1.3379,0.59584 -0.14366,1.77456 -0.0708,1.803 1.27124,0.53433 1.23868,-1.31207 1.16737,-1.34461 1.36168,0.53951 -0.0693,1.77869 0.005,1.80453 1.29191,0.48059 1.18287,-1.36271 1.11001,-1.39215 1.38338,0.48215 0.005,1.78024 0.0806,1.80248 1.31103,0.42632 1.12448,-1.41129 1.0511,-1.43711 1.40197,0.42323 0.0801,1.77872 0.15555,1.79728 1.32808,0.37106 1.06454,-1.45677 0.9896,-1.48 1.41904,0.3643 0.15399,1.77356 0.231,1.78953 1.34255,0.31472 1.00252,-1.50016 0.92656,-1.52032 1.43299,0.30488 0.22841,1.76578 0.30541,1.77818 1.35444,0.25839 0.93896,-1.54098 0.86248,-1.55753 1.44435,0.2439 0.30179,1.75495 0.37983,1.76371 1.36425,0.20154 0.87333,-1.57872 0.79634,-1.59266 1.45314,0.18397 0.37569,1.73992 0.4532,1.74668 1.37149,0.14417 0.80667,-1.61385 0.72864,-1.6247 1.45986,0.12297 0.44803,1.72292 0.52607,1.72598 1.37614,0.0863 0.73794,-1.6459 0.66043,-1.65364 1.46347,0.0615 0.51987,1.70272 0.59789,1.70223 1.37873,0.0289 0.66869,-1.67587 0.59015,-1.67947 h 1.46503 l 0.59014,1.67947 0.66921,1.67587 1.37821,-0.0289 0.5979,-1.70223 0.51986,-1.70272 1.46348,-0.0615 0.66042,1.65364 0.73794,1.6459 1.37615,-0.0863 0.52606,-1.72598 0.44804,-1.72292 1.45986,-0.12297 0.72863,1.6247 0.80667,1.61385 1.3715,-0.14417 0.4532,-1.74668 0.37569,-1.73992 1.45314,-0.18397 0.79632,1.59266 0.87334,1.57872 1.36427,-0.20154 0.37981,-1.76371 0.30178,-1.75495 1.44436,-0.2439 0.86249,1.55753 0.93895,1.54098 1.35446,-0.25839 0.30541,-1.77818 0.22839,-1.76578 1.433,-0.30488 0.92655,1.52032 1.00253,1.50016 1.34255,-0.31472 0.23098,-1.78953 0.15402,-1.77356 1.41904,-0.3643 0.98959,1.48 1.06452,1.45677 1.32811,-0.37106 0.15552,-1.79728 0.0801,-1.77872 1.40197,-0.42323 1.05111,1.43711 1.12448,1.41129 1.31101,-0.42632 0.0806,-1.80248 0.005,-1.78024 1.38337,-0.48215 1.11001,1.39215 1.18287,1.36271 1.29191,-0.48059 0.005,-1.80453 -0.0692,-1.77869 1.36167,-0.53951 1.16737,1.34461 1.2387,1.31207 1.27122,-0.53433 -0.0708,-1.803 -0.14367,-1.77456 1.33842,-0.59584 1.22214,1.29399 1.29294,1.25884 1.24749,-0.58706 -0.14624,-1.79832 -0.2181,-1.76683 1.31207,-0.65112 1.2759,1.24177 1.34411,1.20357 1.22214,-0.63873 -0.22169,-1.7906 -0.29147,-1.75646 1.28365,-0.70591 1.32654,1.18753 1.39319,1.1467 1.19425,-0.6899 -0.29612,-1.77972 -0.36483,-1.74254 1.25264,-0.75862 1.37512,1.1307 1.44021,1.08675 1.16427,-0.73845 -0.37052,-1.76578 -0.4377,-1.72601 1.2201,-0.81079 1.4216,1.07228 1.48416,1.02579 1.13223,-0.78653 -0.44389,-1.74924 -0.50954,-1.70584 1.18494,-0.86093 1.46502,1.01182 1.52601,0.96274 1.09813,-0.83355 -0.51678,-1.7291 -0.58031,-1.6831 1.14773,-0.9095 1.50635,0.9493 1.56478,0.89813 1.06246,-0.879 -0.5891,-1.70532 -0.65011,-1.65727 1.10848,-0.95758 1.54461,0.88574 1.60144,0.83148 1.02473,-0.92241 -0.6599,-1.6795 -0.71932,-1.62832 1.06762,-1.00304 1.58028,0.8201 1.63504,0.7643 0.98494,-0.9648 -0.72967,-1.65055 -0.78652,-1.59681 1.02476,-1.04643 1.61332,0.75293 1.66502,0.69503 0.94361,-1.0051 -0.79788,-1.61851 -0.85267,-1.56268 0.97981,-1.08831 1.6433,0.68471 1.69291,0.62423 0.90125,-1.04333 -0.86506,-1.58387 -0.91778,-1.52551 0.93329,-1.12861 1.67068,0.61548 1.71773,0.55292 0.85627,-1.08055 -0.9307,-1.54565 -0.98081,-1.48569 0.88575,-1.16686 1.69497,0.5452 1.73892,0.48059 0.81079,-1.1157 -0.99475,-1.50532 -1.0418,-1.44386 0.83561,-1.2025 1.71616,0.47387 1.75803,0.40722 0.76274,-1.14877 -1.05624,-1.46246 -1.10176,-1.39835 0.78444,-1.23713 1.73479,0.40153 1.77353,0.33329 0.71417,-1.17925 -1.11723,-1.41697 -1.15912,-1.35133 0.73226,-1.26865 1.74977,0.32866 1.78594,0.2589 0.66403,-1.20873 -1.17512,-1.3689 -1.21492,-1.30122 0.67853,-1.2981 1.76215,0.25477 1.79472,0.18396 0.61341,-1.23507 -1.23195,-1.31876 -1.26815,-1.24955 0.62373,-1.32551 1.77096,0.18087 1.80144,0.10853 0.56068,-1.25936 -1.28572,-1.26606 -1.31982,-1.19528 0.56793,-1.3503 1.77715,0.10644 1.80404,0.0331 0.50747,-1.28209 -1.33739,-1.21079 -1.36893,-1.13895 0.51057,-1.37303 1.78025,0.032 1.80403,-0.0424 0.45321,-1.30223 -1.387,-1.15395 -1.41491,-1.08056 0.4527,-1.39319 1.77972,-0.0424 1.80041,-0.11835 0.39843,-1.31982 -1.43401,-1.09503 -1.45883,-1.02008 0.39378,-1.41078 1.77662,-0.11729 1.79369,-0.19328 0.34314,-1.33583 -1.47897,-1.03354 -1.50019,-0.95858 0.33436,-1.42576 1.76993,-0.19172 1.78437,-0.26821 0.28681,-1.34874 -1.52085,-0.97099 -1.53943,-0.89453 0.2744,-1.4392 1.76062,-0.26509 1.77147,-0.34261 0.22994,-1.35961 -1.56008,-0.90641 -1.57562,-0.82939 0.21394,-1.44955 1.74821,-0.33848 1.75545,-0.41701 0.17259,-1.3679 -1.59681,-0.84024 -1.60867,-0.76275 0.15346,-1.45676 1.7322,-0.41186 1.73633,-0.48989 0.11525,-1.37356 -1.63039,-0.77308 -1.6392,-0.69453 0.092,-1.46192 1.7136,-0.4837 1.7141,-0.56224 0.0579,-1.37769 -1.6614,-0.70383 -1.66709,-0.62529 0.031,-1.46451 1.69137,-0.55552 1.68932,-0.63304 v -1.37924 l -1.68932,-0.63304 -1.69137,-0.55552 -0.031,-1.46451 1.66709,-0.62528 1.6614,-0.70384 -0.0579,-1.37769 -1.7141,-0.56224 -1.7136,-0.48369 -0.092,-1.46193 1.6392,-0.69453 1.63039,-0.77308 -0.11525,-1.37356 -1.73633,-0.48989 -1.7322,-0.41186 -0.15346,-1.45676 1.60867,-0.76274 1.59681,-0.84026 -0.17259,-1.36788 -1.75545,-0.41703 -1.74821,-0.33848 -0.21394,-1.449 1.57562,-0.82993 1.56008,-0.9064 -0.22994,-1.35909 -1.77147,-0.34313 -1.76062,-0.2651 -0.2744,-1.43919 1.53943,-0.89452 1.52085,-0.971 -0.28681,-1.34876 -1.78437,-0.2682 -1.76993,-0.19172 -0.33436,-1.42575 1.50019,-0.9586 1.47897,-1.03353 -0.34314,-1.33583 -1.79369,-0.19327 -1.77662,-0.11679 -0.39378,-1.41128 1.45883,-1.0201 1.43401,-1.09502 -0.39843,-1.31981 -1.80041,-0.11834 -1.77972,-0.0424 -0.4527,-1.3932 1.41491,-1.08055 1.387,-1.15393 -0.45321,-1.30225 -1.80403,-0.0424 -1.78025,0.032 -0.51057,-1.37304 1.36893,-1.13895 1.33739,-1.21077 -0.50747,-1.2821 -1.80404,0.0331 -1.77715,0.10646 -0.56793,-1.35031 1.31982,-1.19527 1.28572,-1.26607 -0.56068,-1.25936 -1.80144,0.10852 -1.77096,0.18087 -0.62373,-1.3255 1.26815,-1.24954 1.23195,-1.31878 -0.61341,-1.23507 -1.79472,0.18397 -1.76215,0.25477 -0.67853,-1.29812 1.21492,-1.30121 1.17512,-1.36891 -0.66403,-1.20871 -1.78594,0.2589 -1.74977,0.32866 -0.73226,-1.26866 1.15912,-1.35133 1.11723,-1.41697 -0.71417,-1.17926 -1.77353,0.33332 -1.73479,0.40152 -0.78444,-1.23713 1.10176,-1.39837 1.05624,-1.46244 -0.76274,-1.14877 -1.75803,0.40773 -1.71616,0.47336 -0.83561,-1.20252 1.0418,-1.44383 0.99475,-1.50534 -0.81079,-1.11569 -1.73892,0.48059 -1.69497,0.54518 -0.88575,-1.16685 0.98081,-1.4857 0.9307,-1.54564 -0.85627,-1.08055 -1.71773,0.55294 -1.67068,0.61546 -0.93329,-1.12861 0.91778,-1.52549 0.86506,-1.58388 -0.90125,-1.04335 -1.69291,0.62425 -1.6433,0.68523 -0.97981,-1.08882 0.85267,-1.5627 0.79788,-1.6185 -0.94361,-1.00511 -1.66502,0.69505 -1.61332,0.75292 -1.02476,-1.04644 0.78652,-1.59681 0.72967,-1.65054 -0.98494,-0.9648 -1.63504,0.7643 -1.58028,0.8201 -1.06762,-1.00304 0.71932,-1.62832 0.6599,-1.67949 -1.02473,-0.92242 -1.60144,0.83147 -1.54461,0.88573 -1.10848,-0.95704 0.65011,-1.65778 0.5891,-1.70532 -1.06246,-0.87902 -1.56478,0.89814 -1.50635,0.94929 -1.14773,-0.9095 0.58031,-1.6831 0.51678,-1.7291 -1.09813,-0.83354 -1.52601,0.96273 -1.46502,1.01183 -1.18494,-0.86093 0.50954,-1.70584 0.44389,-1.74873 -1.13223,-0.78703 -1.48416,1.02577 -1.4216,1.07229 -1.2201,-0.8108 0.4377,-1.726 0.37052,-1.76578 -1.16427,-0.73846 -1.44021,1.08676 -1.37512,1.13068 -1.25264,-0.75861 0.36483,-1.74253 0.29612,-1.77974 -1.19425,-0.68988 -1.39319,1.1467 -1.32654,1.18753 -1.28365,-0.7059 0.29147,-1.75648 0.22169,-1.79059 -1.22214,-0.63872 -1.34411,1.20354 -1.2759,1.24179 -1.31207,-0.65113 0.2181,-1.76681 0.14624,-1.79835 -1.24749,-0.58704 -1.29294,1.25884 -1.22214,1.29398 -1.33842,-0.59583 0.14367,-1.77457 0.0708,-1.80247 -1.27122,-0.53434 -1.2387,1.31155 -1.16737,1.34462 -1.36167,-0.5395 0.0692,-1.7787 -0.005,-1.80455 -1.29191,-0.48059 -1.18287,1.36271 -1.11001,1.39216 -1.38337,-0.48214 -0.005,-1.78025 -0.0806,-1.80247 -1.31101,-0.42582 -1.12448,1.41077 -1.05111,1.43712 -1.40197,-0.42323 -0.0801,-1.7787 -0.15552,-1.79731 -1.32811,-0.37104 -1.06452,1.45676 -0.98959,1.48002 -1.41904,-0.36432 -0.15402,-1.77354 -0.23098,-1.78955 -1.34255,-0.31471 -1.00253,1.50017 -0.92655,1.52031 -1.433,-0.30488 -0.22839,-1.76579 -0.30541,-1.77819 -1.35446,-0.25838 -0.93895,1.54099 -0.86249,1.55753 -1.44436,-0.24391 -0.30178,-1.75493 -0.37981,-1.76372 -1.36427,-0.20154 -0.87334,1.57872 -0.79632,1.59267 -1.45314,-0.18397 -0.37569,-1.73995 -0.4532,-1.74666 -1.3715,-0.14418 -0.80667,1.61386 -0.72863,1.6247 -1.45986,-0.12247 -0.44804,-1.72341 -0.52606,-1.72599 -1.37615,-0.0863 -0.73794,1.64641 -0.66042,1.65313 -1.46348,-0.0615 -0.51986,-1.70274 -0.5979,-1.70222 -1.37821,-0.0289 -0.66921,1.67586 -0.59014,1.67949 h -1.46503 l -0.59015,-1.67949 z m 1.99161,10.49806 A 117.5,117.5 0 0 1 367.50005,250.00024 117.5,117.5 0 0 1 250.00024,367.50005 117.5,117.5 0 0 1 132.49992,250.00024 117.5,117.5 0 0 1 250.00024,132.49992 Z"
         id="path5134" />
      <rect
         y="127.96599"
         x="245.99048"
         height="244.06799"
         width="8.0190105"
         id="rect4487"
         style="fill:#000000;fill-opacity:1;stroke:none;stroke-width:0.30537871" />
      <rect
         transform="rotate(-90)"
         y="127.96599"
         x="-254.00949"
         height="244.06799"
         width="8.0190105"
         id="rect4487-3"
         style="fill:#000000;fill-opacity:1;stroke:none;stroke-width:0.30537871" />
      <circle
         r="34.773811"
         cy="249.99998"
         cx="249.99998"
         id="path4504"
         style="fill:#000000;fill-opacity:1;stroke:none;stroke-width:0.26458332" />
    </g>
    <g
       id="transmitter"
       inkscape:label="transmitter">
      <circle
         r="25"
         cy="250.00002"
         cx="250"
         id="path5412"
         style="fill:#dbe36d;fill-opacity:1;stroke:none;stroke-width:0.34653461" />
      <path
         id="path5412-9"
         transform="scale(0.26458333)"
         d="M 851.25781 808.39453 A 94.488188 94.488188 0 0 0 945.71484 902.25391 A 94.488188 94.488188 0 0 0 1040.1816 808.39453 L 1030.7227 808.39453 A 85.039369 85.039369 0 0 1 945.71484 892.80469 A 85.039369 85.039369 0 0 1 860.69727 808.39453 L 851.25781 808.39453 z "
         style="fill:#dbe36d;fill-opacity:1;stroke:none;stroke-width:1.30973709" />
      <path
         inkscape:connector-curvature="0"
         id="path5522"
         d="m 225.22862,213.88771 4.76871,-115.886976 h 2.5063 l -4.77748,115.886976 z"
         style="fill:#dbe36d;fill-rule:evenodd;stroke:none;stroke-width:0.26458332px;stroke-linecap:butt;stroke-linejoin:miter;stroke-opacity:1;fill-opacity:1" />
      <path
         inkscape:connector-curvature="0"
         id="path5524"
         d="M 275.21471,213.88771 264.96108,98.000734 h -2.4939 l 10.24486,115.886976 z"
         style="fill:#dbe36d;fill-rule:evenodd;stroke:none;stroke-width:0.26458332px;stroke-linecap:butt;stroke-linejoin:miter;stroke-opacity:1;fill-opacity:1" />
      <path
         id="path5526"
         transform="scale(0.26458333)"
         d="M 934.59961 308.05469 A 66.141732 66.141732 0 0 0 868.45703 374.19727 A 66.141732 66.141732 0 0 0 934.59961 440.33789 A 66.141732 66.141732 0 0 0 1000.7402 374.19727 A 66.141732 66.141732 0 0 0 934.59961 308.05469 z M 934.59961 317.50391 A 56.692913 56.692913 0 0 1 991.29297 374.19727 A 56.692913 56.692913 0 0 1 934.59961 430.88867 A 56.692913 56.692913 0 0 1 877.90625 374.19727 A 56.692913 56.692913 0 0 1 934.59961 317.50391 z "
         style="fill:#dbe36d;fill-opacity:1;stroke:none;stroke-width:1.02863574" />
    </g>
    <g
       transform="translate(247.01288,95.489127)"
       id="hour_hand">
      <g
         id="g4511">
        <circle
           cy="0"
           cx="0"
           style="fill:#8800aa;fill-opacity:1;stroke:none;stroke-width:0.54243803"
           id="path4496"
           r="6" />
        <circle
           cx="0"
           style="fill:#8800aa;fill-opacity:1;stroke:none;stroke-width:1.08487606"
           id="path4496-3"
           cy="-30"
           r="10" />
        <rect
           style="fill:#8800aa;fill-opacity:1;stroke:none;stroke-width:0.52916664"
           id="rect4513"
           width="6"
           height="20"
           x="-3"
           y="-25" />
        <path
           inkscape:connector-curvature="0"
           d="M -4.4664662,-37.260354 H 4.4664662 L -1.6e-6,-64.777115 Z"
           style="fill:#8800aa;fill-opacity:1;stroke:none;stroke-width:0.33694607"
           inkscape:label="Triangle"
           id="path4535" />
      </g>
    </g>
  </g>
  <path
     d="M 250.00 32.50 L 261.32 33.05 L 272.51 34.67 L 283.44 37.36 L 293.99 41.07 L 304.04 45.74 L 313.48 51.31 L 322.21 57.69 L 330.15 64.79 L 337.20 72.51 L 343.32 80.72 L 348.44 89.32 L 352.55 98.18 L 355.61 107.16 L 357.64 116.15 L 358.63 125.00 L 358.64 133.60 L 357.69 141.83 L 355.85 149.57 L 353.20 156.72 L 349.83 163.18 L 345.82 168.88 L 341.29 173.74 L 336.35 177.70 L 331.13 180.73 L 325.75 182.80 L 320.33 183.90 L 315.01 184.04 L 309.91 183.25 L 305.15 181.56 L 300.84 179.02 L 297.10 175.71 L 294.02 171.70 L 291.69 167.10 L 290.18 161.99 L 289.55 156.50 L 289.86 150.74 L 291.13 144.84 L 293.37 138.92 L 296.59 133.11 L 300.77 127.54 L 305.87 122.33 L 311.85 117.60 L 318.65 113.46 L 326.18 110.02 L 334.36 107.36 L 343.09 105.58 L 352.26 104.73 L 361.75 104.86 L 371.44 106.03 L 381.20 108.25 L 390.91 111.53 L 400.42 115.85 L 409.63 121.20 L 418.40 127.53 L 426.61 134.79 L 434.16 142.91 L 440.94 151.80 L 446.88 161.36 L 451.89 171.50 L 455.90 182.10 L 458.88 193.03 L 460.79 204.18 L 461.61 215.40 L 461.35 226.58 L 460.01 237.59 L 457.63 248.29 L 454.26 258.56 L 449.96 268.30 L 444.80 277.39 L 438.88 285.75 L 432.28 293.28 L 425.13 299.92 L 417.53 305.61 L 409.61 310.31 L 401.50 314.00 L 393.32 316.66 L 385.20 318.30 L 377.27 318.95 L 369.65 318.64 L 362.46 317.42 L 355.81 315.37 L 349.79 312.56 L 344.50 309.09 L 340.00 305.06 L 336.37 300.58 L 333.65 295.77 L 331.87 290.76 L 331.05 285.66 L 331.19 280.61 L 332.27 275.73 L 334.26 271.15 L 337.12 266.98 L 340.78 263.34 L 345.17 260.33 L 350.20 258.03 L 355.77 256.55 L 361.77 255.93 L 368.09 256.23 L 374.61 257.50 L 381.20 259.75 L 387.73 262.99 L 394.08 267.22 L 400.12 272.40 L 405.72 278.50 L 410.77 285.46 L 415.17 293.21 L 418.81 301.67 L 421.61 310.74 L 423.50 320.32 L 424.41 330.29 L 424.29 340.53 L 423.11 350.92 L 420.87 361.32 L 417.56 371.62 L 413.19 381.67 L 407.81 391.36 L 401.45 400.56 L 394.19 409.16 L 386.09 417.06 L 377.26 424.15 L 367.78 430.36 L 357.77 435.62 L 347.34 439.87 L 336.63 443.08 L 325.75 445.20 L 314.84 446.25 L 304.02 446.22 L 293.43 445.14 L 283.19 443.04 L 273.41 439.99 L 264.21 436.05 L 255.69 431.29 L 247.93 425.83 L 241.01 419.75 L 235.00 413.17 L 229.94 406.21 L 225.87 399.00 L 222.80 391.66 L 220.75 384.32 L 219.68 377.10 L 219.57 370.14 L 220.38 363.55 L 222.05 357.44 L 224.49 351.92 L 227.63 347.08 L 231.36 343.01 L 235.58 339.77 L 240.18 337.41 L 245.03 335.98 L 250.00 335.50 L 254.97 335.98 L 259.82 337.41 L 264.42 339.77 L 268.64 343.01 L 272.37 347.08 L 275.51 351.92 L 277.95 357.44 L 279.62 363.55 L 280.43 370.14 L 280.32 377.10 L 279.25 384.32 L 277.20 391.66 L 274.13 399.00 L 270.06 406.21 L 265.00 413.17 L 258.99 419.75 L 252.07 425.83 L 244.31 431.29 L 235.79 436.05 L 226.59 439.99 L 216.81 443.04 L 206.57 445.14 L 195.98 446.22 L 185.16 446.25 L 174.25 445.20 L 163.37 443.08 L 152.66 439.87 L 142.23 435.62 L 132.22 430.36 L 122.74 424.15 L 113.91 417.06 L 105.81 409.16 L 98.55 400.56 L 92.19 391.36 L 86.81 381.67 L 82.44 371.62 L 79.13 361.32 L 76.89 350.92 L 75.71 340.53 L 75.59 330.29 L 76.50 320.32 L 78.39 310.74 L 81.19 301.67 L 84.83 293.21 L 89.23 285.46 L 94.28 278.50 L 99.88 272.40 L 105.92 267.22 L 112.27 262.99 L 118.80 259.75 L 125.39 257.50 L 131.91 256.23 L 138.23 255.93 L 144.23 256.55 L 149.80 258.03 L 154.83 260.33 L 159.22 263.34 L 162.88 266.98 L 165.74 271.15 L 167.73 275.73 L 168.81 280.61 L 168.95 285.66 L 168.13 290.76 L 166.35 295.78 L 163.63 300.58 L 160.00 305.06 L 155.50 309.09 L 150.21 312.56 L 144.19 315.37 L 137.54 317.42 L 130.35 318.64 L 122.73 318.95 L 114.80 318.30 L 106.68 316.66 L 98.50 314.00 L 90.39 310.31 L 82.47 305.61 L 74.87 299.92 L 67.72 293.28 L 61.12 285.75 L 55.20 277.39 L 50.04 268.30 L 45.74 258.56 L 42.37 248.29 L 39.99 237.59 L 38.65 226.58 L 38.39 215.40 L 39.21 204.18 L 41.12 193.03 L 44.10 182.10 L 48.11 171.50 L 53.12 161.36 L 59.06 151.80 L 65.84 142.91 L 73.39 134.79 L 81.60 127.53 L 90.37 121.20 L 99.58 115.85 L 109.09 111.53 L 118.80 108.25 L 128.56 106.03 L 138.25 104.86 L 147.74 104.73 L 156.91 105.58 L 165.64 107.36 L 173.82 110.02 L 181.35 113.46 L 188.15 117.60 L 194.13 122.33 L 199.23 127.54 L 203.41 133.11 L 206.63 138.92 L 208.87 144.84 L 210.14 150.74 L 210.45 156.50 L 209.82 161.99 L 208.31 167.10 L 205.98 171.70 L 202.90 175.71 L 199.16 179.02 L 194.85 181.56 L 190.09 183.25 L 184.99 184.04 L 179.67 183.90 L 174.25 182.80 L 168.87 180.73 L 163.65 177.70 L 158.71 173.74 L 154.18 168.88 L 150.17 163.18 L 146.80 156.72 L 144.15 149.57 L 142.31 141.83 L 141.36 133.60 L 141.37 125.00 L 142.36 116.15 L 144.39 107.16 L 147.45 98.18 L 151.56 89.32 L 156.68 80.72 L 162.80 72.51 L 169.85 64.79 L 177.79 57.69 L 186.52 51.31 L 195.96 45.74 L 206.01 41.07 L 216.56 37.36 L 227.49 34.67 L 238.68 33.05 Z"
     id="epitrochoid"
     style="fill:none;stroke:#000000;stroke-opacity:0.44390243"
     stroke="black"
     fill="transparent" />
</svg>
