<?xml version="1.0" encoding="UTF-8" standalone="no"?>
<!-- Created with Inkscape (http://www.inkscape.org/) -->

<svg
   xmlns:dc="http://purl.org/dc/elements/1.1/"
   xmlns:cc="http://creativecommons.org/ns#"
   xmlns:rdf="http://www.w3.org/1999/02/22-rdf-syntax-ns#"
   xmlns:svg="http://www.w3.org/2000/svg"
   xmlns="http://www.w3.org/2000/svg"
   xmlns:sodipodi="http://sodipodi.sourceforge.net/DTD/sodipodi-0.dtd"
   xmlns:inkscape="http://www.inkscape.org/namespaces/inkscape"
   width="210mm"
   height="297mm"
   viewBox="0 0 210 297"
   version="1.1"
   id="svg5129"
   inkscape:version="0.92.1 r15371"
   sodipodi:docname="poc.svg">
  <sodipodi:namedview
     id="base"
     pagecolor="#ffffff"
     bordercolor="#666666"
     borderopacity="1.0"
     inkscape:pageopacity="0.0"
     inkscape:pageshadow="2"
     inkscape:zoom="1.979899"
     inkscape:cx="261.56909"
     inkscape:cy="1095.7097"
     inkscape:document-units="mm"
     inkscape:current-layer="layer1"
     showgrid="false"
     inkscape:window-width="1855"
     inkscape:window-height="1056"
     inkscape:window-x="65"
     inkscape:window-y="24"
     inkscape:window-maximized="1" />
  <defs
     id="defs5123" />
  <metadata
     id="metadata5126">
    <rdf:RDF>
      <cc:Work
         rdf:about="">
        <dc:format>image/svg+xml</dc:format>
        <dc:type
           rdf:resource="http://purl.org/dc/dcmitype/StillImage" />
        <dc:title></dc:title>
      </cc:Work>
    </rdf:RDF>
  </metadata>
  <g
     inkscape:label="Layer 1"
     inkscape:groupmode="layer"
     id="layer1">
    <g
       transform="translate(105.833333331,148.833333336)"
       inkscape:label="Gear150"
       id="g5136"
       style="fill:#000000;fill-opacity:1">
      <path
         d="M124.63070,-1.87811 L126.32231,-1.32289 L128.01177,-0.68941 L128.01177,0.68941 L126.32231,1.32289 L124.63070,1.87811 L124.60002,3.34253 L126.26690,3.96810 L127.92835,4.67177 L127.87061,6.04938 L126.15611,6.61156 L124.44273,7.09545 L124.35075,8.55731 L125.98998,9.25213 L127.62050,10.02476 L127.50513,11.39874 L125.76858,11.88863 L124.03644,12.30035 L123.88333,13.75707 L125.49202,14.51992 L127.08876,15.36016 L126.91595,16.72810 L125.16042,17.14484 L123.41256,17.48366 L123.19858,18.93270 L124.77391,19.76225 L126.33407,20.66861 L126.10413,22.02812 L124.33268,22.37098 L122.57216,22.63631 L122.29770,24.07511 L123.83691,24.96990 L125.35774,25.94080 L125.07107,27.28949 L123.28682,27.55787 L121.51674,27.74924 L121.18226,29.17529 L122.68265,30.13375 L124.16149,31.16748 L123.81860,32.50298 L122.02467,32.69641 L120.24813,32.81349 L119.85423,34.22429 L121.31317,35.24473 L122.74742,36.33949 L122.34890,37.65945 L120.54845,37.77759 L118.76856,37.82018 L118.31593,39.21324 L119.73086,40.29389 L121.11801,41.44774 L120.66457,42.74986 L118.86075,42.79250 L117.08064,42.76052 L116.57007,44.13340 L117.93850,45.27235 L119.27612,46.48328 L118.76855,47.76527 L116.96452,47.73234 L115.18731,47.62584 L114.61970,48.97614 L115.93924,50.17139 L117.22498,51.43727 L116.66416,52.69688 L114.86310,52.58843 L113.09191,52.40761 L112.46825,53.73295 L113.73658,54.98241 L114.96818,56.30103 L114.35511,57.53605 L112.56017,57.35227 L110.79811,57.09743 L110.11950,58.39550 L111.33439,59.69698 L112.50969,61.06601 L111.84544,62.27427 L110.05978,62.01550 L108.30993,61.68709 L107.57755,62.95560 L108.73688,64.30681 L109.85382,65.72386 L109.13956,66.90325 L107.36629,66.56992 L105.63173,66.16853 L104.84688,67.40526 L105.94861,68.80383 L107.00523,70.26641 L106.24221,71.41485 L104.48446,71.00756 L102.76823,70.53389 L101.93227,71.73667 L102.97447,73.18015 L103.96892,74.68569 L103.15847,75.80117 L101.41932,75.32063 L99.72443,74.77550 L98.83884,75.94222 L99.81968,77.42808 L100.75021,78.97394 L99.89376,80.05451 L98.17626,79.50156 L96.50568,78.88594 L95.57201,80.01455 L96.48977,81.54018 L97.35475,83.12365 L96.45380,84.16741 L94.76096,83.54302 L93.11763,82.85798 L92.13752,83.94650 L92.99058,85.50922 L93.78850,87.12753 L92.84463,88.13264 L91.17942,87.43792 L89.56622,86.68466 L88.54138,87.73119 L89.32826,89.32826 L90.05771,90.97856 L89.07258,91.94327 L87.43792,91.17942 L85.85767,90.35927 L84.78992,91.36196 L85.50922,92.99058 L86.16892,94.66998 L85.14426,95.59259 L83.54302,94.76096 L81.99851,93.87535 L80.88970,94.83245 L81.54018,96.48977 L82.12897,98.19532 L81.06658,99.07421 L79.50156,98.17626 L77.99549,97.22675 L76.84758,98.13658 L77.42808,99.81968 L77.94494,101.54839 L76.84667,102.38202 L75.32063,101.41932 L73.85564,100.40758 L72.67063,101.26854 L73.18015,102.97447 L73.62416,104.72331 L72.49195,105.51022 L71.00756,104.48446 L69.58622,103.41226 L68.36620,104.22284 L68.80383,105.94861 L69.17422,107.71451 L68.01005,108.45331 L66.56992,107.36629 L65.19473,106.23552 L63.94183,106.99430 L64.30681,108.73688 L64.60293,110.51674 L63.40884,111.20615 L62.01550,110.05978 L60.68886,108.87240 L59.40529,109.57805 L59.69698,111.33439 L59.91830,113.12509 L58.69639,113.76389 L57.35227,112.56017 L56.07652,111.31829 L54.76453,111.96957 L54.98241,113.73658 L55.12855,115.53498 L53.88097,116.12205 L52.58843,114.86310 L51.36581,113.56888 L50.02769,114.16465 L50.17139,115.93924 L50.24210,117.74218 L48.97102,118.27649 L47.73234,116.96452 L46.56498,115.62024 L45.20309,116.15945 L45.27235,117.93850 L45.26749,119.74282 L43.97516,120.22343 L42.79250,118.86075 L41.68246,117.46876 L40.29919,117.95047 L40.29389,119.73086 L40.21348,121.53339 L38.90215,121.95947 L37.77759,120.54845 L36.72682,119.11120 L35.32458,119.53456 L35.24473,121.31317 L35.08891,123.11075 L33.76089,123.48154 L32.69641,122.02467 L31.70674,120.54468 L30.28801,120.90895 L30.13375,122.68265 L29.90279,124.47213 L28.56041,124.78698 L27.55787,123.28682 L26.63104,121.76668 L25.19830,122.07122 L24.96990,123.83691 L24.66421,125.61515 L23.30982,125.87351 L22.37098,124.33268 L21.50862,122.77507 L20.06439,123.01934 L19.76225,124.77391 L19.38236,126.53779 L18.01834,126.73921 L17.14484,125.16042 L16.34847,123.56806 L14.89527,123.75164 L14.51992,125.49202 L14.06650,127.23844 L12.69524,127.38257 L11.88863,125.76858 L11.15964,124.14427 L9.70003,124.26684 L9.25213,125.98998 L8.72597,127.71588 L7.34988,127.80246 L6.61156,126.15611 L5.95123,124.50269 L4.48776,124.56403 L3.96810,126.26690 L3.37013,127.96926 L1.99162,127.99813 L1.32289,126.32231 L0.73238,124.64269 L-0.73238,124.64269 L-1.32289,126.32231 L-1.99162,127.99813 L-3.37013,127.96926 L-3.96810,126.26690 L-4.48776,124.56403 L-5.95123,124.50269 L-6.61156,126.15611 L-7.34988,127.80246 L-8.72597,127.71588 L-9.25213,125.98998 L-9.70003,124.26684 L-11.15964,124.14427 L-11.88863,125.76858 L-12.69524,127.38257 L-14.06650,127.23844 L-14.51992,125.49202 L-14.89527,123.75164 L-16.34847,123.56806 L-17.14484,125.16042 L-18.01834,126.73921 L-19.38236,126.53779 L-19.76225,124.77391 L-20.06439,123.01934 L-21.50862,122.77507 L-22.37098,124.33268 L-23.30982,125.87351 L-24.66421,125.61515 L-24.96990,123.83691 L-25.19830,122.07122 L-26.63104,121.76668 L-27.55787,123.28682 L-28.56041,124.78698 L-29.90279,124.47213 L-30.13375,122.68265 L-30.28801,120.90895 L-31.70674,120.54468 L-32.69641,122.02467 L-33.76089,123.48154 L-35.08891,123.11075 L-35.24473,121.31317 L-35.32458,119.53456 L-36.72682,119.11120 L-37.77759,120.54845 L-38.90215,121.95947 L-40.21348,121.53339 L-40.29389,119.73086 L-40.29919,117.95047 L-41.68246,117.46876 L-42.79250,118.86075 L-43.97516,120.22343 L-45.26749,119.74282 L-45.27235,117.93850 L-45.20309,116.15945 L-46.56498,115.62024 L-47.73234,116.96452 L-48.97102,118.27649 L-50.24210,117.74218 L-50.17139,115.93924 L-50.02769,114.16465 L-51.36581,113.56888 L-52.58843,114.86310 L-53.88097,116.12205 L-55.12855,115.53498 L-54.98241,113.73658 L-54.76453,111.96957 L-56.07652,111.31829 L-57.35227,112.56017 L-58.69639,113.76389 L-59.91830,113.12509 L-59.69698,111.33439 L-59.40529,109.57805 L-60.68886,108.87240 L-62.01550,110.05978 L-63.40884,111.20615 L-64.60293,110.51674 L-64.30681,108.73688 L-63.94183,106.99430 L-65.19473,106.23552 L-66.56992,107.36629 L-68.01005,108.45331 L-69.17422,107.71451 L-68.80383,105.94861 L-68.36620,104.22284 L-69.58622,103.41226 L-71.00756,104.48446 L-72.49195,105.51022 L-73.62416,104.72331 L-73.18015,102.97447 L-72.67063,101.26854 L-73.85564,100.40758 L-75.32063,101.41932 L-76.84667,102.38202 L-77.94494,101.54839 L-77.42808,99.81968 L-76.84758,98.13658 L-77.99549,97.22675 L-79.50156,98.17626 L-81.06658,99.07421 L-82.12897,98.19532 L-81.54018,96.48977 L-80.88970,94.83245 L-81.99851,93.87535 L-83.54302,94.76096 L-85.14426,95.59259 L-86.16892,94.66998 L-85.50922,92.99058 L-84.78992,91.36196 L-85.85767,90.35927 L-87.43792,91.17942 L-89.07258,91.94327 L-90.05771,90.97856 L-89.32826,89.32826 L-88.54138,87.73119 L-89.56622,86.68466 L-91.17942,87.43792 L-92.84463,88.13264 L-93.78850,87.12753 L-92.99058,85.50922 L-92.13752,83.94650 L-93.11763,82.85798 L-94.76096,83.54302 L-96.45380,84.16741 L-97.35475,83.12365 L-96.48977,81.54018 L-95.57201,80.01455 L-96.50568,78.88594 L-98.17626,79.50156 L-99.89376,80.05451 L-100.75021,78.97394 L-99.81968,77.42808 L-98.83884,75.94222 L-99.72443,74.77550 L-101.41932,75.32063 L-103.15847,75.80117 L-103.96892,74.68569 L-102.97447,73.18015 L-101.93227,71.73667 L-102.76823,70.53389 L-104.48446,71.00756 L-106.24221,71.41485 L-107.00523,70.26641 L-105.94861,68.80383 L-104.84688,67.40526 L-105.63173,66.16853 L-107.36629,66.56992 L-109.13956,66.90325 L-109.85382,65.72386 L-108.73688,64.30681 L-107.57755,62.95560 L-108.30993,61.68709 L-110.05978,62.01550 L-111.84544,62.27427 L-112.50969,61.06601 L-111.33439,59.69698 L-110.11950,58.39550 L-110.79811,57.09743 L-112.56017,57.35227 L-114.35511,57.53605 L-114.96818,56.30103 L-113.73658,54.98241 L-112.46825,53.73295 L-113.09191,52.40761 L-114.86310,52.58843 L-116.66416,52.69688 L-117.22498,51.43727 L-115.93924,50.17139 L-114.61970,48.97614 L-115.18731,47.62584 L-116.96452,47.73234 L-118.76855,47.76527 L-119.27612,46.48328 L-117.93850,45.27235 L-116.57007,44.13340 L-117.08064,42.76052 L-118.86075,42.79250 L-120.66457,42.74986 L-121.11801,41.44774 L-119.73086,40.29389 L-118.31593,39.21324 L-118.76856,37.82018 L-120.54845,37.77759 L-122.34890,37.65945 L-122.74742,36.33949 L-121.31317,35.24473 L-119.85423,34.22429 L-120.24813,32.81349 L-122.02467,32.69641 L-123.81860,32.50298 L-124.16149,31.16748 L-122.68265,30.13375 L-121.18226,29.17529 L-121.51674,27.74924 L-123.28682,27.55787 L-125.07107,27.28949 L-125.35774,25.94080 L-123.83691,24.96990 L-122.29770,24.07511 L-122.57216,22.63631 L-124.33268,22.37098 L-126.10413,22.02812 L-126.33407,20.66861 L-124.77391,19.76225 L-123.19858,18.93270 L-123.41256,17.48366 L-125.16042,17.14484 L-126.91595,16.72810 L-127.08876,15.36016 L-125.49202,14.51992 L-123.88333,13.75707 L-124.03644,12.30035 L-125.76858,11.88863 L-127.50513,11.39874 L-127.62050,10.02476 L-125.98998,9.25213 L-124.35075,8.55731 L-124.44273,7.09545 L-126.15611,6.61156 L-127.87061,6.04938 L-127.92835,4.67177 L-126.26690,3.96810 L-124.60002,3.34253 L-124.63070,1.87811 L-126.32231,1.32289 L-128.01177,0.68941 L-128.01177,-0.68941 L-126.32231,-1.32289 L-124.63070,-1.87811 L-124.60002,-3.34253 L-126.26690,-3.96810 L-127.92835,-4.67177 L-127.87061,-6.04938 L-126.15611,-6.61156 L-124.44273,-7.09545 L-124.35075,-8.55731 L-125.98998,-9.25213 L-127.62050,-10.02476 L-127.50513,-11.39874 L-125.76858,-11.88863 L-124.03644,-12.30035 L-123.88333,-13.75707 L-125.49202,-14.51992 L-127.08876,-15.36016 L-126.91595,-16.72810 L-125.16042,-17.14484 L-123.41256,-17.48366 L-123.19858,-18.93270 L-124.77391,-19.76225 L-126.33407,-20.66861 L-126.10413,-22.02812 L-124.33268,-22.37098 L-122.57216,-22.63631 L-122.29770,-24.07511 L-123.83691,-24.96990 L-125.35774,-25.94080 L-125.07107,-27.28949 L-123.28682,-27.55787 L-121.51674,-27.74924 L-121.18226,-29.17529 L-122.68265,-30.13375 L-124.16149,-31.16748 L-123.81860,-32.50298 L-122.02467,-32.69641 L-120.24813,-32.81349 L-119.85423,-34.22429 L-121.31317,-35.24473 L-122.74742,-36.33949 L-122.34890,-37.65945 L-120.54845,-37.77759 L-118.76856,-37.82018 L-118.31593,-39.21324 L-119.73086,-40.29389 L-121.11801,-41.44774 L-120.66457,-42.74986 L-118.86075,-42.79250 L-117.08064,-42.76052 L-116.57007,-44.13340 L-117.93850,-45.27235 L-119.27612,-46.48328 L-118.76855,-47.76527 L-116.96452,-47.73234 L-115.18731,-47.62584 L-114.61970,-48.97614 L-115.93924,-50.17139 L-117.22498,-51.43727 L-116.66416,-52.69688 L-114.86310,-52.58843 L-113.09191,-52.40761 L-112.46825,-53.73295 L-113.73658,-54.98241 L-114.96818,-56.30103 L-114.35511,-57.53605 L-112.56017,-57.35227 L-110.79811,-57.09743 L-110.11950,-58.39550 L-111.33439,-59.69698 L-112.50969,-61.06601 L-111.84544,-62.27427 L-110.05978,-62.01550 L-108.30993,-61.68709 L-107.57755,-62.95560 L-108.73688,-64.30681 L-109.85382,-65.72386 L-109.13956,-66.90325 L-107.36629,-66.56992 L-105.63173,-66.16853 L-104.84688,-67.40526 L-105.94861,-68.80383 L-107.00523,-70.26641 L-106.24221,-71.41485 L-104.48446,-71.00756 L-102.76823,-70.53389 L-101.93227,-71.73667 L-102.97447,-73.18015 L-103.96892,-74.68569 L-103.15847,-75.80117 L-101.41932,-75.32063 L-99.72443,-74.77550 L-98.83884,-75.94222 L-99.81968,-77.42808 L-100.75021,-78.97394 L-99.89376,-80.05451 L-98.17626,-79.50156 L-96.50568,-78.88594 L-95.57201,-80.01455 L-96.48977,-81.54018 L-97.35475,-83.12365 L-96.45380,-84.16741 L-94.76096,-83.54302 L-93.11763,-82.85798 L-92.13752,-83.94650 L-92.99058,-85.50922 L-93.78850,-87.12753 L-92.84463,-88.13264 L-91.17942,-87.43792 L-89.56622,-86.68466 L-88.54138,-87.73119 L-89.32826,-89.32826 L-90.05771,-90.97856 L-89.07258,-91.94327 L-87.43792,-91.17942 L-85.85767,-90.35927 L-84.78992,-91.36196 L-85.50922,-92.99058 L-86.16892,-94.66998 L-85.14426,-95.59259 L-83.54302,-94.76096 L-81.99851,-93.87535 L-80.88970,-94.83245 L-81.54018,-96.48977 L-82.12897,-98.19532 L-81.06658,-99.07421 L-79.50156,-98.17626 L-77.99549,-97.22675 L-76.84758,-98.13658 L-77.42808,-99.81968 L-77.94494,-101.54839 L-76.84667,-102.38202 L-75.32063,-101.41932 L-73.85564,-100.40758 L-72.67063,-101.26854 L-73.18015,-102.97447 L-73.62416,-104.72331 L-72.49195,-105.51022 L-71.00756,-104.48446 L-69.58622,-103.41226 L-68.36620,-104.22284 L-68.80383,-105.94861 L-69.17422,-107.71451 L-68.01005,-108.45331 L-66.56992,-107.36629 L-65.19473,-106.23552 L-63.94183,-106.99430 L-64.30681,-108.73688 L-64.60293,-110.51674 L-63.40884,-111.20615 L-62.01550,-110.05978 L-60.68886,-108.87240 L-59.40529,-109.57805 L-59.69698,-111.33439 L-59.91830,-113.12509 L-58.69639,-113.76389 L-57.35227,-112.56017 L-56.07652,-111.31829 L-54.76453,-111.96957 L-54.98241,-113.73658 L-55.12855,-115.53498 L-53.88097,-116.12205 L-52.58843,-114.86310 L-51.36581,-113.56888 L-50.02769,-114.16465 L-50.17139,-115.93924 L-50.24210,-117.74218 L-48.97102,-118.27649 L-47.73234,-116.96452 L-46.56498,-115.62024 L-45.20309,-116.15945 L-45.27235,-117.93850 L-45.26749,-119.74282 L-43.97516,-120.22343 L-42.79250,-118.86075 L-41.68246,-117.46876 L-40.29919,-117.95047 L-40.29389,-119.73086 L-40.21348,-121.53339 L-38.90215,-121.95947 L-37.77759,-120.54845 L-36.72682,-119.11120 L-35.32458,-119.53456 L-35.24473,-121.31317 L-35.08891,-123.11075 L-33.76089,-123.48154 L-32.69641,-122.02467 L-31.70674,-120.54468 L-30.28801,-120.90895 L-30.13375,-122.68265 L-29.90279,-124.47213 L-28.56041,-124.78698 L-27.55787,-123.28682 L-26.63104,-121.76668 L-25.19830,-122.07122 L-24.96990,-123.83691 L-24.66421,-125.61515 L-23.30982,-125.87351 L-22.37098,-124.33268 L-21.50862,-122.77507 L-20.06439,-123.01934 L-19.76225,-124.77391 L-19.38236,-126.53779 L-18.01834,-126.73921 L-17.14484,-125.16042 L-16.34847,-123.56806 L-14.89527,-123.75164 L-14.51992,-125.49202 L-14.06650,-127.23844 L-12.69524,-127.38257 L-11.88863,-125.76858 L-11.15964,-124.14427 L-9.70003,-124.26684 L-9.25213,-125.98998 L-8.72597,-127.71588 L-7.34988,-127.80246 L-6.61156,-126.15611 L-5.95123,-124.50269 L-4.48776,-124.56403 L-3.96810,-126.26690 L-3.37013,-127.96926 L-1.99162,-127.99813 L-1.32289,-126.32231 L-0.73238,-124.64269 L0.73238,-124.64269 L1.32289,-126.32231 L1.99162,-127.99813 L3.37013,-127.96926 L3.96810,-126.26690 L4.48776,-124.56403 L5.95123,-124.50269 L6.61156,-126.15611 L7.34988,-127.80246 L8.72597,-127.71588 L9.25213,-125.98998 L9.70003,-124.26684 L11.15964,-124.14427 L11.88863,-125.76858 L12.69524,-127.38257 L14.06650,-127.23844 L14.51992,-125.49202 L14.89527,-123.75164 L16.34847,-123.56806 L17.14484,-125.16042 L18.01834,-126.73921 L19.38236,-126.53779 L19.76225,-124.77391 L20.06439,-123.01934 L21.50862,-122.77507 L22.37098,-124.33268 L23.30982,-125.87351 L24.66421,-125.61515 L24.96990,-123.83691 L25.19830,-122.07122 L26.63104,-121.76668 L27.55787,-123.28682 L28.56041,-124.78698 L29.90279,-124.47213 L30.13375,-122.68265 L30.28801,-120.90895 L31.70674,-120.54468 L32.69641,-122.02467 L33.76089,-123.48154 L35.08891,-123.11075 L35.24473,-121.31317 L35.32458,-119.53456 L36.72682,-119.11120 L37.77759,-120.54845 L38.90215,-121.95947 L40.21348,-121.53339 L40.29389,-119.73086 L40.29919,-117.95047 L41.68246,-117.46876 L42.79250,-118.86075 L43.97516,-120.22343 L45.26749,-119.74282 L45.27235,-117.93850 L45.20309,-116.15945 L46.56498,-115.62024 L47.73234,-116.96452 L48.97102,-118.27649 L50.24210,-117.74218 L50.17139,-115.93924 L50.02769,-114.16465 L51.36581,-113.56888 L52.58843,-114.86310 L53.88097,-116.12205 L55.12855,-115.53498 L54.98241,-113.73658 L54.76453,-111.96957 L56.07652,-111.31829 L57.35227,-112.56017 L58.69639,-113.76389 L59.91830,-113.12509 L59.69698,-111.33439 L59.40529,-109.57805 L60.68886,-108.87240 L62.01550,-110.05978 L63.40884,-111.20615 L64.60293,-110.51674 L64.30681,-108.73688 L63.94183,-106.99430 L65.19473,-106.23552 L66.56992,-107.36629 L68.01005,-108.45331 L69.17422,-107.71451 L68.80383,-105.94861 L68.36620,-104.22284 L69.58622,-103.41226 L71.00756,-104.48446 L72.49195,-105.51022 L73.62416,-104.72331 L73.18015,-102.97447 L72.67063,-101.26854 L73.85564,-100.40758 L75.32063,-101.41932 L76.84667,-102.38202 L77.94494,-101.54839 L77.42808,-99.81968 L76.84758,-98.13658 L77.99549,-97.22675 L79.50156,-98.17626 L81.06658,-99.07421 L82.12897,-98.19532 L81.54018,-96.48977 L80.88970,-94.83245 L81.99851,-93.87535 L83.54302,-94.76096 L85.14426,-95.59259 L86.16892,-94.66998 L85.50922,-92.99058 L84.78992,-91.36196 L85.85767,-90.35927 L87.43792,-91.17942 L89.07258,-91.94327 L90.05771,-90.97856 L89.32826,-89.32826 L88.54138,-87.73119 L89.56622,-86.68466 L91.17942,-87.43792 L92.84463,-88.13264 L93.78850,-87.12753 L92.99058,-85.50922 L92.13752,-83.94650 L93.11763,-82.85798 L94.76096,-83.54302 L96.45380,-84.16741 L97.35475,-83.12365 L96.48977,-81.54018 L95.57201,-80.01455 L96.50568,-78.88594 L98.17626,-79.50156 L99.89376,-80.05451 L100.75021,-78.97394 L99.81968,-77.42808 L98.83884,-75.94222 L99.72443,-74.77550 L101.41932,-75.32063 L103.15847,-75.80117 L103.96892,-74.68569 L102.97447,-73.18015 L101.93227,-71.73667 L102.76823,-70.53389 L104.48446,-71.00756 L106.24221,-71.41485 L107.00523,-70.26641 L105.94861,-68.80383 L104.84688,-67.40526 L105.63173,-66.16853 L107.36629,-66.56992 L109.13956,-66.90325 L109.85382,-65.72386 L108.73688,-64.30681 L107.57755,-62.95560 L108.30993,-61.68709 L110.05978,-62.01550 L111.84544,-62.27427 L112.50969,-61.06601 L111.33439,-59.69698 L110.11950,-58.39550 L110.79811,-57.09743 L112.56017,-57.35227 L114.35511,-57.53605 L114.96818,-56.30103 L113.73658,-54.98241 L112.46825,-53.73295 L113.09191,-52.40761 L114.86310,-52.58843 L116.66416,-52.69688 L117.22498,-51.43727 L115.93924,-50.17139 L114.61970,-48.97614 L115.18731,-47.62584 L116.96452,-47.73234 L118.76855,-47.76527 L119.27612,-46.48328 L117.93850,-45.27235 L116.57007,-44.13340 L117.08064,-42.76052 L118.86075,-42.79250 L120.66457,-42.74986 L121.11801,-41.44774 L119.73086,-40.29389 L118.31593,-39.21324 L118.76856,-37.82018 L120.54845,-37.77759 L122.34890,-37.65945 L122.74742,-36.33949 L121.31317,-35.24473 L119.85423,-34.22429 L120.24813,-32.81349 L122.02467,-32.69641 L123.81860,-32.50298 L124.16149,-31.16748 L122.68265,-30.13375 L121.18226,-29.17529 L121.51674,-27.74924 L123.28682,-27.55787 L125.07107,-27.28949 L125.35774,-25.94080 L123.83691,-24.96990 L122.29770,-24.07511 L122.57216,-22.63631 L124.33268,-22.37098 L126.10413,-22.02812 L126.33407,-20.66861 L124.77391,-19.76225 L123.19858,-18.93270 L123.41256,-17.48366 L125.16042,-17.14484 L126.91595,-16.72810 L127.08876,-15.36016 L125.49202,-14.51992 L123.88333,-13.75707 L124.03644,-12.30035 L125.76858,-11.88863 L127.50513,-11.39874 L127.62050,-10.02476 L125.98998,-9.25213 L124.35075,-8.55731 L124.44273,-7.09545 L126.15611,-6.61156 L127.87061,-6.04938 L127.92835,-4.67177 L126.26690,-3.96810 L124.60002,-3.34253z"
         style="stroke:#000000;stroke-width:0.26458333;fill:#000000;fill-opacity:1"
         id="path5134" />
    </g>
    <g
       id="g5152"
       inkscape:label="Gear30"
       transform="rotate(-6.0160568,24.011261,-1008.5288)"
       style="fill:#e3dedb">
      <path
         id="path5150"
         style="fill:#e3dedb;stroke:#000000;stroke-width:0.26458332"
         d="m 23.52813,-1.58499 0.16031,-0.0108 1.54278,0.27348 1.71186,0.70133 v 1.24196 l -1.71186,0.70133 -1.54278,0.27348 -0.16031,-0.0108 -0.18461,1.75643 0.15905,0.02276 1.45221,0.58827 1.52864,1.04192 -0.25822,1.21482 -1.82027,0.33009 -1.56592,-0.05326 -0.15456,-0.04389 -0.54576,1.67966 0.15084,0.05534 1.29817,0.87734 1.27861,1.33698 -0.50516,1.13458 -1.84912,-0.05558 -1.52063,-0.37766 -0.14206,-0.07507 -0.88305,1.52948 0.13604,0.08549 1.08739,1.12808 0.97269,1.57359 -0.73,1.00477 -1.79716,-0.43882 -1.40888,-0.68557 -0.12335,-0.10297 -1.18175,1.31247 0.1153,0.11191 0.82908,1.3295 0.62427,1.74145 -0.92296,0.83103 -1.66665,-0.80288 -1.23555,-0.96351 -0.09925,-0.12636 -1.4288,1.03808 0.08951,0.13343 0.53455,1.47283 0.24855,1.83318 -1.07556,0.62098 -1.46331,-1.13185 -1.00823,-1.19934 -0.0708,-0.14423 -1.61341,0.71833 0.05981,0.14913 0.21665,1.55178 -0.13801,1.8448 -1.18118,0.38379 -1.196,-1.41136 -0.73684,-1.38276 -0.03927,-0.1558 -1.7275,0.36719 0.0275,0.15831 L 3.95245,24.95478 3.4339,26.73057 2.19874,26.86039 1.32231,25.23122 0.88907,23.72548 0.88305,23.56492 h -1.7661 l -0.00602,0.16056 -0.43324,1.50574 -0.87643,1.62917 -1.23516,-0.12982 -0.51855,-1.77579 -0.11072,-1.56291 0.0275,-0.15831 -1.7275,-0.36719 -0.03927,0.1558 -0.73684,1.38276 -1.196,1.41136 -1.18118,-0.38379 -0.13801,-1.8448 0.21665,-1.55178 0.05981,-0.14913 -1.61341,-0.71833 -0.0708,0.14423 -1.00823,1.19934 -1.46331,1.13185 -1.07556,-0.62098 0.24855,-1.83318 0.53455,-1.47283 0.08951,-0.13343 -1.4288,-1.03808 -0.09925,0.12636 -1.23555,0.96351 -1.66665,0.80288 -0.92296,-0.83103 0.62427,-1.74145 0.82908,-1.3295 0.1153,-0.11191 -1.18175,-1.31247 -0.12335,0.10297 -1.40888,0.68557 -1.79716,0.43882 -0.73,-1.00477 0.97269,-1.57359 1.08739,-1.12808 0.13604,-0.08549 -0.88305,-1.52948 -0.14206,0.07507 -1.52063,0.37766 -1.84912,0.05558 -0.50516,-1.13458 1.27861,-1.33698 1.29817,-0.87734 0.15084,-0.05534 -0.54576,-1.67966 -0.15456,0.04389 -1.56592,0.05326 -1.82027,-0.33009 -0.25822,-1.21482 1.52864,-1.04192 1.45221,-0.58827 0.15905,-0.02276 -0.18461,-1.75643 -0.16031,0.0108 -1.54278,-0.27348 -1.71186,-0.70133 v -1.24196 l 1.71186,-0.70133 1.54278,-0.27348 0.16031,0.0108 0.18461,-1.75643 -0.15905,-0.02276 -1.45221,-0.58827 -1.52864,-1.04192 0.25822,-1.21482 1.82027,-0.33009 1.56592,0.05326 0.15456,0.04389 0.54576,-1.67966 -0.15084,-0.05534 -1.29817,-0.87734 -1.27861,-1.33698 0.50516,-1.13458 1.84912,0.05558 1.52063,0.37766 0.14206,0.07507 0.88305,-1.52948 -0.13604,-0.08549 -1.08739,-1.12808 -0.97269,-1.57359 0.73,-1.00477 1.79716,0.43882 1.40888,0.68557 0.12335,0.10297 1.18175,-1.31247 -0.1153,-0.11191 -0.82908,-1.3295 -0.62427,-1.74145 0.92296,-0.83103 1.66665,0.80288 1.23555,0.96351 0.09925,0.12636 1.4288,-1.03808 -0.08951,-0.13343 -0.53455,-1.47283 -0.24855,-1.83318 1.07556,-0.62098 1.46331,1.13185 1.00823,1.19934 0.0708,0.14423 1.61341,-0.71833 -0.05981,-0.14913 -0.21665,-1.55178 0.13801,-1.8448 1.18118,-0.38379 1.196,1.41136 0.73684,1.38276 0.03927,0.1558 1.7275,-0.36719 -0.0275,-0.15831 0.11072,-1.56291 0.51855,-1.77579 1.23516,-0.12982 0.87643,1.62917 0.43324,1.50574 0.00602,0.16056 h 1.7661 l 0.00602,-0.16056 0.43324,-1.50574 0.87643,-1.62917 1.23516,0.12982 0.51855,1.77579 0.11072,1.56291 -0.0275,0.15831 1.7275,0.36719 0.03927,-0.1558 0.73684,-1.38276 1.196,-1.41136 1.18118,0.38379 0.13801,1.8448 -0.21665,1.55178 -0.05981,0.14913 1.61341,0.71833 0.0708,-0.14423 1.00823,-1.19934 1.46331,-1.13185 1.07556,0.62098 -0.24855,1.83318 -0.53455,1.47283 -0.08951,0.13343 1.4288,1.03808 0.09925,-0.12636 1.23555,-0.96351 1.66665,-0.80288 0.92296,0.83103 -0.62427,1.74145 -0.82908,1.3295 -0.1153,0.11191 1.18175,1.31247 0.12335,-0.10297 1.40888,-0.68557 1.79716,-0.43882 0.73,1.00477 -0.97269,1.57359 -1.08739,1.12808 -0.13604,0.08549 0.88305,1.52948 0.14206,-0.07507 1.52063,-0.37766 1.84912,-0.05558 0.50516,1.13458 -1.27861,1.33698 -1.29817,0.87734 -0.15084,0.05534 0.54576,1.67966 0.15456,-0.04389 1.56592,-0.05326 1.82027,0.33009 0.25822,1.21482 -1.52864,1.04192 -1.45221,0.58827 -0.15905,0.02276 z"
         inkscape:connector-curvature="0" />
    </g>
  </g>
</svg>
