<?xml version="1.0" encoding="UTF-8" standalone="no"?>
<!-- Created with Inkscape (http://www.inkscape.org/) -->

<svg
   xmlns:dc="http://purl.org/dc/elements/1.1/"
   xmlns:cc="http://creativecommons.org/ns#"
   xmlns:rdf="http://www.w3.org/1999/02/22-rdf-syntax-ns#"
   xmlns:svg="http://www.w3.org/2000/svg"
   xmlns="http://www.w3.org/2000/svg"
   xmlns:sodipodi="http://sodipodi.sourceforge.net/DTD/sodipodi-0.dtd"
   xmlns:inkscape="http://www.inkscape.org/namespaces/inkscape"
   width="250mm"
   height="250mm"
   version="1.1"
   viewBox="0 0 500 500"
   id="watch"
   onload="start(evt)"
   inkscape:version="0.92.1 r15371"
   sodipodi:docname="poc.svg">
  <sodipodi:namedview
     id="base"
     pagecolor="#ffffff"
     bordercolor="#666666"
     borderopacity="1.0"
     inkscape:pageopacity="0.0"
     inkscape:pageshadow="2"
     inkscape:zoom="0.98994948"
     inkscape:cx="276.31824"
     inkscape:cy="533.8284"
     inkscape:document-units="mm"
     inkscape:current-layer="layer1"
     showgrid="false"
     inkscape:window-width="1855"
     inkscape:window-height="1056"
     inkscape:window-x="65"
     inkscape:window-y="24"
     inkscape:window-maximized="1"
     fit-margin-top="0"
     fit-margin-left="0"
     fit-margin-right="0"
     fit-margin-bottom="0" />
  <script
     type="text/ecmascript"
     id="animation">

    var TPI = 2 * Math.PI;
    var n = 6;
    var R = 126;
    var r = 25.5;
    var cX = 250;
    var cY = 250;
    var T = 150;
    var t = T / n;

    var primaryGear;
    var secondaryGear;
    var transmitter;
    var hourHand;

    function start(evt) {
      primaryGear = evt.target.ownerDocument.getElementById(&quot;primary_gear&quot;);
      secondaryGear = evt.target.ownerDocument.getElementById(&quot;secondary_gear&quot;);
      transmitter = evt.target.ownerDocument.getElementById(&quot;transmitter&quot;);
      hourHand = evt.target.ownerDocument.getElementById(&quot;hour_hand&quot;);
      animate();

      // Refresh every second.
      setInterval(animate, 100);
    }

    var counter = 0;
    function animate() {

      // Get computer clock time
      var date = new Date();

      var s = date.getSeconds() + date.getMilliseconds() / 1000;
      var thetaDegree = s / 60 * 360;
      var thetaRadian = (thetaDegree / 360) * TPI;
      var x = cX + (R + r) * Math.cos(thetaRadian - Math.PI / 2);
      var y = cY + (R + r) * Math.sin(thetaRadian - Math.PI / 2);

      // rotation of the second wheel + space between teeths
      var secondaryTheta = thetaDegree * n + (2 * 360 / t) + 1;
      secondaryGear.setAttribute(&quot;transform&quot;, &quot;translate(&quot; + x + &quot;,&quot; + y + &quot;) rotate( &quot; + secondaryTheta + &quot;)&quot;);

      hourHand.setAttribute(&quot;transform&quot;, &quot;translate(&quot; + x + &quot;,&quot; + y + &quot;) rotate( &quot; + secondaryTheta + &quot;)&quot;);

      transmitter.setAttribute(&quot;transform&quot;, &quot;rotate(&quot; + (thetaDegree + 1) + &quot;, &quot; + cX + &quot;,&quot; + cY + &quot;)&quot;);
    }

    window.animate = animate
  </script>
  <defs
     id="defs5123" />
  <metadata
     id="metadata5126">
    <rdf:RDF>
      <cc:Work
         rdf:about="">
        <dc:format>image/svg+xml</dc:format>
        <dc:type
           rdf:resource="http://purl.org/dc/dcmitype/StillImage" />
        <dc:title />
      </cc:Work>
    </rdf:RDF>
  </metadata>
  <g
     inkscape:label="Layer 1"
     inkscape:groupmode="layer"
     id="layer1">
    <g
       id="secondary_gear"
       inkscape:label="Secondary Gear"
       transform="rotate(0.735,-7548.9195,19341.042)"
       style="fill:#e3dedb">
      <path
         id="path5150"
         style="fill:#e3dedb;stroke:#000000;stroke-width:0.26458332"
         d="m 23.52813,-1.58499 0.16031,-0.0108 1.54278,0.27348 1.71186,0.70133 v 1.24196 l -1.71186,0.70133 -1.54278,0.27348 -0.16031,-0.0108 -0.18461,1.75643 0.15905,0.02276 1.45221,0.58827 1.52864,1.04192 -0.25822,1.21482 -1.82027,0.33009 -1.56592,-0.05326 -0.15456,-0.04389 -0.54576,1.67966 0.15084,0.05534 1.29817,0.87734 1.27861,1.33698 -0.50516,1.13458 -1.84912,-0.05558 -1.52063,-0.37766 -0.14206,-0.07507 -0.88305,1.52948 0.13604,0.08549 1.08739,1.12808 0.97269,1.57359 -0.73,1.00477 -1.79716,-0.43882 -1.40888,-0.68557 -0.12335,-0.10297 -1.18175,1.31247 0.1153,0.11191 0.82908,1.3295 0.62427,1.74145 -0.92296,0.83103 -1.66665,-0.80288 -1.23555,-0.96351 -0.09925,-0.12636 -1.4288,1.03808 0.08951,0.13343 0.53455,1.47283 0.24855,1.83318 -1.07556,0.62098 -1.46331,-1.13185 -1.00823,-1.19934 -0.0708,-0.14423 -1.61341,0.71833 0.05981,0.14913 0.21665,1.55178 -0.13801,1.8448 -1.18118,0.38379 -1.196,-1.41136 -0.73684,-1.38276 -0.03927,-0.1558 -1.7275,0.36719 0.0275,0.15831 L 3.95245,24.95478 3.4339,26.73057 2.19874,26.86039 1.32231,25.23122 0.88907,23.72548 0.88305,23.56492 h -1.7661 l -0.00602,0.16056 -0.43324,1.50574 -0.87643,1.62917 -1.23516,-0.12982 -0.51855,-1.77579 -0.11072,-1.56291 0.0275,-0.15831 -1.7275,-0.36719 -0.03927,0.1558 -0.73684,1.38276 -1.196,1.41136 -1.18118,-0.38379 -0.13801,-1.8448 0.21665,-1.55178 0.05981,-0.14913 -1.61341,-0.71833 -0.0708,0.14423 -1.00823,1.19934 -1.46331,1.13185 -1.07556,-0.62098 0.24855,-1.83318 0.53455,-1.47283 0.08951,-0.13343 -1.4288,-1.03808 -0.09925,0.12636 -1.23555,0.96351 -1.66665,0.80288 -0.92296,-0.83103 0.62427,-1.74145 0.82908,-1.3295 0.1153,-0.11191 -1.18175,-1.31247 -0.12335,0.10297 -1.40888,0.68557 -1.79716,0.43882 -0.73,-1.00477 0.97269,-1.57359 1.08739,-1.12808 0.13604,-0.08549 -0.88305,-1.52948 -0.14206,0.07507 -1.52063,0.37766 -1.84912,0.05558 -0.50516,-1.13458 1.27861,-1.33698 1.29817,-0.87734 0.15084,-0.05534 -0.54576,-1.67966 -0.15456,0.04389 -1.56592,0.05326 -1.82027,-0.33009 -0.25822,-1.21482 1.52864,-1.04192 1.45221,-0.58827 0.15905,-0.02276 -0.18461,-1.75643 -0.16031,0.0108 -1.54278,-0.27348 -1.71186,-0.70133 v -1.24196 l 1.71186,-0.70133 1.54278,-0.27348 0.16031,0.0108 0.18461,-1.75643 -0.15905,-0.02276 -1.45221,-0.58827 -1.52864,-1.04192 0.25822,-1.21482 1.82027,-0.33009 1.56592,0.05326 0.15456,0.04389 0.54576,-1.67966 -0.15084,-0.05534 -1.29817,-0.87734 -1.27861,-1.33698 0.50516,-1.13458 1.84912,0.05558 1.52063,0.37766 0.14206,0.07507 0.88305,-1.52948 -0.13604,-0.08549 -1.08739,-1.12808 -0.97269,-1.57359 0.73,-1.00477 1.79716,0.43882 1.40888,0.68557 0.12335,0.10297 1.18175,-1.31247 -0.1153,-0.11191 -0.82908,-1.3295 -0.62427,-1.74145 0.92296,-0.83103 1.66665,0.80288 1.23555,0.96351 0.09925,0.12636 1.4288,-1.03808 -0.08951,-0.13343 -0.53455,-1.47283 -0.24855,-1.83318 1.07556,-0.62098 1.46331,1.13185 1.00823,1.19934 0.0708,0.14423 1.61341,-0.71833 -0.05981,-0.14913 -0.21665,-1.55178 0.13801,-1.8448 1.18118,-0.38379 1.196,1.41136 0.73684,1.38276 0.03927,0.1558 1.7275,-0.36719 -0.0275,-0.15831 0.11072,-1.56291 0.51855,-1.77579 1.23516,-0.12982 0.87643,1.62917 0.43324,1.50574 0.00602,0.16056 h 1.7661 l 0.00602,-0.16056 0.43324,-1.50574 0.87643,-1.62917 1.23516,0.12982 0.51855,1.77579 0.11072,1.56291 -0.0275,0.15831 1.7275,0.36719 0.03927,-0.1558 0.73684,-1.38276 1.196,-1.41136 1.18118,0.38379 0.13801,1.8448 -0.21665,1.55178 -0.05981,0.14913 1.61341,0.71833 0.0708,-0.14423 1.00823,-1.19934 1.46331,-1.13185 1.07556,0.62098 -0.24855,1.83318 -0.53455,1.47283 -0.08951,0.13343 1.4288,1.03808 0.09925,-0.12636 1.23555,-0.96351 1.66665,-0.80288 0.92296,0.83103 -0.62427,1.74145 -0.82908,1.3295 -0.1153,0.11191 1.18175,1.31247 0.12335,-0.10297 1.40888,-0.68557 1.79716,-0.43882 0.73,1.00477 -0.97269,1.57359 -1.08739,1.12808 -0.13604,0.08549 0.88305,1.52948 0.14206,-0.07507 1.52063,-0.37766 1.84912,-0.05558 0.50516,1.13458 -1.27861,1.33698 -1.29817,0.87734 -0.15084,0.05534 0.54576,1.67966 0.15456,-0.04389 1.56592,-0.05326 1.82027,0.33009 0.25822,1.21482 -1.52864,1.04192 -1.45221,0.58827 -0.15905,0.02276 z"
         inkscape:connector-curvature="0" />
    </g>
    <g
       id="g5402">
      <path
         inkscape:connector-curvature="0"
         style="fill:#000000;fill-opacity:1;stroke:#000000;stroke-width:0.26458332"
         d="m 248.00863,122.00186 -1.37873,0.0289 -0.59789,1.70222 -0.51987,1.70274 -1.46347,0.0615 -0.66043,-1.65313 -0.73794,-1.64641 -1.37614,0.0863 -0.52607,1.72599 -0.44803,1.72341 -1.45986,0.12247 -0.72864,-1.6247 -0.80667,-1.61386 -1.37149,0.14418 -0.4532,1.74666 -0.37569,1.73995 -1.45314,0.18397 -0.79634,-1.59267 -0.87333,-1.57872 -1.36425,0.20154 -0.37983,1.76372 -0.30179,1.75493 -1.44435,0.24391 -0.86248,-1.55753 -0.93896,-1.54099 -1.35444,0.25838 -0.30541,1.77819 -0.22841,1.76579 -1.43299,0.30488 -0.92656,-1.52031 -1.00252,-1.50017 -1.34255,0.31471 -0.231,1.78955 -0.15399,1.77354 -1.41904,0.36432 -0.9896,-1.48002 -1.06454,-1.45676 -1.32808,0.37104 -0.15555,1.79731 -0.0801,1.7787 -1.40197,0.42323 -1.0511,-1.43712 -1.12448,-1.41077 -1.31103,0.42582 -0.0806,1.80247 -0.005,1.78025 -1.38338,0.48214 -1.11001,-1.39216 -1.18287,-1.36271 -1.29191,0.48059 -0.005,1.80455 0.0693,1.7787 -1.36168,0.5395 -1.16737,-1.34462 -1.23868,-1.31155 -1.27124,0.53434 0.0708,1.80247 0.14366,1.77457 -1.3379,0.59583 -1.22266,-1.29398 -1.29295,-1.25884 -1.24747,0.58704 0.14625,1.79835 0.21807,1.76681 -1.31206,0.65113 -1.27589,-1.24179 -1.34411,-1.20354 -1.22215,0.63872 0.2217,1.79059 0.29145,1.75648 -1.28364,0.7059 -1.32653,-1.18753 -1.3932,-1.1467 -1.19424,0.68988 0.2961,1.77974 0.36484,1.74253 -1.25264,0.75861 -1.37511,-1.13068 -1.44022,-1.08676 -1.16427,0.73846 0.37052,1.76578 0.4377,1.726 -1.22008,0.8108 -1.42162,-1.07229 -1.48415,-1.02577 -1.13223,0.78703 0.4439,1.74873 0.50953,1.70584 -1.18494,0.86093 -1.46503,-1.01183 -1.526,-0.96273 -1.09813,0.83354 0.51677,1.7291 0.58032,1.6831 -1.14773,0.9095 -1.50585,-0.94929 -1.56528,-0.89814 -1.06246,0.87902 0.58911,1.70532 0.65008,1.65778 -1.10845,0.95704 -1.54461,-0.88573 -1.60146,-0.83147 -1.02474,0.92242 0.65991,1.67949 0.71934,1.62832 -1.06764,1.00304 -1.58027,-0.8201 -1.63504,-0.7643 -0.98495,0.9648 0.72967,1.65054 0.78652,1.59681 -1.02475,1.04644 -1.61282,-0.75292 -1.66553,-0.69505 -0.94361,1.00511 0.79788,1.6185 0.85266,1.5627 -0.97978,1.08882 -1.64331,-0.68523 -1.69292,-0.62425 -0.90072,1.04335 0.86454,1.58388 0.91778,1.52549 -0.93328,1.12861 -1.6707,-0.61546 -1.71772,-0.55294 -0.85628,1.08055 0.93069,1.54564 0.98082,1.4857 -0.88573,1.16685 -1.69499,-0.54518 -1.73891,-0.48059 -0.81081,1.11569 0.99478,1.50534 1.04179,1.44383 -0.83561,1.20252 -1.71617,-0.47336 -1.75803,-0.40773 -0.76275,1.14877 1.05627,1.46244 1.10174,1.39837 -0.78445,1.23713 -1.73478,-0.40152 -1.77301,-0.33332 -0.71469,1.17926 1.11725,1.41697 1.1591,1.35133 -0.73226,1.26866 -1.74976,-0.32866 -1.78594,-0.2589 -0.66404,1.20871 1.17512,1.36891 1.21491,1.30121 -0.67851,1.29812 -1.76216,-0.25477 -1.79472,-0.18397 -0.6134,1.23507 1.23196,1.31878 1.26814,1.24954 -0.62373,1.3255 -1.77095,-0.18087 -1.80093,-0.10852 -0.5612,1.25936 1.28571,1.26607 1.31981,1.19527 -0.56792,1.35031 -1.77715,-0.10646 -1.80403,-0.0331 -0.50746,1.2821 1.3379,1.21077 1.36839,1.13895 -0.51056,1.37304 -1.78025,-0.032 -1.80403,0.0424 -0.4532,1.30225 1.387,1.15393 1.41489,1.08055 -0.45268,1.3932 -1.77974,0.0424 -1.8004,0.11834 -0.39843,1.31981 1.43402,1.09502 1.45883,1.0201 -0.39378,1.41128 -1.77663,0.11679 -1.79369,0.19327 -0.34313,1.33583 1.47898,1.03353 1.50016,0.9586 -0.33434,1.42575 -1.76992,0.19172 -1.78439,0.2682 -0.2868,1.34876 1.52084,0.971 1.53944,0.89452 -0.2744,1.43919 -1.76062,0.2651 -1.77147,0.34313 -0.22996,1.35909 1.56011,0.9064 1.57562,0.82993 -0.21394,1.449 -1.74822,0.33848 -1.75545,0.41703 -0.17259,1.36788 1.5968,0.84026 1.60868,0.76274 -0.15348,1.45676 -1.73219,0.41186 -1.73633,0.48989 -0.11524,1.37356 1.6304,0.77308 1.63917,0.69453 -0.092,1.46193 -1.71359,0.48369 -1.71411,0.56224 -0.0579,1.37769 1.6614,0.70384 1.66708,0.62528 -0.031,1.46451 -1.69137,0.55552 -1.68931,0.63304 v 1.37924 l 1.68931,0.63304 1.69137,0.55552 0.031,1.46451 -1.66708,0.62529 -1.6614,0.70383 0.0579,1.37769 1.71411,0.56224 1.71359,0.4837 0.092,1.46192 -1.63917,0.69453 -1.6304,0.77308 0.11524,1.37356 1.73633,0.48989 1.73219,0.41186 0.15348,1.45676 -1.60868,0.76275 -1.5968,0.84024 0.17259,1.3679 1.75545,0.41701 1.74822,0.33848 0.21394,1.44955 -1.57562,0.82939 -1.56011,0.90641 0.22996,1.35961 1.77147,0.34261 1.76062,0.26509 0.2744,1.4392 -1.53944,0.89453 -1.52084,0.97099 0.2868,1.34874 1.78439,0.26821 1.76992,0.19172 0.33434,1.42576 -1.50016,0.95858 -1.47898,1.03354 0.34313,1.33583 1.79369,0.19328 1.77663,0.11729 0.39378,1.41078 -1.45883,1.02008 -1.43402,1.09503 0.39843,1.31982 1.8004,0.11835 1.77974,0.0424 0.45268,1.39319 -1.41489,1.08056 -1.387,1.15395 0.4532,1.30223 1.80403,0.0424 1.78025,-0.032 0.51056,1.37303 -1.36839,1.13895 -1.3379,1.21079 0.50746,1.28209 1.80403,-0.0331 1.77715,-0.10644 0.56792,1.3503 -1.31981,1.19528 -1.28571,1.26606 0.5612,1.25936 1.80093,-0.10853 1.77095,-0.18087 0.62373,1.32551 -1.26814,1.24955 -1.23196,1.31876 0.6134,1.23507 1.79472,-0.18396 1.76216,-0.25477 0.67851,1.2981 -1.21491,1.30122 -1.17512,1.3689 0.66404,1.20873 1.78594,-0.2589 1.74976,-0.32866 0.73226,1.26865 -1.1591,1.35133 -1.11725,1.41697 0.71469,1.17925 1.77301,-0.33329 1.73478,-0.40153 0.78445,1.23713 -1.10174,1.39835 -1.05627,1.46246 0.76275,1.14877 1.75803,-0.40722 1.71617,-0.47387 0.83561,1.2025 -1.04179,1.44386 -0.99478,1.50532 0.81081,1.1157 1.73891,-0.48059 1.69499,-0.5452 0.88573,1.16686 -0.98082,1.48569 -0.93069,1.54565 0.85628,1.08055 1.71772,-0.55292 1.6707,-0.61548 0.93328,1.12861 -0.91778,1.52551 -0.86454,1.58387 0.90072,1.04333 1.69292,-0.62423 1.64331,-0.68471 0.97978,1.08831 -0.85266,1.56268 -0.79788,1.61851 0.94361,1.0051 1.66553,-0.69503 1.61282,-0.75293 1.02475,1.04643 -0.78652,1.59681 -0.72967,1.65055 0.98495,0.9648 1.63504,-0.7643 1.58027,-0.8201 1.06764,1.00304 -0.71934,1.62832 -0.65991,1.6795 1.02474,0.92241 1.60146,-0.83148 1.54461,-0.88574 1.10845,0.95758 -0.65008,1.65727 -0.58911,1.70532 1.06246,0.879 1.56528,-0.89813 1.50585,-0.9493 1.14773,0.9095 -0.58032,1.6831 -0.51677,1.7291 1.09813,0.83355 1.526,-0.96274 1.46503,-1.01182 1.18494,0.86093 -0.50953,1.70584 -0.4439,1.74924 1.13223,0.78653 1.48415,-1.02579 1.42162,-1.07228 1.22008,0.81079 -0.4377,1.72601 -0.37052,1.76578 1.16427,0.73845 1.44022,-1.08675 1.37511,-1.1307 1.25264,0.75862 -0.36484,1.74254 -0.2961,1.77972 1.19424,0.6899 1.3932,-1.1467 1.32653,-1.18753 1.28364,0.70591 -0.29145,1.75646 -0.2217,1.7906 1.22215,0.63873 1.34411,-1.20357 1.27589,-1.24177 1.31206,0.65112 -0.21807,1.76683 -0.14625,1.79832 1.24747,0.58706 1.29295,-1.25884 1.22266,-1.29399 1.3379,0.59584 -0.14366,1.77456 -0.0708,1.803 1.27124,0.53433 1.23868,-1.31207 1.16737,-1.34461 1.36168,0.53951 -0.0693,1.77869 0.005,1.80453 1.29191,0.48059 1.18287,-1.36271 1.11001,-1.39215 1.38338,0.48215 0.005,1.78024 0.0806,1.80248 1.31103,0.42632 1.12448,-1.41129 1.0511,-1.43711 1.40197,0.42323 0.0801,1.77872 0.15555,1.79728 1.32808,0.37106 1.06454,-1.45677 0.9896,-1.48 1.41904,0.3643 0.15399,1.77356 0.231,1.78953 1.34255,0.31472 1.00252,-1.50016 0.92656,-1.52032 1.43299,0.30488 0.22841,1.76578 0.30541,1.77818 1.35444,0.25839 0.93896,-1.54098 0.86248,-1.55753 1.44435,0.2439 0.30179,1.75495 0.37983,1.76371 1.36425,0.20154 0.87333,-1.57872 0.79634,-1.59266 1.45314,0.18397 0.37569,1.73992 0.4532,1.74668 1.37149,0.14417 0.80667,-1.61385 0.72864,-1.6247 1.45986,0.12297 0.44803,1.72292 0.52607,1.72598 1.37614,0.0863 0.73794,-1.6459 0.66043,-1.65364 1.46347,0.0615 0.51987,1.70272 0.59789,1.70223 1.37873,0.0289 0.66869,-1.67587 0.59015,-1.67947 h 1.46503 l 0.59014,1.67947 0.66921,1.67587 1.37821,-0.0289 0.5979,-1.70223 0.51986,-1.70272 1.46348,-0.0615 0.66042,1.65364 0.73794,1.6459 1.37615,-0.0863 0.52606,-1.72598 0.44804,-1.72292 1.45986,-0.12297 0.72863,1.6247 0.80667,1.61385 1.3715,-0.14417 0.4532,-1.74668 0.37569,-1.73992 1.45314,-0.18397 0.79632,1.59266 0.87334,1.57872 1.36427,-0.20154 0.37981,-1.76371 0.30178,-1.75495 1.44436,-0.2439 0.86249,1.55753 0.93895,1.54098 1.35446,-0.25839 0.30541,-1.77818 0.22839,-1.76578 1.433,-0.30488 0.92655,1.52032 1.00253,1.50016 1.34255,-0.31472 0.23098,-1.78953 0.15402,-1.77356 1.41904,-0.3643 0.98959,1.48 1.06452,1.45677 1.32811,-0.37106 0.15552,-1.79728 0.0801,-1.77872 1.40197,-0.42323 1.05111,1.43711 1.12448,1.41129 1.31101,-0.42632 0.0806,-1.80248 0.005,-1.78024 1.38337,-0.48215 1.11001,1.39215 1.18287,1.36271 1.29191,-0.48059 0.005,-1.80453 -0.0692,-1.77869 1.36167,-0.53951 1.16737,1.34461 1.2387,1.31207 1.27122,-0.53433 -0.0708,-1.803 -0.14367,-1.77456 1.33842,-0.59584 1.22214,1.29399 1.29294,1.25884 1.24749,-0.58706 -0.14624,-1.79832 -0.2181,-1.76683 1.31207,-0.65112 1.2759,1.24177 1.34411,1.20357 1.22214,-0.63873 -0.22169,-1.7906 -0.29147,-1.75646 1.28365,-0.70591 1.32654,1.18753 1.39319,1.1467 1.19425,-0.6899 -0.29612,-1.77972 -0.36483,-1.74254 1.25264,-0.75862 1.37512,1.1307 1.44021,1.08675 1.16427,-0.73845 -0.37052,-1.76578 -0.4377,-1.72601 1.2201,-0.81079 1.4216,1.07228 1.48416,1.02579 1.13223,-0.78653 -0.44389,-1.74924 -0.50954,-1.70584 1.18494,-0.86093 1.46502,1.01182 1.52601,0.96274 1.09813,-0.83355 -0.51678,-1.7291 -0.58031,-1.6831 1.14773,-0.9095 1.50635,0.9493 1.56478,0.89813 1.06246,-0.879 -0.5891,-1.70532 -0.65011,-1.65727 1.10848,-0.95758 1.54461,0.88574 1.60144,0.83148 1.02473,-0.92241 -0.6599,-1.6795 -0.71932,-1.62832 1.06762,-1.00304 1.58028,0.8201 1.63504,0.7643 0.98494,-0.9648 -0.72967,-1.65055 -0.78652,-1.59681 1.02476,-1.04643 1.61332,0.75293 1.66502,0.69503 0.94361,-1.0051 -0.79788,-1.61851 -0.85267,-1.56268 0.97981,-1.08831 1.6433,0.68471 1.69291,0.62423 0.90125,-1.04333 -0.86506,-1.58387 -0.91778,-1.52551 0.93329,-1.12861 1.67068,0.61548 1.71773,0.55292 0.85627,-1.08055 -0.9307,-1.54565 -0.98081,-1.48569 0.88575,-1.16686 1.69497,0.5452 1.73892,0.48059 0.81079,-1.1157 -0.99475,-1.50532 -1.0418,-1.44386 0.83561,-1.2025 1.71616,0.47387 1.75803,0.40722 0.76274,-1.14877 -1.05624,-1.46246 -1.10176,-1.39835 0.78444,-1.23713 1.73479,0.40153 1.77353,0.33329 0.71417,-1.17925 -1.11723,-1.41697 -1.15912,-1.35133 0.73226,-1.26865 1.74977,0.32866 1.78594,0.2589 0.66403,-1.20873 -1.17512,-1.3689 -1.21492,-1.30122 0.67853,-1.2981 1.76215,0.25477 1.79472,0.18396 0.61341,-1.23507 -1.23195,-1.31876 -1.26815,-1.24955 0.62373,-1.32551 1.77096,0.18087 1.80144,0.10853 0.56068,-1.25936 -1.28572,-1.26606 -1.31982,-1.19528 0.56793,-1.3503 1.77715,0.10644 1.80404,0.0331 0.50747,-1.28209 -1.33739,-1.21079 -1.36893,-1.13895 0.51057,-1.37303 1.78025,0.032 1.80403,-0.0424 0.45321,-1.30223 -1.387,-1.15395 -1.41491,-1.08056 0.4527,-1.39319 1.77972,-0.0424 1.80041,-0.11835 0.39843,-1.31982 -1.43401,-1.09503 -1.45883,-1.02008 0.39378,-1.41078 1.77662,-0.11729 1.79369,-0.19328 0.34314,-1.33583 -1.47897,-1.03354 -1.50019,-0.95858 0.33436,-1.42576 1.76993,-0.19172 1.78437,-0.26821 0.28681,-1.34874 -1.52085,-0.97099 -1.53943,-0.89453 0.2744,-1.4392 1.76062,-0.26509 1.77147,-0.34261 0.22994,-1.35961 -1.56008,-0.90641 -1.57562,-0.82939 0.21394,-1.44955 1.74821,-0.33848 1.75545,-0.41701 0.17259,-1.3679 -1.59681,-0.84024 -1.60867,-0.76275 0.15346,-1.45676 1.7322,-0.41186 1.73633,-0.48989 0.11525,-1.37356 -1.63039,-0.77308 -1.6392,-0.69453 0.092,-1.46192 1.7136,-0.4837 1.7141,-0.56224 0.0579,-1.37769 -1.6614,-0.70383 -1.66709,-0.62529 0.031,-1.46451 1.69137,-0.55552 1.68932,-0.63304 v -1.37924 l -1.68932,-0.63304 -1.69137,-0.55552 -0.031,-1.46451 1.66709,-0.62528 1.6614,-0.70384 -0.0579,-1.37769 -1.7141,-0.56224 -1.7136,-0.48369 -0.092,-1.46193 1.6392,-0.69453 1.63039,-0.77308 -0.11525,-1.37356 -1.73633,-0.48989 -1.7322,-0.41186 -0.15346,-1.45676 1.60867,-0.76274 1.59681,-0.84026 -0.17259,-1.36788 -1.75545,-0.41703 -1.74821,-0.33848 -0.21394,-1.449 1.57562,-0.82993 1.56008,-0.9064 -0.22994,-1.35909 -1.77147,-0.34313 -1.76062,-0.2651 -0.2744,-1.43919 1.53943,-0.89452 1.52085,-0.971 -0.28681,-1.34876 -1.78437,-0.2682 -1.76993,-0.19172 -0.33436,-1.42575 1.50019,-0.9586 1.47897,-1.03353 -0.34314,-1.33583 -1.79369,-0.19327 -1.77662,-0.11679 -0.39378,-1.41128 1.45883,-1.0201 1.43401,-1.09502 -0.39843,-1.31981 -1.80041,-0.11834 -1.77972,-0.0424 -0.4527,-1.3932 1.41491,-1.08055 1.387,-1.15393 -0.45321,-1.30225 -1.80403,-0.0424 -1.78025,0.032 -0.51057,-1.37304 1.36893,-1.13895 1.33739,-1.21077 -0.50747,-1.2821 -1.80404,0.0331 -1.77715,0.10646 -0.56793,-1.35031 1.31982,-1.19527 1.28572,-1.26607 -0.56068,-1.25936 -1.80144,0.10852 -1.77096,0.18087 -0.62373,-1.3255 1.26815,-1.24954 1.23195,-1.31878 -0.61341,-1.23507 -1.79472,0.18397 -1.76215,0.25477 -0.67853,-1.29812 1.21492,-1.30121 1.17512,-1.36891 -0.66403,-1.20871 -1.78594,0.2589 -1.74977,0.32866 -0.73226,-1.26866 1.15912,-1.35133 1.11723,-1.41697 -0.71417,-1.17926 -1.77353,0.33332 -1.73479,0.40152 -0.78444,-1.23713 1.10176,-1.39837 1.05624,-1.46244 -0.76274,-1.14877 -1.75803,0.40773 -1.71616,0.47336 -0.83561,-1.20252 1.0418,-1.44383 0.99475,-1.50534 -0.81079,-1.11569 -1.73892,0.48059 -1.69497,0.54518 -0.88575,-1.16685 0.98081,-1.4857 0.9307,-1.54564 -0.85627,-1.08055 -1.71773,0.55294 -1.67068,0.61546 -0.93329,-1.12861 0.91778,-1.52549 0.86506,-1.58388 -0.90125,-1.04335 -1.69291,0.62425 -1.6433,0.68523 -0.97981,-1.08882 0.85267,-1.5627 0.79788,-1.6185 -0.94361,-1.00511 -1.66502,0.69505 -1.61332,0.75292 -1.02476,-1.04644 0.78652,-1.59681 0.72967,-1.65054 -0.98494,-0.9648 -1.63504,0.7643 -1.58028,0.8201 -1.06762,-1.00304 0.71932,-1.62832 0.6599,-1.67949 -1.02473,-0.92242 -1.60144,0.83147 -1.54461,0.88573 -1.10848,-0.95704 0.65011,-1.65778 0.5891,-1.70532 -1.06246,-0.87902 -1.56478,0.89814 -1.50635,0.94929 -1.14773,-0.9095 0.58031,-1.6831 0.51678,-1.7291 -1.09813,-0.83354 -1.52601,0.96273 -1.46502,1.01183 -1.18494,-0.86093 0.50954,-1.70584 0.44389,-1.74873 -1.13223,-0.78703 -1.48416,1.02577 -1.4216,1.07229 -1.2201,-0.8108 0.4377,-1.726 0.37052,-1.76578 -1.16427,-0.73846 -1.44021,1.08676 -1.37512,1.13068 -1.25264,-0.75861 0.36483,-1.74253 0.29612,-1.77974 -1.19425,-0.68988 -1.39319,1.1467 -1.32654,1.18753 -1.28365,-0.7059 0.29147,-1.75648 0.22169,-1.79059 -1.22214,-0.63872 -1.34411,1.20354 -1.2759,1.24179 -1.31207,-0.65113 0.2181,-1.76681 0.14624,-1.79835 -1.24749,-0.58704 -1.29294,1.25884 -1.22214,1.29398 -1.33842,-0.59583 0.14367,-1.77457 0.0708,-1.80247 -1.27122,-0.53434 -1.2387,1.31155 -1.16737,1.34462 -1.36167,-0.5395 0.0692,-1.7787 -0.005,-1.80455 -1.29191,-0.48059 -1.18287,1.36271 -1.11001,1.39216 -1.38337,-0.48214 -0.005,-1.78025 -0.0806,-1.80247 -1.31101,-0.42582 -1.12448,1.41077 -1.05111,1.43712 -1.40197,-0.42323 -0.0801,-1.7787 -0.15552,-1.79731 -1.32811,-0.37104 -1.06452,1.45676 -0.98959,1.48002 -1.41904,-0.36432 -0.15402,-1.77354 -0.23098,-1.78955 -1.34255,-0.31471 -1.00253,1.50017 -0.92655,1.52031 -1.433,-0.30488 -0.22839,-1.76579 -0.30541,-1.77819 -1.35446,-0.25838 -0.93895,1.54099 -0.86249,1.55753 -1.44436,-0.24391 -0.30178,-1.75493 -0.37981,-1.76372 -1.36427,-0.20154 -0.87334,1.57872 -0.79632,1.59267 -1.45314,-0.18397 -0.37569,-1.73995 -0.4532,-1.74666 -1.3715,-0.14418 -0.80667,1.61386 -0.72863,1.6247 -1.45986,-0.12247 -0.44804,-1.72341 -0.52606,-1.72599 -1.37615,-0.0863 -0.73794,1.64641 -0.66042,1.65313 -1.46348,-0.0615 -0.51986,-1.70274 -0.5979,-1.70222 -1.37821,-0.0289 -0.66921,1.67586 -0.59014,1.67949 h -1.46503 l -0.59015,-1.67949 z m 1.99161,10.49806 A 117.5,117.5 0 0 1 367.50005,250.00024 117.5,117.5 0 0 1 250.00024,367.50005 117.5,117.5 0 0 1 132.49992,250.00024 117.5,117.5 0 0 1 250.00024,132.49992 Z"
         id="path5134" />
      <rect
         y="127.96599"
         x="245.99048"
         height="244.06799"
         width="8.0190105"
         id="rect4487"
         style="fill:#000000;fill-opacity:1;stroke:none;stroke-width:0.30537871" />
      <rect
         transform="rotate(-90)"
         y="127.96599"
         x="-254.00949"
         height="244.06799"
         width="8.0190105"
         id="rect4487-3"
         style="fill:#000000;fill-opacity:1;stroke:none;stroke-width:0.30537871" />
      <circle
         r="34.773811"
         cy="249.99998"
         cx="249.99998"
         id="path4504"
         style="fill:#000000;fill-opacity:1;stroke:none;stroke-width:0.26458332" />
    </g>
    <g
       id="transmitter"
       inkscape:label="transmitter">
      <circle
         r="25"
         cy="250.00002"
         cx="250"
         id="path5412"
         style="fill:#dbe36d;fill-opacity:1;stroke:none;stroke-width:0.34653461" />
      <path
         id="path5412-9"
         transform="scale(0.26458333)"
         d="M 851.25781 808.39453 A 94.488188 94.488188 0 0 0 945.71484 902.25391 A 94.488188 94.488188 0 0 0 1040.1816 808.39453 L 1030.7227 808.39453 A 85.039369 85.039369 0 0 1 945.71484 892.80469 A 85.039369 85.039369 0 0 1 860.69727 808.39453 L 851.25781 808.39453 z "
         style="fill:#dbe36d;fill-opacity:1;stroke:none;stroke-width:1.30973709" />
      <path
         inkscape:connector-curvature="0"
         id="path5522"
         d="m 225.22862,213.88771 4.76871,-115.886976 h 2.5063 l -4.77748,115.886976 z"
         style="fill:#dbe36d;fill-rule:evenodd;stroke:none;stroke-width:0.26458332px;stroke-linecap:butt;stroke-linejoin:miter;stroke-opacity:1;fill-opacity:1" />
      <path
         inkscape:connector-curvature="0"
         id="path5524"
         d="M 275.21471,213.88771 264.96108,98.000734 h -2.4939 l 10.24486,115.886976 z"
         style="fill:#dbe36d;fill-rule:evenodd;stroke:none;stroke-width:0.26458332px;stroke-linecap:butt;stroke-linejoin:miter;stroke-opacity:1;fill-opacity:1" />
      <path
         id="path5526"
         transform="scale(0.26458333)"
         d="M 934.59961 308.05469 A 66.141732 66.141732 0 0 0 868.45703 374.19727 A 66.141732 66.141732 0 0 0 934.59961 440.33789 A 66.141732 66.141732 0 0 0 1000.7402 374.19727 A 66.141732 66.141732 0 0 0 934.59961 308.05469 z M 934.59961 317.50391 A 56.692913 56.692913 0 0 1 991.29297 374.19727 A 56.692913 56.692913 0 0 1 934.59961 430.88867 A 56.692913 56.692913 0 0 1 877.90625 374.19727 A 56.692913 56.692913 0 0 1 934.59961 317.50391 z "
         style="fill:#dbe36d;fill-opacity:1;stroke:none;stroke-width:1.02863574" />
    </g>
    <g
       transform="translate(247.01288,95.489127)"
       id="hour_hand">
      <g
         id="g4511">
        <circle
           cy="0"
           cx="0"
           style="fill:#8800aa;fill-opacity:1;stroke:none;stroke-width:0.54243803"
           id="path4496"
           r="6" />
        <circle
           cx="0"
           style="fill:#8800aa;fill-opacity:1;stroke:none;stroke-width:1.08487606"
           id="path4496-3"
           cy="-30"
           r="10" />
        <rect
           style="fill:#8800aa;fill-opacity:1;stroke:none;stroke-width:0.52916664"
           id="rect4513"
           width="6"
           height="20"
           x="-3"
           y="-25" />
        <path
           inkscape:connector-curvature="0"
           d="M -4.4664662,-37.260354 H 4.4664662 L -1.6e-6,-64.777115 Z"
           style="fill:#8800aa;fill-opacity:1;stroke:none;stroke-width:0.33694607"
           inkscape:label="Triangle"
           id="path4535" />
      </g>
    </g>
    <path
       id="path6079"
       d="m 382.82345,250.00001 c 0,-2.48378 1.05943,-4.9653 3.09159,-7.01314 2.03215,-2.04784 5.03529,-3.65782 8.76255,-4.46497 3.72726,-0.80715 8.17539,-0.80825 12.97502,0.23883 4.79962,1.04708 9.94651,3.14411 15.00509,6.3728 5.05859,3.22869 10.02432,7.58906 14.46188,12.98919 4.43755,5.40014 8.34273,11.83832 11.34699,19.06224 3.00425,7.22394 5.10436,15.2304 6.05487,23.64439 0.95051,8.41399 0.74966,17.2313 -0.68724,26.01057 -1.43691,8.77928 -4.10987,17.51596 -7.92966,25.76882 -3.81978,8.25285 -8.78466,16.01767 -14.64466,22.91984 -5.85999,6.90216 -12.61187,12.93844 -19.88263,17.85721 -7.27075,4.91876 -15.05618,8.71826 -22.91652,11.30747 -7.86033,2.58921 -15.79105,3.96813 -23.35216,4.21964 -7.56111,0.2515 -14.74842,-0.62265 -21.18821,-2.37896 -6.4398,-1.7563 -12.12884,-4.39153 -16.81605,-7.53913 -4.6872,-3.14762 -8.37083,-6.80337 -10.96004,-10.53406 -2.58921,-3.7307 -4.084,-7.53175 -4.56707,-10.96971 -0.48307,-3.43795 0.0439,-6.50861 1.33779,-8.84472 1.29393,-2.33609 3.35165,-3.93443 5.80751,-4.55033 2.45585,-0.61592 5.30566,-0.24764 8.11741,1.18925 2.81176,1.43691 5.58091,3.94244 7.87565,7.42763 2.29472,3.48519 4.1108,7.94829 5.08296,13.14013 0.97217,5.19184 1.09721,11.10921 0.13276,17.38038 -0.96444,6.27115 -3.02011,12.8919 -6.2488,19.42434 -3.22869,6.53245 -7.63041,12.97202 -13.11319,18.88112 -5.48278,5.90909 -12.04488,11.2835 -19.43382,15.75234 -7.38897,4.46883 -15.60153,8.0289 -24.26241,10.43244 -8.66087,2.40353 -17.76583,3.6488 -26.87306,3.6488 -9.10724,0 -18.2122,-1.24527 -26.87308,-3.6488 -8.66086,-2.40354 -16.87344,-5.96361 -24.26238,-10.43244 -7.38896,-4.46884 -13.95106,-9.84325 -19.43383,-15.75234 -5.48279,-5.9091 -9.88449,-12.34867 -13.11319,-18.88112 -3.2287,-6.53244 -5.28436,-13.15319 -6.2488,-19.42434 -0.96445,-6.27117 -0.83942,-12.18854 0.13274,-17.38038 0.97219,-5.19184 2.78826,-9.65494 5.08299,-13.14013 2.29472,-3.48519 5.06388,-5.99072 7.87564,-7.42763 2.81176,-1.43689 5.66154,-1.80517 8.11741,-1.18925 2.45585,0.6159 4.51356,2.21424 5.80751,4.55033 1.29393,2.33611 1.82086,5.40677 1.33779,8.84472 -0.48307,3.43796 -1.97787,7.23901 -4.56708,10.96971 -2.5892,3.73069 -6.27283,7.38644 -10.96004,10.53406 -4.6872,3.1476 -10.37625,5.78283 -16.81604,7.53913 -6.43979,1.75631 -13.6271,2.63046 -21.18821,2.37896 -7.56113,-0.25151 -15.49182,-1.63043 -23.35218,-4.21964 -7.86033,-2.58921 -15.645748,-6.38871 -22.916502,-11.30747 -7.270755,-4.91877 -14.022651,-10.95505 -19.882632,-17.85721 -5.859993,-6.90217 -10.824869,-14.66699 -14.64466,-22.91984 -3.819791,-8.25286 -6.492756,-16.98954 -7.929659,-25.76882 -1.436904,-8.77927 -1.637744,-17.59658 -0.687237,-26.01057 0.950506,-8.41399 3.050614,-16.42045 6.05487,-23.64439 3.004256,-7.22392 6.909435,-13.6621 11.346997,-19.06224 4.437555,-5.40013 9.403267,-9.7605 14.461855,-12.98919 5.058586,-3.22869 10.205483,-5.32572 15.005114,-6.3728 4.799621,-1.04708 9.247764,-1.04598 12.975014,-0.23883 3.72725,0.80715 6.7304,2.41713 8.76256,4.46497 2.03216,2.04784 3.09158,4.52936 3.09158,7.01314 0,2.4838 -1.05942,4.96531 -3.09158,7.01316 -2.03216,2.04784 -5.03531,3.6578 -8.76256,4.46495 -3.72725,0.80715 -8.175393,0.80826 -12.975014,-0.23881 -4.799631,-1.0471 -9.946528,-3.14412 -15.005114,-6.37281 -5.058588,-3.22869 -10.0243,-7.58905 -14.461855,-12.98919 -4.437562,-5.40015 -8.342741,-11.83832 -11.346997,-19.06225 -3.004256,-7.22392 -5.104364,-15.23038 -6.05487,-23.64438 -0.950507,-8.41399 -0.749667,-17.2313 0.687237,-26.01058 1.436903,-8.77927 4.109868,-17.51595 7.929659,-25.76881 3.819791,-8.25286 8.784667,-16.01767 14.64466,-22.91984 5.859981,-6.90216 12.611877,-12.93845 19.882632,-17.85721 7.270754,-4.91877 15.056172,-8.718253 22.916502,-11.307463 7.86036,-2.589206 15.79105,-3.968141 23.35218,-4.219646 7.56111,-0.251516 14.74842,0.622651 21.18821,2.378957 6.43979,1.756305 12.12884,4.391536 16.81604,7.539142 4.68721,3.14759 8.37084,6.80336 10.96004,10.53406 2.58921,3.73068 4.08401,7.53175 4.56708,10.9697 0.48307,3.43796 -0.0439,6.50861 -1.33779,8.84471 -1.29395,2.33611 -3.35166,3.93445 -5.80751,4.55035 -2.45587,0.6159 -5.30565,0.24764 -8.11741,-1.18927 -2.81176,-1.43689 -5.58092,-3.94244 -7.87564,-7.42763 -2.29473,-3.48519 -4.1108,-7.94829 -5.08299,-13.14014 -0.97216,-5.19184 -1.09719,-11.10919 -0.13274,-17.380352 0.96444,-6.27116 3.0201,-12.891915 6.2488,-19.42435 3.2287,-6.532445 7.6304,-12.97203 13.11319,-18.881117 5.48277,-5.909088 12.04487,-11.283491 19.43383,-15.752329 7.38894,-4.468851 15.60152,-8.028912 24.26238,-10.432448 8.66088,-2.403547 17.76584,-3.648811 26.87308,-3.648811 9.10723,0 18.21219,1.245264 26.87306,3.648811 8.66088,2.403536 16.87344,5.963597 24.26241,10.432448 7.38894,4.468838 13.95104,9.843241 19.43382,15.752329 5.48278,5.909087 9.8845,12.348672 13.11319,18.881117 3.22869,6.532435 5.28436,13.15319 6.2488,19.42435 0.96445,6.271162 0.83941,12.188512 -0.13276,17.380352 -0.97216,5.19185 -2.78824,9.65495 -5.08296,13.14014 -2.29474,3.48519 -5.06389,5.99074 -7.87565,7.42763 -2.81175,1.43691 -5.66156,1.80517 -8.11741,1.18927 -2.45586,-0.6159 -4.51358,-2.21424 -5.80751,-4.55035 -1.29392,-2.3361 -1.82086,-5.40675 -1.33779,-8.84471 0.48307,-3.43795 1.97786,-7.23902 4.56707,-10.9697 2.58921,-3.7307 6.27284,-7.38647 10.96004,-10.53406 4.68721,-3.147606 10.37625,-5.782837 16.81605,-7.539142 6.43979,-1.756306 13.6271,-2.630473 21.18821,-2.378957 7.56111,0.251505 15.49183,1.63044 23.35216,4.219646 7.86034,2.58921 15.64577,6.388693 22.91652,11.307463 7.27076,4.91876 14.02264,10.95505 19.88263,17.85721 5.86,6.90217 10.82488,14.66698 14.64466,22.91984 3.81979,8.25286 6.49275,16.98954 7.92966,25.76881 1.4369,8.77928 1.63775,17.59659 0.68724,26.01058 -0.95051,8.414 -3.05062,16.42046 -6.05487,23.64438 -3.00426,7.22393 -6.90944,13.6621 -11.34699,19.06225 -4.43756,5.40014 -9.40329,9.7605 -14.46188,12.98919 -5.05858,3.22869 -10.20547,5.32571 -15.00509,6.37281 -4.79963,1.04707 -9.24776,1.04596 -12.97502,0.23881 -3.72726,-0.80715 -6.7304,-2.41711 -8.76255,-4.46495 -2.03216,-2.04785 -3.09159,-4.52936 -3.09159,-7.01316 z"
       style="fill:none;stroke:#000000;stroke-width:1.2649852"
       inkscape:connector-curvature="0" />
  </g>
</svg>
