<?xml version="1.0" encoding="UTF-8" standalone="no"?>
<!-- Created with Inkscape (http://www.inkscape.org/) -->

<svg
   xmlns:dc="http://purl.org/dc/elements/1.1/"
   xmlns:cc="http://creativecommons.org/ns#"
   xmlns:rdf="http://www.w3.org/1999/02/22-rdf-syntax-ns#"
   xmlns:svg="http://www.w3.org/2000/svg"
   xmlns="http://www.w3.org/2000/svg"
   xmlns:sodipodi="http://sodipodi.sourceforge.net/DTD/sodipodi-0.dtd"
   xmlns:inkscape="http://www.inkscape.org/namespaces/inkscape"
   width="250mm"
   height="250mm"
   version="1.1"
   viewBox="0 0 500 500"
   id="watch"
   onload="start(evt)"
   inkscape:version="0.92.1 r15371"
   sodipodi:docname="poc.svg">
  <sodipodi:namedview
     id="base"
     pagecolor="#ffffff"
     bordercolor="#666666"
     borderopacity="1.0"
     inkscape:pageopacity="0.0"
     inkscape:pageshadow="2"
     inkscape:zoom="0.98994948"
     inkscape:cx="235.91214"
     inkscape:cy="522.22443"
     inkscape:document-units="mm"
     inkscape:current-layer="layer1"
     showgrid="false"
     inkscape:window-width="1855"
     inkscape:window-height="1056"
     inkscape:window-x="65"
     inkscape:window-y="24"
     inkscape:window-maximized="1"
     fit-margin-top="0"
     fit-margin-left="0"
     fit-margin-right="0"
     fit-margin-bottom="0" />
  <script
     id="animation"
     type="text/ecmascript">

    var TPI = 2 * Math.PI;
    var n = 6;
    var R = 126;
    var r = 25.5;
    var cX = 250;
    var cY = 250;
    var T = 150;
    var t = T / n;

    var primaryGear;
    var secondaryGear;
    var transmitter;
    var hourHand;

    function start(evt) {
      primaryGear = evt.target.ownerDocument.getElementById(&quot;primary_gear&quot;);
      secondaryGear = evt.target.ownerDocument.getElementById(&quot;secondary_gear&quot;);
      transmitter = evt.target.ownerDocument.getElementById(&quot;transmitter&quot;);
      hourHand = evt.target.ownerDocument.getElementById(&quot;hour_hand&quot;);
      animate();

      // Refresh every second.
      setInterval(animate, 100);
    }

    var counter = 0;
    function animate() {

      // Get computer clock time
      var date = new Date();

      var s = date.getSeconds() + date.getMilliseconds() / 1000;
      var thetaDegree = s / 60 * 360;
      var thetaRadian = (thetaDegree / 360) * TPI;
      var x = cX + (R + r) * Math.cos(thetaRadian - Math.PI / 2);
      var y = cY + (R + r) * Math.sin(thetaRadian - Math.PI / 2);

      // rotation of the second wheel + space between teeths
      var secondaryTheta = thetaDegree * n + (2 * 360 / t) + 1;
      secondaryGear.setAttribute(&quot;transform&quot;, &quot;translate(&quot; + x + &quot;,&quot; + y + &quot;) rotate( &quot; + secondaryTheta + &quot;)&quot;);

      hourHand.setAttribute(&quot;transform&quot;, &quot;translate(&quot; + x + &quot;,&quot; + y + &quot;) rotate( &quot; + secondaryTheta + &quot;)&quot;);

      transmitter.setAttribute(&quot;transform&quot;, &quot;rotate(&quot; + (thetaDegree + 1) + &quot;, &quot; + cX + &quot;,&quot; + cY + &quot;)&quot;);
    }

    window.animate = animate
  </script>
  <defs
     id="defs5123" />
  <metadata
     id="metadata5126">
    <rdf:RDF>
      <cc:Work
         rdf:about="">
        <dc:format>image/svg+xml</dc:format>
        <dc:type
           rdf:resource="http://purl.org/dc/dcmitype/StillImage" />
        <dc:title />
      </cc:Work>
    </rdf:RDF>
  </metadata>
  <g
     id="layer1"
     inkscape:groupmode="layer"
     inkscape:label="Layer 1">
    <g
       style="fill:#e3dedb"
       transform="rotate(0.735,-7548.9195,19341.042)"
       inkscape:label="Secondary Gear"
       id="secondary_gear">
      <path
         inkscape:connector-curvature="0"
         d="m 23.52813,-1.58499 0.16031,-0.0108 1.54278,0.27348 1.71186,0.70133 v 1.24196 l -1.71186,0.70133 -1.54278,0.27348 -0.16031,-0.0108 -0.18461,1.75643 0.15905,0.02276 1.45221,0.58827 1.52864,1.04192 -0.25822,1.21482 -1.82027,0.33009 -1.56592,-0.05326 -0.15456,-0.04389 -0.54576,1.67966 0.15084,0.05534 1.29817,0.87734 1.27861,1.33698 -0.50516,1.13458 -1.84912,-0.05558 -1.52063,-0.37766 -0.14206,-0.07507 -0.88305,1.52948 0.13604,0.08549 1.08739,1.12808 0.97269,1.57359 -0.73,1.00477 -1.79716,-0.43882 -1.40888,-0.68557 -0.12335,-0.10297 -1.18175,1.31247 0.1153,0.11191 0.82908,1.3295 0.62427,1.74145 -0.92296,0.83103 -1.66665,-0.80288 -1.23555,-0.96351 -0.09925,-0.12636 -1.4288,1.03808 0.08951,0.13343 0.53455,1.47283 0.24855,1.83318 -1.07556,0.62098 -1.46331,-1.13185 -1.00823,-1.19934 -0.0708,-0.14423 -1.61341,0.71833 0.05981,0.14913 0.21665,1.55178 -0.13801,1.8448 -1.18118,0.38379 -1.196,-1.41136 -0.73684,-1.38276 -0.03927,-0.1558 -1.7275,0.36719 0.0275,0.15831 L 3.95245,24.95478 3.4339,26.73057 2.19874,26.86039 1.32231,25.23122 0.88907,23.72548 0.88305,23.56492 h -1.7661 l -0.00602,0.16056 -0.43324,1.50574 -0.87643,1.62917 -1.23516,-0.12982 -0.51855,-1.77579 -0.11072,-1.56291 0.0275,-0.15831 -1.7275,-0.36719 -0.03927,0.1558 -0.73684,1.38276 -1.196,1.41136 -1.18118,-0.38379 -0.13801,-1.8448 0.21665,-1.55178 0.05981,-0.14913 -1.61341,-0.71833 -0.0708,0.14423 -1.00823,1.19934 -1.46331,1.13185 -1.07556,-0.62098 0.24855,-1.83318 0.53455,-1.47283 0.08951,-0.13343 -1.4288,-1.03808 -0.09925,0.12636 -1.23555,0.96351 -1.66665,0.80288 -0.92296,-0.83103 0.62427,-1.74145 0.82908,-1.3295 0.1153,-0.11191 -1.18175,-1.31247 -0.12335,0.10297 -1.40888,0.68557 -1.79716,0.43882 -0.73,-1.00477 0.97269,-1.57359 1.08739,-1.12808 0.13604,-0.08549 -0.88305,-1.52948 -0.14206,0.07507 -1.52063,0.37766 -1.84912,0.05558 -0.50516,-1.13458 1.27861,-1.33698 1.29817,-0.87734 0.15084,-0.05534 -0.54576,-1.67966 -0.15456,0.04389 -1.56592,0.05326 -1.82027,-0.33009 -0.25822,-1.21482 1.52864,-1.04192 1.45221,-0.58827 0.15905,-0.02276 -0.18461,-1.75643 -0.16031,0.0108 -1.54278,-0.27348 -1.71186,-0.70133 v -1.24196 l 1.71186,-0.70133 1.54278,-0.27348 0.16031,0.0108 0.18461,-1.75643 -0.15905,-0.02276 -1.45221,-0.58827 -1.52864,-1.04192 0.25822,-1.21482 1.82027,-0.33009 1.56592,0.05326 0.15456,0.04389 0.54576,-1.67966 -0.15084,-0.05534 -1.29817,-0.87734 -1.27861,-1.33698 0.50516,-1.13458 1.84912,0.05558 1.52063,0.37766 0.14206,0.07507 0.88305,-1.52948 -0.13604,-0.08549 -1.08739,-1.12808 -0.97269,-1.57359 0.73,-1.00477 1.79716,0.43882 1.40888,0.68557 0.12335,0.10297 1.18175,-1.31247 -0.1153,-0.11191 -0.82908,-1.3295 -0.62427,-1.74145 0.92296,-0.83103 1.66665,0.80288 1.23555,0.96351 0.09925,0.12636 1.4288,-1.03808 -0.08951,-0.13343 -0.53455,-1.47283 -0.24855,-1.83318 1.07556,-0.62098 1.46331,1.13185 1.00823,1.19934 0.0708,0.14423 1.61341,-0.71833 -0.05981,-0.14913 -0.21665,-1.55178 0.13801,-1.8448 1.18118,-0.38379 1.196,1.41136 0.73684,1.38276 0.03927,0.1558 1.7275,-0.36719 -0.0275,-0.15831 0.11072,-1.56291 0.51855,-1.77579 1.23516,-0.12982 0.87643,1.62917 0.43324,1.50574 0.00602,0.16056 h 1.7661 l 0.00602,-0.16056 0.43324,-1.50574 0.87643,-1.62917 1.23516,0.12982 0.51855,1.77579 0.11072,1.56291 -0.0275,0.15831 1.7275,0.36719 0.03927,-0.1558 0.73684,-1.38276 1.196,-1.41136 1.18118,0.38379 0.13801,1.8448 -0.21665,1.55178 -0.05981,0.14913 1.61341,0.71833 0.0708,-0.14423 1.00823,-1.19934 1.46331,-1.13185 1.07556,0.62098 -0.24855,1.83318 -0.53455,1.47283 -0.08951,0.13343 1.4288,1.03808 0.09925,-0.12636 1.23555,-0.96351 1.66665,-0.80288 0.92296,0.83103 -0.62427,1.74145 -0.82908,1.3295 -0.1153,0.11191 1.18175,1.31247 0.12335,-0.10297 1.40888,-0.68557 1.79716,-0.43882 0.73,1.00477 -0.97269,1.57359 -1.08739,1.12808 -0.13604,0.08549 0.88305,1.52948 0.14206,-0.07507 1.52063,-0.37766 1.84912,-0.05558 0.50516,1.13458 -1.27861,1.33698 -1.29817,0.87734 -0.15084,0.05534 0.54576,1.67966 0.15456,-0.04389 1.56592,-0.05326 1.82027,0.33009 0.25822,1.21482 -1.52864,1.04192 -1.45221,0.58827 -0.15905,0.02276 z"
         style="fill:#e3dedb;stroke:#000000;stroke-width:0.26458332"
         id="path5150" />
    </g>
    <g
       id="g5402">
      <path
         id="path5134"
         d="m 248.00863,122.00186 -1.37873,0.0289 -0.59789,1.70222 -0.51987,1.70274 -1.46347,0.0615 -0.66043,-1.65313 -0.73794,-1.64641 -1.37614,0.0863 -0.52607,1.72599 -0.44803,1.72341 -1.45986,0.12247 -0.72864,-1.6247 -0.80667,-1.61386 -1.37149,0.14418 -0.4532,1.74666 -0.37569,1.73995 -1.45314,0.18397 -0.79634,-1.59267 -0.87333,-1.57872 -1.36425,0.20154 -0.37983,1.76372 -0.30179,1.75493 -1.44435,0.24391 -0.86248,-1.55753 -0.93896,-1.54099 -1.35444,0.25838 -0.30541,1.77819 -0.22841,1.76579 -1.43299,0.30488 -0.92656,-1.52031 -1.00252,-1.50017 -1.34255,0.31471 -0.231,1.78955 -0.15399,1.77354 -1.41904,0.36432 -0.9896,-1.48002 -1.06454,-1.45676 -1.32808,0.37104 -0.15555,1.79731 -0.0801,1.7787 -1.40197,0.42323 -1.0511,-1.43712 -1.12448,-1.41077 -1.31103,0.42582 -0.0806,1.80247 -0.005,1.78025 -1.38338,0.48214 -1.11001,-1.39216 -1.18287,-1.36271 -1.29191,0.48059 -0.005,1.80455 0.0693,1.7787 -1.36168,0.5395 -1.16737,-1.34462 -1.23868,-1.31155 -1.27124,0.53434 0.0708,1.80247 0.14366,1.77457 -1.3379,0.59583 -1.22266,-1.29398 -1.29295,-1.25884 -1.24747,0.58704 0.14625,1.79835 0.21807,1.76681 -1.31206,0.65113 -1.27589,-1.24179 -1.34411,-1.20354 -1.22215,0.63872 0.2217,1.79059 0.29145,1.75648 -1.28364,0.7059 -1.32653,-1.18753 -1.3932,-1.1467 -1.19424,0.68988 0.2961,1.77974 0.36484,1.74253 -1.25264,0.75861 -1.37511,-1.13068 -1.44022,-1.08676 -1.16427,0.73846 0.37052,1.76578 0.4377,1.726 -1.22008,0.8108 -1.42162,-1.07229 -1.48415,-1.02577 -1.13223,0.78703 0.4439,1.74873 0.50953,1.70584 -1.18494,0.86093 -1.46503,-1.01183 -1.526,-0.96273 -1.09813,0.83354 0.51677,1.7291 0.58032,1.6831 -1.14773,0.9095 -1.50585,-0.94929 -1.56528,-0.89814 -1.06246,0.87902 0.58911,1.70532 0.65008,1.65778 -1.10845,0.95704 -1.54461,-0.88573 -1.60146,-0.83147 -1.02474,0.92242 0.65991,1.67949 0.71934,1.62832 -1.06764,1.00304 -1.58027,-0.8201 -1.63504,-0.7643 -0.98495,0.9648 0.72967,1.65054 0.78652,1.59681 -1.02475,1.04644 -1.61282,-0.75292 -1.66553,-0.69505 -0.94361,1.00511 0.79788,1.6185 0.85266,1.5627 -0.97978,1.08882 -1.64331,-0.68523 -1.69292,-0.62425 -0.90072,1.04335 0.86454,1.58388 0.91778,1.52549 -0.93328,1.12861 -1.6707,-0.61546 -1.71772,-0.55294 -0.85628,1.08055 0.93069,1.54564 0.98082,1.4857 -0.88573,1.16685 -1.69499,-0.54518 -1.73891,-0.48059 -0.81081,1.11569 0.99478,1.50534 1.04179,1.44383 -0.83561,1.20252 -1.71617,-0.47336 -1.75803,-0.40773 -0.76275,1.14877 1.05627,1.46244 1.10174,1.39837 -0.78445,1.23713 -1.73478,-0.40152 -1.77301,-0.33332 -0.71469,1.17926 1.11725,1.41697 1.1591,1.35133 -0.73226,1.26866 -1.74976,-0.32866 -1.78594,-0.2589 -0.66404,1.20871 1.17512,1.36891 1.21491,1.30121 -0.67851,1.29812 -1.76216,-0.25477 -1.79472,-0.18397 -0.6134,1.23507 1.23196,1.31878 1.26814,1.24954 -0.62373,1.3255 -1.77095,-0.18087 -1.80093,-0.10852 -0.5612,1.25936 1.28571,1.26607 1.31981,1.19527 -0.56792,1.35031 -1.77715,-0.10646 -1.80403,-0.0331 -0.50746,1.2821 1.3379,1.21077 1.36839,1.13895 -0.51056,1.37304 -1.78025,-0.032 -1.80403,0.0424 -0.4532,1.30225 1.387,1.15393 1.41489,1.08055 -0.45268,1.3932 -1.77974,0.0424 -1.8004,0.11834 -0.39843,1.31981 1.43402,1.09502 1.45883,1.0201 -0.39378,1.41128 -1.77663,0.11679 -1.79369,0.19327 -0.34313,1.33583 1.47898,1.03353 1.50016,0.9586 -0.33434,1.42575 -1.76992,0.19172 -1.78439,0.2682 -0.2868,1.34876 1.52084,0.971 1.53944,0.89452 -0.2744,1.43919 -1.76062,0.2651 -1.77147,0.34313 -0.22996,1.35909 1.56011,0.9064 1.57562,0.82993 -0.21394,1.449 -1.74822,0.33848 -1.75545,0.41703 -0.17259,1.36788 1.5968,0.84026 1.60868,0.76274 -0.15348,1.45676 -1.73219,0.41186 -1.73633,0.48989 -0.11524,1.37356 1.6304,0.77308 1.63917,0.69453 -0.092,1.46193 -1.71359,0.48369 -1.71411,0.56224 -0.0579,1.37769 1.6614,0.70384 1.66708,0.62528 -0.031,1.46451 -1.69137,0.55552 -1.68931,0.63304 v 1.37924 l 1.68931,0.63304 1.69137,0.55552 0.031,1.46451 -1.66708,0.62529 -1.6614,0.70383 0.0579,1.37769 1.71411,0.56224 1.71359,0.4837 0.092,1.46192 -1.63917,0.69453 -1.6304,0.77308 0.11524,1.37356 1.73633,0.48989 1.73219,0.41186 0.15348,1.45676 -1.60868,0.76275 -1.5968,0.84024 0.17259,1.3679 1.75545,0.41701 1.74822,0.33848 0.21394,1.44955 -1.57562,0.82939 -1.56011,0.90641 0.22996,1.35961 1.77147,0.34261 1.76062,0.26509 0.2744,1.4392 -1.53944,0.89453 -1.52084,0.97099 0.2868,1.34874 1.78439,0.26821 1.76992,0.19172 0.33434,1.42576 -1.50016,0.95858 -1.47898,1.03354 0.34313,1.33583 1.79369,0.19328 1.77663,0.11729 0.39378,1.41078 -1.45883,1.02008 -1.43402,1.09503 0.39843,1.31982 1.8004,0.11835 1.77974,0.0424 0.45268,1.39319 -1.41489,1.08056 -1.387,1.15395 0.4532,1.30223 1.80403,0.0424 1.78025,-0.032 0.51056,1.37303 -1.36839,1.13895 -1.3379,1.21079 0.50746,1.28209 1.80403,-0.0331 1.77715,-0.10644 0.56792,1.3503 -1.31981,1.19528 -1.28571,1.26606 0.5612,1.25936 1.80093,-0.10853 1.77095,-0.18087 0.62373,1.32551 -1.26814,1.24955 -1.23196,1.31876 0.6134,1.23507 1.79472,-0.18396 1.76216,-0.25477 0.67851,1.2981 -1.21491,1.30122 -1.17512,1.3689 0.66404,1.20873 1.78594,-0.2589 1.74976,-0.32866 0.73226,1.26865 -1.1591,1.35133 -1.11725,1.41697 0.71469,1.17925 1.77301,-0.33329 1.73478,-0.40153 0.78445,1.23713 -1.10174,1.39835 -1.05627,1.46246 0.76275,1.14877 1.75803,-0.40722 1.71617,-0.47387 0.83561,1.2025 -1.04179,1.44386 -0.99478,1.50532 0.81081,1.1157 1.73891,-0.48059 1.69499,-0.5452 0.88573,1.16686 -0.98082,1.48569 -0.93069,1.54565 0.85628,1.08055 1.71772,-0.55292 1.6707,-0.61548 0.93328,1.12861 -0.91778,1.52551 -0.86454,1.58387 0.90072,1.04333 1.69292,-0.62423 1.64331,-0.68471 0.97978,1.08831 -0.85266,1.56268 -0.79788,1.61851 0.94361,1.0051 1.66553,-0.69503 1.61282,-0.75293 1.02475,1.04643 -0.78652,1.59681 -0.72967,1.65055 0.98495,0.9648 1.63504,-0.7643 1.58027,-0.8201 1.06764,1.00304 -0.71934,1.62832 -0.65991,1.6795 1.02474,0.92241 1.60146,-0.83148 1.54461,-0.88574 1.10845,0.95758 -0.65008,1.65727 -0.58911,1.70532 1.06246,0.879 1.56528,-0.89813 1.50585,-0.9493 1.14773,0.9095 -0.58032,1.6831 -0.51677,1.7291 1.09813,0.83355 1.526,-0.96274 1.46503,-1.01182 1.18494,0.86093 -0.50953,1.70584 -0.4439,1.74924 1.13223,0.78653 1.48415,-1.02579 1.42162,-1.07228 1.22008,0.81079 -0.4377,1.72601 -0.37052,1.76578 1.16427,0.73845 1.44022,-1.08675 1.37511,-1.1307 1.25264,0.75862 -0.36484,1.74254 -0.2961,1.77972 1.19424,0.6899 1.3932,-1.1467 1.32653,-1.18753 1.28364,0.70591 -0.29145,1.75646 -0.2217,1.7906 1.22215,0.63873 1.34411,-1.20357 1.27589,-1.24177 1.31206,0.65112 -0.21807,1.76683 -0.14625,1.79832 1.24747,0.58706 1.29295,-1.25884 1.22266,-1.29399 1.3379,0.59584 -0.14366,1.77456 -0.0708,1.803 1.27124,0.53433 1.23868,-1.31207 1.16737,-1.34461 1.36168,0.53951 -0.0693,1.77869 0.005,1.80453 1.29191,0.48059 1.18287,-1.36271 1.11001,-1.39215 1.38338,0.48215 0.005,1.78024 0.0806,1.80248 1.31103,0.42632 1.12448,-1.41129 1.0511,-1.43711 1.40197,0.42323 0.0801,1.77872 0.15555,1.79728 1.32808,0.37106 1.06454,-1.45677 0.9896,-1.48 1.41904,0.3643 0.15399,1.77356 0.231,1.78953 1.34255,0.31472 1.00252,-1.50016 0.92656,-1.52032 1.43299,0.30488 0.22841,1.76578 0.30541,1.77818 1.35444,0.25839 0.93896,-1.54098 0.86248,-1.55753 1.44435,0.2439 0.30179,1.75495 0.37983,1.76371 1.36425,0.20154 0.87333,-1.57872 0.79634,-1.59266 1.45314,0.18397 0.37569,1.73992 0.4532,1.74668 1.37149,0.14417 0.80667,-1.61385 0.72864,-1.6247 1.45986,0.12297 0.44803,1.72292 0.52607,1.72598 1.37614,0.0863 0.73794,-1.6459 0.66043,-1.65364 1.46347,0.0615 0.51987,1.70272 0.59789,1.70223 1.37873,0.0289 0.66869,-1.67587 0.59015,-1.67947 h 1.46503 l 0.59014,1.67947 0.66921,1.67587 1.37821,-0.0289 0.5979,-1.70223 0.51986,-1.70272 1.46348,-0.0615 0.66042,1.65364 0.73794,1.6459 1.37615,-0.0863 0.52606,-1.72598 0.44804,-1.72292 1.45986,-0.12297 0.72863,1.6247 0.80667,1.61385 1.3715,-0.14417 0.4532,-1.74668 0.37569,-1.73992 1.45314,-0.18397 0.79632,1.59266 0.87334,1.57872 1.36427,-0.20154 0.37981,-1.76371 0.30178,-1.75495 1.44436,-0.2439 0.86249,1.55753 0.93895,1.54098 1.35446,-0.25839 0.30541,-1.77818 0.22839,-1.76578 1.433,-0.30488 0.92655,1.52032 1.00253,1.50016 1.34255,-0.31472 0.23098,-1.78953 0.15402,-1.77356 1.41904,-0.3643 0.98959,1.48 1.06452,1.45677 1.32811,-0.37106 0.15552,-1.79728 0.0801,-1.77872 1.40197,-0.42323 1.05111,1.43711 1.12448,1.41129 1.31101,-0.42632 0.0806,-1.80248 0.005,-1.78024 1.38337,-0.48215 1.11001,1.39215 1.18287,1.36271 1.29191,-0.48059 0.005,-1.80453 -0.0692,-1.77869 1.36167,-0.53951 1.16737,1.34461 1.2387,1.31207 1.27122,-0.53433 -0.0708,-1.803 -0.14367,-1.77456 1.33842,-0.59584 1.22214,1.29399 1.29294,1.25884 1.24749,-0.58706 -0.14624,-1.79832 -0.2181,-1.76683 1.31207,-0.65112 1.2759,1.24177 1.34411,1.20357 1.22214,-0.63873 -0.22169,-1.7906 -0.29147,-1.75646 1.28365,-0.70591 1.32654,1.18753 1.39319,1.1467 1.19425,-0.6899 -0.29612,-1.77972 -0.36483,-1.74254 1.25264,-0.75862 1.37512,1.1307 1.44021,1.08675 1.16427,-0.73845 -0.37052,-1.76578 -0.4377,-1.72601 1.2201,-0.81079 1.4216,1.07228 1.48416,1.02579 1.13223,-0.78653 -0.44389,-1.74924 -0.50954,-1.70584 1.18494,-0.86093 1.46502,1.01182 1.52601,0.96274 1.09813,-0.83355 -0.51678,-1.7291 -0.58031,-1.6831 1.14773,-0.9095 1.50635,0.9493 1.56478,0.89813 1.06246,-0.879 -0.5891,-1.70532 -0.65011,-1.65727 1.10848,-0.95758 1.54461,0.88574 1.60144,0.83148 1.02473,-0.92241 -0.6599,-1.6795 -0.71932,-1.62832 1.06762,-1.00304 1.58028,0.8201 1.63504,0.7643 0.98494,-0.9648 -0.72967,-1.65055 -0.78652,-1.59681 1.02476,-1.04643 1.61332,0.75293 1.66502,0.69503 0.94361,-1.0051 -0.79788,-1.61851 -0.85267,-1.56268 0.97981,-1.08831 1.6433,0.68471 1.69291,0.62423 0.90125,-1.04333 -0.86506,-1.58387 -0.91778,-1.52551 0.93329,-1.12861 1.67068,0.61548 1.71773,0.55292 0.85627,-1.08055 -0.9307,-1.54565 -0.98081,-1.48569 0.88575,-1.16686 1.69497,0.5452 1.73892,0.48059 0.81079,-1.1157 -0.99475,-1.50532 -1.0418,-1.44386 0.83561,-1.2025 1.71616,0.47387 1.75803,0.40722 0.76274,-1.14877 -1.05624,-1.46246 -1.10176,-1.39835 0.78444,-1.23713 1.73479,0.40153 1.77353,0.33329 0.71417,-1.17925 -1.11723,-1.41697 -1.15912,-1.35133 0.73226,-1.26865 1.74977,0.32866 1.78594,0.2589 0.66403,-1.20873 -1.17512,-1.3689 -1.21492,-1.30122 0.67853,-1.2981 1.76215,0.25477 1.79472,0.18396 0.61341,-1.23507 -1.23195,-1.31876 -1.26815,-1.24955 0.62373,-1.32551 1.77096,0.18087 1.80144,0.10853 0.56068,-1.25936 -1.28572,-1.26606 -1.31982,-1.19528 0.56793,-1.3503 1.77715,0.10644 1.80404,0.0331 0.50747,-1.28209 -1.33739,-1.21079 -1.36893,-1.13895 0.51057,-1.37303 1.78025,0.032 1.80403,-0.0424 0.45321,-1.30223 -1.387,-1.15395 -1.41491,-1.08056 0.4527,-1.39319 1.77972,-0.0424 1.80041,-0.11835 0.39843,-1.31982 -1.43401,-1.09503 -1.45883,-1.02008 0.39378,-1.41078 1.77662,-0.11729 1.79369,-0.19328 0.34314,-1.33583 -1.47897,-1.03354 -1.50019,-0.95858 0.33436,-1.42576 1.76993,-0.19172 1.78437,-0.26821 0.28681,-1.34874 -1.52085,-0.97099 -1.53943,-0.89453 0.2744,-1.4392 1.76062,-0.26509 1.77147,-0.34261 0.22994,-1.35961 -1.56008,-0.90641 -1.57562,-0.82939 0.21394,-1.44955 1.74821,-0.33848 1.75545,-0.41701 0.17259,-1.3679 -1.59681,-0.84024 -1.60867,-0.76275 0.15346,-1.45676 1.7322,-0.41186 1.73633,-0.48989 0.11525,-1.37356 -1.63039,-0.77308 -1.6392,-0.69453 0.092,-1.46192 1.7136,-0.4837 1.7141,-0.56224 0.0579,-1.37769 -1.6614,-0.70383 -1.66709,-0.62529 0.031,-1.46451 1.69137,-0.55552 1.68932,-0.63304 v -1.37924 l -1.68932,-0.63304 -1.69137,-0.55552 -0.031,-1.46451 1.66709,-0.62528 1.6614,-0.70384 -0.0579,-1.37769 -1.7141,-0.56224 -1.7136,-0.48369 -0.092,-1.46193 1.6392,-0.69453 1.63039,-0.77308 -0.11525,-1.37356 -1.73633,-0.48989 -1.7322,-0.41186 -0.15346,-1.45676 1.60867,-0.76274 1.59681,-0.84026 -0.17259,-1.36788 -1.75545,-0.41703 -1.74821,-0.33848 -0.21394,-1.449 1.57562,-0.82993 1.56008,-0.9064 -0.22994,-1.35909 -1.77147,-0.34313 -1.76062,-0.2651 -0.2744,-1.43919 1.53943,-0.89452 1.52085,-0.971 -0.28681,-1.34876 -1.78437,-0.2682 -1.76993,-0.19172 -0.33436,-1.42575 1.50019,-0.9586 1.47897,-1.03353 -0.34314,-1.33583 -1.79369,-0.19327 -1.77662,-0.11679 -0.39378,-1.41128 1.45883,-1.0201 1.43401,-1.09502 -0.39843,-1.31981 -1.80041,-0.11834 -1.77972,-0.0424 -0.4527,-1.3932 1.41491,-1.08055 1.387,-1.15393 -0.45321,-1.30225 -1.80403,-0.0424 -1.78025,0.032 -0.51057,-1.37304 1.36893,-1.13895 1.33739,-1.21077 -0.50747,-1.2821 -1.80404,0.0331 -1.77715,0.10646 -0.56793,-1.35031 1.31982,-1.19527 1.28572,-1.26607 -0.56068,-1.25936 -1.80144,0.10852 -1.77096,0.18087 -0.62373,-1.3255 1.26815,-1.24954 1.23195,-1.31878 -0.61341,-1.23507 -1.79472,0.18397 -1.76215,0.25477 -0.67853,-1.29812 1.21492,-1.30121 1.17512,-1.36891 -0.66403,-1.20871 -1.78594,0.2589 -1.74977,0.32866 -0.73226,-1.26866 1.15912,-1.35133 1.11723,-1.41697 -0.71417,-1.17926 -1.77353,0.33332 -1.73479,0.40152 -0.78444,-1.23713 1.10176,-1.39837 1.05624,-1.46244 -0.76274,-1.14877 -1.75803,0.40773 -1.71616,0.47336 -0.83561,-1.20252 1.0418,-1.44383 0.99475,-1.50534 -0.81079,-1.11569 -1.73892,0.48059 -1.69497,0.54518 -0.88575,-1.16685 0.98081,-1.4857 0.9307,-1.54564 -0.85627,-1.08055 -1.71773,0.55294 -1.67068,0.61546 -0.93329,-1.12861 0.91778,-1.52549 0.86506,-1.58388 -0.90125,-1.04335 -1.69291,0.62425 -1.6433,0.68523 -0.97981,-1.08882 0.85267,-1.5627 0.79788,-1.6185 -0.94361,-1.00511 -1.66502,0.69505 -1.61332,0.75292 -1.02476,-1.04644 0.78652,-1.59681 0.72967,-1.65054 -0.98494,-0.9648 -1.63504,0.7643 -1.58028,0.8201 -1.06762,-1.00304 0.71932,-1.62832 0.6599,-1.67949 -1.02473,-0.92242 -1.60144,0.83147 -1.54461,0.88573 -1.10848,-0.95704 0.65011,-1.65778 0.5891,-1.70532 -1.06246,-0.87902 -1.56478,0.89814 -1.50635,0.94929 -1.14773,-0.9095 0.58031,-1.6831 0.51678,-1.7291 -1.09813,-0.83354 -1.52601,0.96273 -1.46502,1.01183 -1.18494,-0.86093 0.50954,-1.70584 0.44389,-1.74873 -1.13223,-0.78703 -1.48416,1.02577 -1.4216,1.07229 -1.2201,-0.8108 0.4377,-1.726 0.37052,-1.76578 -1.16427,-0.73846 -1.44021,1.08676 -1.37512,1.13068 -1.25264,-0.75861 0.36483,-1.74253 0.29612,-1.77974 -1.19425,-0.68988 -1.39319,1.1467 -1.32654,1.18753 -1.28365,-0.7059 0.29147,-1.75648 0.22169,-1.79059 -1.22214,-0.63872 -1.34411,1.20354 -1.2759,1.24179 -1.31207,-0.65113 0.2181,-1.76681 0.14624,-1.79835 -1.24749,-0.58704 -1.29294,1.25884 -1.22214,1.29398 -1.33842,-0.59583 0.14367,-1.77457 0.0708,-1.80247 -1.27122,-0.53434 -1.2387,1.31155 -1.16737,1.34462 -1.36167,-0.5395 0.0692,-1.7787 -0.005,-1.80455 -1.29191,-0.48059 -1.18287,1.36271 -1.11001,1.39216 -1.38337,-0.48214 -0.005,-1.78025 -0.0806,-1.80247 -1.31101,-0.42582 -1.12448,1.41077 -1.05111,1.43712 -1.40197,-0.42323 -0.0801,-1.7787 -0.15552,-1.79731 -1.32811,-0.37104 -1.06452,1.45676 -0.98959,1.48002 -1.41904,-0.36432 -0.15402,-1.77354 -0.23098,-1.78955 -1.34255,-0.31471 -1.00253,1.50017 -0.92655,1.52031 -1.433,-0.30488 -0.22839,-1.76579 -0.30541,-1.77819 -1.35446,-0.25838 -0.93895,1.54099 -0.86249,1.55753 -1.44436,-0.24391 -0.30178,-1.75493 -0.37981,-1.76372 -1.36427,-0.20154 -0.87334,1.57872 -0.79632,1.59267 -1.45314,-0.18397 -0.37569,-1.73995 -0.4532,-1.74666 -1.3715,-0.14418 -0.80667,1.61386 -0.72863,1.6247 -1.45986,-0.12247 -0.44804,-1.72341 -0.52606,-1.72599 -1.37615,-0.0863 -0.73794,1.64641 -0.66042,1.65313 -1.46348,-0.0615 -0.51986,-1.70274 -0.5979,-1.70222 -1.37821,-0.0289 -0.66921,1.67586 -0.59014,1.67949 h -1.46503 l -0.59015,-1.67949 z m 1.99161,10.49806 A 117.5,117.5 0 0 1 367.50005,250.00024 117.5,117.5 0 0 1 250.00024,367.50005 117.5,117.5 0 0 1 132.49992,250.00024 117.5,117.5 0 0 1 250.00024,132.49992 Z"
         style="fill:#000000;fill-opacity:1;stroke:#000000;stroke-width:0.26458332"
         inkscape:connector-curvature="0" />
      <rect
         style="fill:#000000;fill-opacity:1;stroke:none;stroke-width:0.30537871"
         id="rect4487"
         width="8.0190105"
         height="244.06799"
         x="245.99048"
         y="127.96599" />
      <rect
         style="fill:#000000;fill-opacity:1;stroke:none;stroke-width:0.30537871"
         id="rect4487-3"
         width="8.0190105"
         height="244.06799"
         x="-254.00949"
         y="127.96599"
         transform="rotate(-90)" />
      <circle
         style="fill:#000000;fill-opacity:1;stroke:none;stroke-width:0.26458332"
         id="path4504"
         cx="249.99998"
         cy="249.99998"
         r="34.773811" />
    </g>
    <g
       inkscape:label="transmitter"
       id="transmitter">
      <circle
         style="fill:#dbe36d;fill-opacity:1;stroke:none;stroke-width:0.34653461"
         id="path5412"
         cx="250"
         cy="250.00002"
         r="25" />
      <path
         style="fill:#dbe36d;fill-opacity:1;stroke:none;stroke-width:1.30973709"
         d="M 851.25781 808.39453 A 94.488188 94.488188 0 0 0 945.71484 902.25391 A 94.488188 94.488188 0 0 0 1040.1816 808.39453 L 1030.7227 808.39453 A 85.039369 85.039369 0 0 1 945.71484 892.80469 A 85.039369 85.039369 0 0 1 860.69727 808.39453 L 851.25781 808.39453 z "
         transform="scale(0.26458333)"
         id="path5412-9" />
      <path
         style="fill:#dbe36d;fill-rule:evenodd;stroke:none;stroke-width:0.26458332px;stroke-linecap:butt;stroke-linejoin:miter;stroke-opacity:1;fill-opacity:1"
         d="m 225.22862,213.88771 4.76871,-115.886976 h 2.5063 l -4.77748,115.886976 z"
         id="path5522"
         inkscape:connector-curvature="0" />
      <path
         style="fill:#dbe36d;fill-rule:evenodd;stroke:none;stroke-width:0.26458332px;stroke-linecap:butt;stroke-linejoin:miter;stroke-opacity:1;fill-opacity:1"
         d="M 275.21471,213.88771 264.96108,98.000734 h -2.4939 l 10.24486,115.886976 z"
         id="path5524"
         inkscape:connector-curvature="0" />
      <path
         style="fill:#dbe36d;fill-opacity:1;stroke:none;stroke-width:1.02863574"
         d="M 934.59961 308.05469 A 66.141732 66.141732 0 0 0 868.45703 374.19727 A 66.141732 66.141732 0 0 0 934.59961 440.33789 A 66.141732 66.141732 0 0 0 1000.7402 374.19727 A 66.141732 66.141732 0 0 0 934.59961 308.05469 z M 934.59961 317.50391 A 56.692913 56.692913 0 0 1 991.29297 374.19727 A 56.692913 56.692913 0 0 1 934.59961 430.88867 A 56.692913 56.692913 0 0 1 877.90625 374.19727 A 56.692913 56.692913 0 0 1 934.59961 317.50391 z "
         transform="scale(0.26458333)"
         id="path5526" />
    </g>
    <g
       id="hour_hand"
       transform="translate(247.01288,95.489127)">
      <g
         id="g4511">
        <circle
           r="6"
           id="path4496"
           style="fill:#8800aa;fill-opacity:1;stroke:none;stroke-width:0.54243803"
           cx="0"
           cy="0" />
        <circle
           r="10"
           cy="-30"
           id="path4496-3"
           style="fill:#8800aa;fill-opacity:1;stroke:none;stroke-width:1.08487606"
           cx="0" />
        <rect
           y="-25"
           x="-3"
           height="20"
           width="6"
           id="rect4513"
           style="fill:#8800aa;fill-opacity:1;stroke:none;stroke-width:0.52916664" />
        <path
           id="path4535"
           inkscape:label="Triangle"
           style="fill:#8800aa;fill-opacity:1;stroke:none;stroke-width:0.33694607"
           d="M -4.4664662,-37.260354 H 4.4664662 L -1.6e-6,-64.777115 Z"
           inkscape:connector-curvature="0" />
      </g>
    </g>
    <path
       id="path6484"
       d="m 363.2422,294.64673 c 1.0497,-3.4335 3.38514,-6.47091 6.74014,-8.61971 3.35503,-2.14886 7.72591,-3.40464 12.67617,-3.41568 4.95023,-0.011 10.47466,1.22548 16.03326,3.86576 5.55859,2.64029 11.14553,6.68497 16.19997,12.07011 5.05447,5.38515 9.57089,12.10905 13.05365,19.89617 3.48274,7.78718 5.92737,16.63388 6.97956,26.09403 1.05223,9.46014 0.70932,19.52858 -1.18697,29.65553 -1.89629,10.1269 -5.34654,20.30653 -10.28807,29.9682 -4.9415,9.66166 -11.3726,18.79983 -19.01839,26.90896 -7.64581,8.1091 -16.50262,15.18472 -26.1243,20.86266 -9.62169,5.67792 -20.00306,9.95542 -30.59371,12.66434 -10.59066,2.70896 -21.38477,3.84878 -31.81039,3.47232 -10.42559,-0.37648 -20.47711,-2.26753 -29.64709,-5.40804 -9.16999,-3.14049 -17.45396,-7.52671 -24.48513,-12.7221 -7.03116,-5.19539 -12.80684,-11.19482 -17.15563,-17.45715 -4.3488,-6.26236 -7.27015,-12.78186 -8.81307,-18.99568 -1.54297,-6.21382 -1.70922,-12.11641 -0.75949,-17.20915 0.94975,-5.09276 3.0117,-9.37122 5.75436,-12.47718 2.74264,-3.10596 6.16081,-5.0367 9.71894,-5.62909 3.55814,-0.59242 7.25046,0.15416 10.52016,2.18266 3.26971,2.02855 6.11127,5.33739 8.03265,9.65841 1.92138,4.321 2.91807,9.65044 2.63895,15.54973 -0.27915,5.89931 -1.83682,12.36329 -4.82871,18.84993 -2.9919,6.48663 -7.41859,12.9901 -13.21527,18.94763 -5.79669,5.95751 -12.96169,11.36348 -21.21859,15.72046 -8.25688,4.357 -17.60194,7.66043 -27.58797,9.55427 -9.98605,1.89382 -20.6079,2.3753 -31.31467,1.28442 -10.70674,-1.09083 -21.49254,-3.75468 -31.78548,-7.93042 -10.29293,-4.17574 -20.08742,-9.86172 -28.87651,-16.78468 -8.7891,-6.92298 -16.568393,-15.0792 -22.972113,-24.02404 -6.403738,-8.94483 -11.429205,-18.67318 -14.906654,-28.63593 -3.477458,-9.96274 -5.406365,-20.15411 -5.837828,-30.00341 -0.431475,-9.84929 0.632776,-19.35098 2.92937,-27.99871 2.296591,-8.6478 5.821835,-16.43716 10.140984,-23.00243 4.319119,-6.56527 9.427061,-11.9037 14.784543,-15.84485 5.357508,-3.9412 10.958828,-6.48459 16.243058,-7.67999 5.28424,-1.19539 10.2459,-1.04452 14.38835,0.19124 4.14246,1.23573 7.46126,3.55259 9.60021,6.51851 2.139,2.96589 3.09543,6.57564 2.70833,10.2933 -0.3867,3.71769 -2.11835,7.53743 -5.13475,10.90227 -3.01635,3.36483 -7.31616,6.26914 -12.62915,8.22086 -5.31294,1.95167 -11.63535,2.94619 -18.52645,2.63244 -6.891112,-0.31378 -14.345804,-1.93855 -21.819855,-5.0299 -7.474032,-3.09132 -14.961663,-7.64973 -21.897989,-13.61021 -6.936319,-5.9605 -13.315761,-13.32135 -18.638719,-21.8057 -5.322976,-8.48432 -9.584973,-18.08849 -12.427848,-28.36469 -2.842887,-10.27618 -4.263929,-21.21929 -4.101089,-32.27765 0.162839,-11.05835 1.910105,-22.22614 5.182792,-32.93061 3.272682,-10.70446 8.069088,-20.94004 14.11784,-30.1989 6.048748,-9.25886 13.346153,-17.53645 21.44939,-24.46609 8.103222,-6.92964 17.007152,-12.50856 26.164484,-16.56582 9.157314,-4.05728 18.562274,-6.59237 27.645784,-7.65508 9.08354,-1.06272 17.84009,-0.65479 25.76501,0.96176 7.92492,1.61661 15.01373,4.43815 20.90215,8.03154 5.88843,3.59332 10.57381,7.95326 13.88709,12.54226 3.31324,4.589 5.25388,9.40122 5.87297,13.87753 0.61911,4.47631 -0.0816,8.61113 -1.83956,11.90969 -1.75798,3.29854 -4.56943,5.75635 -8.00124,7.01908 -3.43181,1.26273 -7.47876,1.32768 -11.60406,0.0357 -4.12525,-1.29194 -8.32302,-3.94138 -12.0354,-7.88732 -3.71237,-3.94593 -6.93384,-9.18673 -9.17153,-15.45 -2.23766,-6.26323 -3.48713,-13.54533 -3.3966,-21.4034 0.0906,-7.85809 1.52372,-16.28705 4.45551,-24.740606 2.93182,-8.453554 7.3628,-16.92594 13.22815,-24.850092 5.86536,-7.924168 13.16345,-15.294559 21.6175,-21.609487 8.45402,-6.314916 18.06034,-11.569862 28.37116,-15.40456 10.31082,-3.834695 21.32105,-6.246393 32.47882,-7.070986 11.15776,-0.824583 22.45732,-0.06149 33.3256,2.232394 10.86825,2.293875 21.29968,6.116849 30.78599,11.199608 9.48631,5.082758 18.02299,11.421598 25.24278,18.575784 7.21979,7.154172 13.11993,15.118545 17.5288,23.347836 4.4089,8.229285 7.32595,16.717669 8.80024,24.898159 1.47427,8.18047 1.50746,16.04744 0.36056,23.09815 -1.14687,7.05069 -3.47011,13.28064 -6.53755,18.32747 -3.06743,5.04683 -6.8739,8.9078 -10.88309,11.41565 -4.00916,2.50786 -8.21524,3.66206 -12.06029,3.51538 -3.84506,-0.14662 -7.32356,-1.59244 -9.94213,-4.0733 -2.61855,-2.4808 -4.37269,-5.99288 -4.90962,-10.10149 -0.53691,-4.10864 0.14576,-8.80869 2.20657,-13.56186 2.06048,-4.75316 5.49899,-9.55365 10.25289,-13.84234 4.75387,-4.2887 10.82143,-8.06001 17.92861,-10.81991 7.10716,-2.7599 15.25024,-4.50394 23.98456,-4.87934 8.73434,-0.37539 18.05482,0.62048 27.41322,3.1448 9.35841,2.5242 18.74897,6.57719 27.60269,12.095 8.85374,5.51784 17.16509,12.49876 24.43031,20.66678 7.26522,8.16805 13.47984,17.51945 18.28151,27.60704 4.8017,10.08761 8.18768,20.90622 9.99178,31.90444 1.80408,10.99825 2.02572,22.17035 0.71968,32.94353 -1.30605,10.77313 -4.13804,21.14177 -8.22885,30.59777 -4.09079,9.45599 -9.43669,17.99487 -15.59908,25.24928 -6.16235,7.25441 -13.13606,13.22168 -20.37792,17.72997 -7.24185,4.5083 -14.7461,7.55712 -21.94775,9.1952 -7.20167,1.63805 -14.09522,1.8671 -20.17993,0.94766 -6.08471,-0.9194 -11.35611,-2.98356 -15.45388,-5.76081 -4.09775,-2.77731 -7.01917,-6.26256 -8.59902,-9.92015 -1.57978,-3.65755 -1.81746,-7.48163 -0.76773,-10.91514 z"
       style="fill:none;stroke:#000000;stroke-width:1.61344635"
       inkscape:connector-curvature="0" />
  </g>
</svg>
